<?xml version="1.0" standalone="no"?>
<!DOCTYPE svg PUBLIC "-//W3C//DTD SVG 1.1//EN" "http://www.w3.org/Graphics/SVG/1.1/DTD/svg11.dtd" >
<svg xmlns="http://www.w3.org/2000/svg" xmlns:xlink="http://www.w3.org/1999/xlink" version="1.1">
<metadata>
Created by FontForge 20170731 at Tue Aug 27 00:11:08 2019
 By Aleksey,,,
(c) 2008 The Monotype Corporation. All Rights Reserved.
</metadata>
<defs>
<font id="BedTimes-Regular" horiz-adv-x="1024" >
  <font-face 
    font-family="Bed Times"
    font-weight="400"
    font-stretch="normal"
    units-per-em="2048"
    panose-1="2 2 6 3 5 4 5 2 3 4"
    ascent="1638"
    descent="-410"
    x-height="944"
    cap-height="1356"
    bbox="-737 -628 2673 2062"
    underline-thickness="50"
    underline-position="-200"
    unicode-range="U+0020-FFFC"
  />
<missing-glyph horiz-adv-x="1593" 
d="M1308 1280v-1280h-1024v1280h1024zM1276 1248h-960v-1216h960v1216z" />
    <glyph glyph-name="fi" unicode="fi" horiz-adv-x="1139" 
d="M205 913v32q0 167 44 263t135 154q89 58 203 58h353v-209h-201q-6 84 -73 120q-45 24 -98.5 24t-96.5 -24q-66 -36 -87 -114q-14 -54 -14 -266v-38h569v-701q0 -110 27 -142q26 -33 119 -34v-36h-456v36q98 0 126 43q20 31 20 133v485q0 93 -10 112q-7 15 -30 24
q-24 8 -145 8h-220v-599q0 -126 32 -167q30 -39 95 -39h83v-36h-547v36h41q39 0 73 20q32 19 46 54q12 34 12 132v599h-178v72h178z" />
    <glyph glyph-name="fl" unicode="fl" horiz-adv-x="1139" 
d="M966 70q26 -33 119 -34v-36h-456v36q98 0 126 43q20 31 20 133v485q0 93 -10 112q-7 15 -30 24q-24 8 -145 8h-220v-599q0 -128 28 -162q35 -44 99 -44h83v-36h-547v36h41q39 0 73 20q32 19 46 54q12 34 12 132v599h-178v72h178v32q0 167 44 263t135 154q89 58 203 58
h353l-1 -540v-668q0 -110 27 -142zM370 913h406l1 298q0 81 -73 120q-45 24 -117.5 24t-115.5 -24q-66 -36 -87 -114q-14 -54 -14 -266v-38z" />
    <glyph glyph-name="uniFDFC" unicode="&#xfdfc;" horiz-adv-x="2501" arabic-form="isolated" 
d="M967 1074q29 -195 46 -339q24 -209 24 -318q0 -159 -75 -254q-68 -84 -197 -119q-109 -30 -279 -30q-192 0 -299 71q-116 78 -116 233q0 88 25 179q21 80 64 173q33 71 84 164l32 -19q-30 -53 -62 -120q-31 -66 -49 -127q-19 -66 -19 -132q0 -123 90 -186q88 -63 248 -63
q170 0 313 58q158 65 158 153q0 100 -31 329q-20 149 -59 398l-33 194l-46 24q0 135 55 244h17q5 -40 14 -56q10 -19 33 -28q32 -14 68 -31q7 -4 23.5 -11.5t23.5 -11.5q0 -67 -5 -102q-4 -27 -20 -90l-57 18q1 -17 29 -201zM1209 1138q-10 59 -29 100q-23 49 -61 84
l123 194q38 -118 55 -287q9 -90 20 -492q18 -179 52 -228q29 -42 61 -42h497q0 120 -28 180q-20 44 -94 124l78 163q72 -92 90 -142q27 -76 27 -255v-244h-570q-69 0 -109 55q-36 48 -54 143q-18 87 -29 234l-12 232q-8 129 -17 181zM2457 728q44 -86 44 -192v-243
q0 -110 -94 -228q-83 -104 -204 -179q-115 -72 -191 -72q-67 0 -149 20q-55 13 -146 47l-143 54l17 40q66 -13 138 -27q68 -13 129 -13q128 0 267 82q128 76 215 190q89 115 89 206q0 80 -46 166q-39 73 -104 144l57 157q83 -77 121 -152zM1396 95l76 145l162 -84l-74 -145z
M1331 -80l-165 85l78 144l162 -86z" />
    <glyph glyph-name=".notdef" horiz-adv-x="1593" 
d="M1308 1280v-1280h-1024v1280h1024zM1276 1248h-960v-1216h960v1216z" />
    <glyph glyph-name=".null" horiz-adv-x="0" 
 />
    <glyph glyph-name="nonmarkingreturn" horiz-adv-x="682" 
 />
    <glyph glyph-name="space" unicode=" " horiz-adv-x="512" 
 />
    <glyph glyph-name="space" unicode="&#xa0;" horiz-adv-x="512" 
 />
    <glyph glyph-name="exclam" unicode="!" horiz-adv-x="682" 
d="M234 1169q-6 53 -6 79q0 64 34 101q33 38 80 38t80 -38q32 -38 32 -113q0 -28 -4 -67l-90 -810h-38zM238 0v203h203v-203h-203z" />
    <glyph glyph-name="quotedbl" unicode="&#x22;" horiz-adv-x="836" 
d="M209 803l-78 580h203l-81 -580h-44zM576 803l-78 580h203l-81 -580h-44z" />
    <glyph glyph-name="numbersign" unicode="#" 
d="M37 427v82h187l69 343h-256v80h275l91 455h83l-91 -455h337l97 455h83l-95 -455h170v-80h-185l-70 -343h255v-82h-272l-93 -455h-81l91 455h-339l-95 -455h-83l93 455h-171zM719 852h-341l-70 -343h339z" />
    <glyph glyph-name="dollar" unicode="$" 
d="M152 334q10 -136 86 -210q75 -73 224 -87v584q-225 139 -300 246q-53 77 -53 185q0 123 92 215q91 91 261 111v92h64v-92q77 -4 138 -19q28 -7 192 -69v-299h-39q-14 160 -82 233q-71 74 -209 87v-508q250 -174 324 -259q71 -85 71 -208q0 -137 -104 -243
q-104 -104 -291 -121v-128h-64v128q-94 4 -175 21q-85 19 -179 58v283h44zM265 1117q0 -72 44 -136q43 -64 153 -136v465q-100 -12 -148 -63q-49 -52 -49 -130zM526 37q75 14 115 37q56 35 89 92q32 56 32 120q0 66 -39 125q-42 61 -197 167v-541z" />
    <glyph glyph-name="percent" unicode="%" horiz-adv-x="1706" 
d="M72 1018q0 107 40 194q41 89 110 132q68 43 142 43q135 0 210 -112q74 -113 74 -257q0 -174 -84 -269t-202 -95q-78 0 -145 44q-66 44 -105 129q-40 84 -40 191zM315 -56l988 1443h89l-988 -1443h-89zM441 1280q-31 51 -80 51q-51 0 -90 -60q-40 -59 -40 -252
q0 -140 22 -212q16 -54 53 -85q21 -18 52 -18q48 0 82 52q50 77 50 257q0 191 -49 267zM1060 308q0 106 40 192q39 86 108 130q67 43 138 43q72 0 142 -45q69 -44 109 -131q38 -87 38 -189q0 -178 -85 -270q-85 -94 -201 -94q-73 0 -141 45q-69 45 -108 129q-40 81 -40 190z
M1429 569q-33 51 -82 51t-83 -54q-45 -70 -45 -265q0 -180 46 -250q35 -51 82 -51q46 0 82 55q48 74 48 251q0 188 -48 263z" />
    <glyph glyph-name="ampersand" unicode="&#x26;" horiz-adv-x="1593" 
d="M1406 830q-84 -8 -122 -37q-40 -31 -125 -183q-80 -146 -190 -284q87 -101 153 -139q69 -41 135 -40q64 -1 112 36q48 38 65 106l35 -26q-37 -138 -114 -199q-77 -65 -182 -65q-74 0 -159 44q-78 38 -178 143q-121 -107 -213 -145q-97 -42 -204 -42l-338 1l-6 285
q0 116 83 232q83 115 313 238q-46 106 -61 164q-16 67 -16 121q0 163 121 250q92 67 213 67h258v-233q0 -104 -69 -178q-71 -78 -246 -168q123 -220 253 -396q169 200 169 339q0 43 -29 78q-22 27 -60 31v35h402v-35zM558 1116q0 -43 16 -104q13 -46 64 -172q121 58 178 129
q59 69 59 160q0 69 -42 113q-43 44 -107 46q-83 -2 -125 -58q-43 -59 -43 -114zM634 139q57 25 153 103q-127 172 -176 252t-107 197q-80 -46 -172 -146q-43 -47 -67.5 -101t-22 -122.5t45.5 -130.5q30 -43 76 -64.5t96 -21.5t93.5 9t80.5 25z" />
    <glyph glyph-name="quotesingle" unicode="'" horiz-adv-x="369" 
d="M158 803l-78 580h203l-81 -580h-44z" />
    <glyph glyph-name="parenleft" unicode="(" horiz-adv-x="682" 
d="M310 128q26 -138 63 -222q39 -86 100 -160q60 -75 163 -147v-37q-152 77 -252 178q-144 146 -222 342t-78 409q0 310 153 566t399 365v-42q-122 -67 -202 -186q-79 -118 -118 -299t-39 -378q0 -213 33 -389z" />
    <glyph glyph-name="parenright" unicode=")" horiz-adv-x="682" 
d="M372 852q-26 143 -62 221q-37 82 -100 160q-61 76 -164 147v42q153 -76 253 -177q143 -146 221 -342t78 -410q0 -309 -152 -566q-154 -256 -400 -365v37q124 69 203 186q79 118 118 300q38 184 38 378q0 213 -33 389z" />
    <glyph glyph-name="asterisk" unicode="*" 
d="M220 1248q32 0 70 -21q36 -20 92 -84q56 -65 112 -99q-5 71 -28 137q-34 96 -34 135q0 53 25 79q24 27 60 27q31 0 54 -27q23 -28 23 -77q0 -44 -26 -125q-27 -81 -33 -149q54 33 99 85q65 77 101 98q32 19 67 19q34 0 56 -22t22 -54q0 -38 -33 -66q-35 -30 -165 -58
q-77 -17 -128 -39q54 -28 127 -41q122 -23 159 -55q37 -33 37 -72q0 -30 -22 -52t-53 -22q-30 0 -66 21q-38 21 -99 94q-39 47 -102 92q1 -55 23 -124q36 -118 36 -161q0 -40 -24 -67q-24 -28 -51 -28q-36 0 -67 29q-21 21 -21 67q0 47 23 116q24 73 29 93q7 29 11 75
q-61 -41 -103 -87q-73 -82 -110 -104q-25 -16 -54 -16q-33 0 -58 23q-24 22 -24 51q0 24 21 53q19 26 61 45q29 13 123 32q68 15 121 38q-54 27 -129 42q-123 25 -152 47q-45 33 -45 80q0 27 23 50q22 22 52 22z" />
    <glyph glyph-name="plus" unicode="+" horiz-adv-x="1155" 
d="M37 640v82h498v497h80v-497h500v-82h-500v-499h-80v499h-498z" />
    <glyph glyph-name="comma" unicode="," horiz-adv-x="512" 
d="M110 -297q103 34 160 105q56 73 56 152q0 18 -9 32q-7 8 -26 8h-86v203h203v-203q0 -65 -17 -110t-54 -92q-71 -88 -227 -139v44z" />
    <glyph glyph-name="hyphen" unicode="-" horiz-adv-x="682" 
d="M600 384h-517v151h517v-151z" />
    <glyph glyph-name="hyphen" unicode="&#xad;" horiz-adv-x="682" 
d="M600 384h-517v151h517v-151z" />
    <glyph glyph-name="period" unicode="." horiz-adv-x="523" 
d="M160 0v203h203v-203h-203z" />
    <glyph glyph-name="slash" unicode="/" horiz-adv-x="569" 
d="M3 -28l491 1450h80l-491 -1450h-80z" />
    <glyph glyph-name="zero" unicode="0" 
d="M183 205q-109 193 -109 465q0 233 70 400q70 166 186 249q91 65 186 65q156 0 280 -159q155 -197 155 -534q0 -235 -68 -401q-68 -165 -173 -239q-106 -75 -204 -75q-194 0 -323 229zM394 1257q-73 -83 -98 -261q-26 -182 -26 -351q0 -280 69 -457q57 -149 170 -149
q54 0 112 49q58 47 88 162q46 171 46 485q0 233 -48 387q-36 115 -93 163q-40 33 -99 33q-69 0 -121 -61z" />
    <glyph glyph-name="one" unicode="1" 
d="M603 1384v-1145q0 -115 10 -142q9 -28 39 -43q31 -16 122 -17v-37h-510v37q95 1 124 17q28 14 39 39t11 146v732q0 150 -10 190q-8 33 -25 47q-19 15 -45 15q-38 0 -103 -31l-15 31l330 161h33z" />
    <glyph glyph-name="two" unicode="2" 
d="M44 0v37q355 325 497 526q144 204 144 373q0 130 -79 212q-80 83 -189 83q-100 0 -179 -58q-80 -59 -118 -172h-37q26 185 129 284q104 99 258 99q166 0 276 -106q110 -107 110 -250q0 -102 -48 -206q-73 -161 -240 -343q-252 -275 -311 -328h354q106 0 152 8q43 7 78 33
q36 25 61 69h37l-95 -261h-800z" />
    <glyph glyph-name="three" unicode="3" 
d="M104 1098q59 137 147 212q89 74 220 74q163 0 250 -106q66 -80 66 -169q0 -149 -186 -306q125 -50 189 -140q64 -91 64 -214q0 -177 -112 -305q-146 -168 -423 -168q-137 0 -186 34q-50 35 -50 73q0 29 24 51q22 22 56 22q24 0 51 -8q18 -5 77 -36q61 -32 83 -38
q39 -11 79 -11q102 0 178 79q75 79 75 187q0 78 -35 154q-26 57 -57 85q-43 40 -118 73q-76 32 -153 32h-32v30q79 11 159 57q78 46 115 113q36 66 36 145q0 103 -64 167q-65 63 -161 63q-156 0 -259 -166z" />
    <glyph glyph-name="four" unicode="4" 
d="M771 358v-358h-165v358h-574v128l629 898h110v-884h182v-142h-182zM130 500h476v673z" />
    <glyph glyph-name="five" unicode="5" 
d="M403 1186l-89 -182q265 -39 420 -197q133 -136 133 -320q0 -108 -43 -198q-42 -89 -110 -155q-65 -64 -147 -103q-114 -55 -236 -55q-121 0 -177 42q-56 41 -56 91q0 27 23 50q23 21 58 21q25 0 46 -8q18 -7 66 -41q74 -52 152 -52q117 0 206 89q88 88 88 215
q0 124 -79 230t-218 164q-108 44 -297 52l260 527h486l-78 -170h-408z" />
    <glyph glyph-name="six" unicode="6" 
d="M918 1347q-134 -14 -215 -52q-85 -41 -165 -121q-82 -81 -135 -180q-54 -100 -90 -237q144 99 289 99q139 0 241 -112t102 -288q0 -171 -103 -310q-125 -170 -328 -170q-138 0 -236 92q-190 178 -190 464q0 184 73 346q74 165 209 291q135 128 259 171q126 44 231 44h58
v-37zM506 769q-39 0 -81 -16q-43 -17 -129 -69q-18 -135 -18 -218q0 -96 36 -208q35 -113 105 -179q52 -47 124 -47q87 0 156 82q68 83 68 234q0 171 -68 296t-193 125z" />
    <glyph glyph-name="seven" unicode="7" 
d="M933 1318l-452 -1346h-112l405 1221h-373q-113 0 -161 -27q-84 -47 -135 -142l-29 11l130 321h727v-38z" />
    <glyph glyph-name="eight" unicode="8" 
d="M124 309q0 91 61 179q60 89 208 195q-160 132 -207 212t-47 166q0 132 102 228q103 95 271 95q163 0 264 -89q100 -88 100 -203q0 -76 -54 -155t-225 -186q178 -138 233 -214q76 -101 76 -215q0 -144 -109 -244q-109 -102 -286 -102q-193 0 -301 121q-86 98 -86 212z
M550 790q121 109 152 171q32 62 32 141q0 104 -59 165q-59 59 -161 59q-101 0 -166 -59q-64 -58 -64 -138q0 -51 27 -104q25 -53 75 -99zM727 368q-69 105 -287 277q-83 -71 -123 -152t-40 -179q0 -129 71 -206q70 -78 179 -78t173 61q65 62 65 148q0 71 -38 129z" />
    <glyph glyph-name="nine" unicode="9" 
d="M108 9q128 1 242 61q112 58 217 204q105 148 145 321q-158 -101 -284 -101q-143 0 -245 111q-102 109 -102 293q0 178 102 317q123 169 321 169q168 0 286 -138q146 -172 146 -422q0 -226 -111 -421q-111 -196 -309 -325q-160 -106 -351 -106h-57v37zM508 585
q47 0 109 22q65 23 111 62q18 130 18 208q0 97 -33 210q-33 112 -93 172q-62 60 -138 60q-88 0 -156 -80q-67 -79 -67 -238q0 -211 89 -330q65 -86 160 -86z" />
    <glyph glyph-name="colon" unicode=":" horiz-adv-x="569" 
d="M187 731v203h203v-203h-203zM187 0v203h203v-203h-203z" />
    <glyph glyph-name="semicolon" unicode=";" horiz-adv-x="569" 
d="M237 733v203h203v-203h-203zM142 -297q106 35 160 105q56 73 56 152q0 18 -9 32q-7 8 -26 8h-86v203h203v-203q0 -65 -16.5 -110.5t-54.5 -91.5q-71 -88 -227 -139v44z" />
    <glyph glyph-name="semicolon" unicode="&#x37e;" horiz-adv-x="569" 
d="M237 733v203h203v-203h-203zM142 -297q106 35 160 105q56 73 56 152q0 18 -9 32q-7 8 -26 8h-86v203h203v-203q0 -65 -16.5 -110.5t-54.5 -91.5q-71 -88 -227 -139v44z" />
    <glyph glyph-name="less" unicode="&#x3c;" horiz-adv-x="1155" 
d="M1115 1085l-926 -402l926 -406v-90l-1076 470v49l1076 466v-87z" />
    <glyph glyph-name="equal" unicode="=" horiz-adv-x="1155" 
d="M1116 801h-1079v82h1079v-82zM1116 475h-1079v82h1079v-82z" />
    <glyph glyph-name="greater" unicode="&#x3e;" horiz-adv-x="1155" 
d="M37 273l927 402l-927 406v91l1076 -470v-49l-1076 -466v86z" />
    <glyph glyph-name="question" unicode="?" horiz-adv-x="909" 
d="M671 741q-145 -162 -177 -232q-32 -68 -40 -189h-41q8 131 32 209q23 79 101 229q60 112 78 174q18 60 18 122q0 128 -67 202q-67 75 -166 75q-87 0 -137 -41t-50 -89q0 -37 30 -91t30 -82q0 -35 -23 -60q-22 -25 -56 -25q-41 0 -76 42q-35 41 -35 115q0 113 97 200
t263 87q206 0 303 -120q72 -89 72 -195q0 -72 -32 -150q-34 -80 -124 -181zM340 0v203h203v-203h-203z" />
    <glyph glyph-name="at" unicode="@" horiz-adv-x="1886" 
d="M1291 559q-69 -237 -79 -284q-14 -62 -14 -96q0 -32 22 -54q21 -22 53 -22q73 0 176 73q101 73 175 237q73 162 73 342q0 171 -82 316q-82 144 -233 223q-152 77 -333 77q-230 0 -429 -122q-197 -122 -313 -353q-116 -230 -116 -478q0 -230 102 -418q101 -188 285 -285
q184 -96 396 -96q263 0 476 141q213 142 328 412h58q-90 -274 -327 -444q-238 -170 -540 -170q-239 0 -442 112q-204 112 -317 319q-113 208 -113 455q0 264 124 493q125 228 348 357q224 128 474 128q208 0 374 -85q165 -85 253 -250q87 -165 87 -350q0 -183 -81 -362
q-82 -180 -208 -262q-125 -82 -263 -82q-77 0 -114 36q-39 36 -39 101q0 56 18 147q-150 -180 -237 -232q-89 -53 -157 -53q-71 0 -126 64q-55 62 -55 169q0 144 95 325t250 293q116 83 206 83q68 0 112 -34q43 -34 60 -104l33 110l157 22zM1182 773q0 66 -36 105
q-38 39 -89 39q-76 0 -152 -79q-114 -117 -193 -313q-59 -145 -59 -232q0 -63 36 -102q34 -40 79 -40q57 0 122 44q61 41 134 136q70 91 102 183q56 160 56 259z" />
    <glyph glyph-name="A" unicode="A" horiz-adv-x="1479" 
d="M320 240q-34 -78 -34 -118q0 -32 30 -54q28 -23 127 -31v-37h-427v37q84 15 110 39q52 49 113 195l477 1116h35l472 -1128q56 -134 104 -176t129 -46v-37h-535v37q82 5 110 27t28 56q0 46 -40 139l-82 195h-525zM443 528h466l-230 548z" />
    <glyph glyph-name="B" unicode="B" horiz-adv-x="1366" 
d="M1191 994q0 -102 -62 -182q-61 -81 -183 -120h311l-3 -692h-1220v37h51q85 0 122 54q23 35 23 149v876q0 125 -29 159q-39 44 -116 44h-51v37h586q164 0 263 -24q150 -36 229 -127t79 -211zM422 746q34 -7 85 -10q41 -4 104 -4q145 0 220 32q73 31 112 96q39 64 39 142
q0 119 -97 203t-283 84q-102 0 -180 -22v-521zM422 98q116 -27 229 -27q140 0 223 20t131 62q95 81 95 201q0 79 -43 152t-140 115t-318 42q-48 0 -106 -2q-37 -1 -71 -7v-556z" />
    <glyph glyph-name="C" unicode="C" horiz-adv-x="1366" 
d="M1233 926q-61 206 -177 298q-115 91 -276 91q-134 0 -244 -68q-110 -69 -171 -219q-63 -150 -63 -373q0 -183 59 -319q58 -134 178 -207q119 -72 270 -72q133 0 233 57q100 55 222 224l31 -20q-102 -181 -238 -265q-137 -84 -323 -84q-338 0 -522 250q-138 186 -138 438
q0 204 91 373q92 170 251 264q159 93 348 93q148 0 290 -72q41 -22 60 -22q28 0 47 19q27 28 37 75h35l31 -461h-31z" />
    <glyph glyph-name="D" unicode="D" horiz-adv-x="1479" 
d="M86 37q86 0 122 55q22 32 22 148v876q0 128 -28 159q-39 44 -116 44h-51v37h552q304 0 463 -69q157 -69 255 -230q96 -161 96 -372q0 -283 -172 -473q-194 -212 -588 -212h-606v37h51zM422 98q125 -28 213 -28q232 0 385 163t153 442q0 281 -153 443t-393 162
q-87 0 -205 -29v-1153z" />
    <glyph glyph-name="E" unicode="E" horiz-adv-x="1251" 
d="M726 746q115 0 155 35q52 46 58 162h37v-472h-37q-13 95 -28 127q-19 36 -59 55q-42 20 -126 20h-298v-447q0 -88 8 -109q8 -20 28 -31q20 -12 76 -12h230q116 0 167 16q52 16 100 63q63 62 127 187h40l-117 -340h-1045v37h48q47 0 91 23q32 17 44 48q11 33 11 131v881
q0 128 -26 159q-36 40 -120 40h-48v37h1045l15 -297h-39q-21 108 -46 147t-76 61q-41 15 -141 15h-372v-536h298z" />
    <glyph glyph-name="F" unicode="F" horiz-adv-x="1139" 
d="M666 749q84 0 125 38q39 37 52 148h37v-459h-37q-2 80 -20 116q-19 36 -54 56q-35 18 -103 18h-247v-426q0 -104 13 -136q10 -25 42 -43q44 -24 92 -24h49v-37h-582v37h48q85 0 122 49q24 32 24 154v876q0 104 -13 136q-11 26 -41 43q-43 24 -92 24h-48v37h1009l13 -298
h-35q-26 95 -60 140q-35 44 -85 64q-52 20 -157 20h-299v-533h247z" />
    <glyph glyph-name="G" unicode="G" horiz-adv-x="1479" 
d="M1257 959q-52 159 -137 241q-122 117 -311 117q-259 0 -394 -205q-113 -173 -113 -412q0 -194 75 -354t197 -234q122 -75 249 -75q76 0 145 19q74 20 135 56v392q0 102 -15 134q-16 32 -48 48t-115 16v38h525v-38h-25q-79 0 -107 -52q-20 -38 -20 -146v-415
q-120 -64 -227 -91q-114 -29 -249 -29q-393 0 -597 252q-153 189 -153 436q0 179 86 343q102 195 280 300q148 87 352 87q74 0 135 -12q57 -11 171 -53q56 -21 75 -21t33 18q13 16 16 68h37l35 -428h-35z" />
    <glyph glyph-name="H" unicode="H" horiz-adv-x="1479" 
d="M1051 1115q0 105 -13 137q-10 25 -42 43q-44 24 -91 24h-48v37h580v-37h-48q-47 0 -91 -23q-33 -17 -43 -48q-12 -33 -12 -133v-875q0 -104 13 -136q11 -26 41 -43q43 -24 92 -24h48v-37h-580v37h48q84 0 121 49q25 31 25 154v413h-630v-413q0 -104 13 -136
q10 -25 42 -43q44 -24 91 -24h49v-37h-581v37h48q85 0 122 49q24 32 24 154v875q0 105 -13 137q-11 26 -41 43q-44 24 -92 24h-48v37h581v-37h-49q-47 0 -91 -23q-31 -16 -43 -48q-12 -33 -12 -133v-388h630v388z" />
    <glyph glyph-name="I" unicode="I" horiz-adv-x="682" 
d="M51 0v37h48q85 0 122 49q24 32 24 154v876q0 104 -13 136q-11 26 -41 43q-43 24 -92 24h-48v37h581v-37h-49q-84 0 -121 -49q-25 -31 -25 -154v-876q0 -104 13 -136q10 -25 42 -43q44 -24 91 -24h49v-37h-581z" />
    <glyph glyph-name="J" unicode="J" horiz-adv-x="797" 
d="M785 1356v-37h-49q-84 0 -121 -49q-24 -32 -24 -154v-663q0 -153 -33 -248q-35 -96 -116 -165q-81 -71 -198 -71q-95 0 -148 47q-54 46 -54 106q0 49 25 74q32 31 77 31q32 0 58 -21q25 -21 64 -112q22 -54 59 -54q27 0 51 33q23 34 23 117v926q0 104 -13 136
q-10 25 -42 43q-44 24 -91 24h-49v37h581z" />
    <glyph glyph-name="K" unicode="K" horiz-adv-x="1479" 
d="M1112 255q124 -124 210 -167q87 -45 174 -51v-37h-645v37q58 0 84 20q25 19 25 43t-9 43q-9 17 -63 71l-468 463v-437q0 -104 13 -136q10 -25 42 -43q43 -24 91 -24h46v-37h-578v37h48q85 0 122 49q24 32 24 154v876q0 104 -13 137q-11 25 -41 42q-44 24 -92 24h-48v37
h578v-37h-46q-47 0 -91 -23q-31 -16 -43 -48t-12 -132v-415q7 7 137 127q298 273 359 363q27 41 27 70q0 23 -21 41q-22 17 -71 17h-31v37h498v-37q-44 -2 -80 -12q-35 -10 -88 -42q-50 -30 -128 -102q-9 -8 -203 -205l-207 -206z" />
    <glyph glyph-name="L" unicode="L" horiz-adv-x="1251" 
d="M736 86q155 0 219 23q61 22 115 82q51 57 104 184l33 -7l-116 -368h-1050v37h51q85 0 123 56q21 31 21 148v875q0 128 -28 159q-39 44 -116 44h-51v37h614v-37q-107 1 -151 -20q-43 -21 -60 -53q-16 -31 -16 -153v-852q0 -83 16 -114q12 -21 37 -31q24 -10 156 -10h99z
" />
    <glyph glyph-name="M" unicode="M" horiz-adv-x="1821" 
d="M314 235q0 -125 27 -156q37 -42 117 -42h48v-37h-472v37h48q86 0 122 52q22 31 22 146v886q0 88 -20 130q-14 30 -51 49t-121 19v37h384l492 -1061l484 1061h384v-37h-47q-87 0 -123 -52q-22 -31 -22 -146v-886q0 -125 28 -156q38 -42 117 -42h47v-37h-576v37h48
q88 0 122 52q22 31 22 146v906l-523 -1141h-33l-524 1141v-906z" />
    <glyph glyph-name="N" unicode="N" horiz-adv-x="1479" 
d="M1170 339v782q0 125 -28 156q-38 42 -117 42h-47v37h472v-37h-48q-86 0 -122 -52q-22 -31 -22 -146v-1143h-36l-894 1092v-835q0 -125 27 -156q37 -42 117 -42h48v-37h-472v37h47q87 0 123 52q22 31 22 146v943q-56 67 -89 91q-29 21 -90 41q-28 9 -88 9v37h368z" />
    <glyph glyph-name="O" unicode="O" horiz-adv-x="1479" 
d="M292 1210q190 177 457 177q264 0 458 -200q193 -200 193 -501q0 -309 -195 -513t-472 -204q-280 0 -470 199q-191 200 -191 515q0 323 220 527zM1034 1178q-109 136 -304 136q-182 0 -292 -135q-137 -169 -137 -492q0 -333 142 -511q109 -136 288 -136q191 0 316 149
q124 148 124 470q0 347 -137 519z" />
    <glyph glyph-name="P" unicode="P" horiz-adv-x="1139" 
d="M420 240q0 -128 28 -159q38 -44 115 -44h52v-37h-581v37h51q85 0 123 56q20 32 20 147v876q0 128 -27 159q-39 44 -116 44h-51v37h989v-749h-603v-367zM420 692q51 -10 94 -15q45 -5 114 -5q113 0 195.5 85t82.5 204q0 136 -88 225t-223 89q-98 0 -175 -19v-564z" />
    <glyph glyph-name="Q" unicode="Q" horiz-adv-x="1479" 
d="M1401 677q0 -249 -138 -437q-140 -188 -361 -255q103 -177 221 -259q119 -83 269 -95v-32q-134 4 -295 55q-156 50 -297 140q-140 89 -243 191q-144 59 -228 123q-122 98 -189 239q-68 142 -68 334q0 303 197 505q197 201 477 201q266 0 461 -201q194 -203 194 -509z
M1098 1061q-57 128 -151 189q-95 60 -213 60q-182 0 -293 -130q-140 -164 -140 -499q0 -329 142 -507q110 -137 291 -137q187 0 303 137q135 162 135 478q0 241 -74 409z" />
    <glyph glyph-name="R" unicode="R" horiz-adv-x="1366" 
d="M563 634h-142v-394q0 -128 28 -159q38 -44 114 -44h53v-37h-581v37h51q85 0 123 56q21 31 21 147v876q0 128 -28 159q-39 44 -116 44h-51v37h1058v-722h-314l260 -363q97 -135 165 -178q70 -44 180 -56v-37h-362zM454 697q9 -1 107 -1q176 0 283.5 76.5t107.5 221.5
q0 139 -78.5 212.5t-270.5 73.5q-86 0 -182 -19v-564h33z" />
    <glyph glyph-name="S" unicode="S" horiz-adv-x="1139" 
d="M902 918q-18 137 -64 215q-47 80 -133 127t-178 47q-105 0 -172 -63q-68 -65 -68 -145q0 -63 43 -113q61 -75 295 -200q187 -100 260 -156q70 -56 107 -129t37 -155q0 -154 -119 -265q-119 -112 -308 -112q-58 0 -111 9q-32 5 -128 37q-96 31 -124 31q-25 0 -39 -15
q-14 -14 -22 -62h-37v465h37q25 -144 70 -218q43 -73 135 -121q90 -48 198 -48q125 0 198 66q72 66 72 156q0 50 -27 101q-30 53 -86 95q-41 32 -213 128q-177 99 -247 155q-76 61 -112 128q-38 71 -38 154q0 146 112 252q112 105 285 105q106 0 229 -53q54 -25 79 -25
q27 0 43 16q15 14 26 62h37v-469h-37z" />
    <glyph glyph-name="T" unicode="T" horiz-adv-x="1251" 
d="M1162 1038q-10 84 -30 120q-31 57 -82 86q-52 27 -136 27h-191v-1036q0 -125 27 -156q38 -42 117 -42h47v-37h-575v37h48q86 0 122 52q22 31 22 146v1036h-163q-93 0 -135 -14q-52 -19 -89 -73q-36 -52 -44 -146h-38l16 318h1107l15 -318h-38z" />
    <glyph glyph-name="U" unicode="U" horiz-adv-x="1479" 
d="M1457 1356v-37h-51q-80 0 -123 -67q-21 -32 -21 -144v-550q0 -205 -40 -316q-41 -114 -159 -193q-118 -81 -323 -81q-221 0 -337 77q-115 76 -163 207q-32 90 -32 334v530q0 126 -34 164q-35 39 -112 39h-51v37h586v-37h-52q-84 0 -120 -53q-25 -35 -25 -150v-591
q0 -79 15 -181q13 -100 52 -159q37 -56 110 -94q70 -37 175 -37q134 0 238 58q106 59 144 149q38 91 38 306v549q0 128 -28 159q-39 44 -116 44h-51v37h480z" />
    <glyph glyph-name="V" unicode="V" horiz-adv-x="1479" 
d="M1454 1319q-72 -14 -109 -46q-54 -51 -94 -150l-473 -1154h-37l-508 1169q-40 92 -55 110q-25 31 -61 49q-40 18 -99 22v37h554v-37q-93 -9 -122 -32q-28 -22 -28 -59q0 -51 46 -156l345 -795l320 785q47 117 47 161q0 29 -29 56q-30 27 -98 37q-4 1 -17 3v37h418v-37z
" />
    <glyph glyph-name="W" unicode="W" horiz-adv-x="1933" 
d="M1917 1319q-54 0 -86 -19q-34 -20 -63 -71q-19 -34 -63 -167l-378 -1093h-40l-309 867l-307 -867h-36l-403 1126q-46 128 -57 149q-19 38 -54 57q-34 18 -94 18v37h502v-37h-24q-53 0 -81 -24t-28 -58t44 -161l267 -761l225 647l-72 205q-21 50 -47 88q-13 19 -32 32
q-27 19 -50 26q-19 6 -60 6v37h528v-37h-36q-57 0 -82 -24q-26 -24 -26 -65q0 -50 45 -178l260 -737l258 747q44 126 44 172q0 23 -14 43q-16 21 -37 28q-39 14 -99 14v37h405v-37z" />
    <glyph glyph-name="X" unicode="X" horiz-adv-x="1479" 
d="M1127 317q122 -181 180 -227q59 -49 148 -53v-37h-582v37q57 1 86 12q22 10 35 28q13 17 13 37q0 24 -9 46q-10 22 -55 88l-230 348l-284 -364q-46 -60 -54 -77q-9 -19 -9 -41q0 -32 27 -53t103 -24v-37h-481v37q50 4 88 21q61 25 118 70t128 135l320 404l-267 391
q-111 161 -185 209q-76 49 -175 52v37h627v-37q-80 -3 -109 -26q-30 -23 -30 -51q0 -38 48 -108l208 -311l241 305q39 51 52 74q9 20 9 41t-12 37q-15 21 -38 30q-22 7 -95 9v37h481v-37q-57 -3 -93 -18q-53 -22 -99 -62q-43 -38 -127 -144l-269 -344z" />
    <glyph glyph-name="Y" unicode="Y" horiz-adv-x="1479" 
d="M1449 1319h-26q-25 0 -76 -23t-91 -66q-44 -47 -101 -140l-327 -515v-340q0 -125 28 -156q38 -42 120 -42h44v-37h-576v37h48q86 0 122 52q22 31 22 146v321l-372 568q-62 94 -89 125q-24 25 -98 60q-19 10 -58 10v37h580v-37h-30q-48 0 -86 -22q-40 -22 -40 -66
q0 -36 61 -130l283 -437l266 418q60 94 60 140q0 27 -14 50q-14 21 -42 35q-27 12 -81 12v37h473v-37z" />
    <glyph glyph-name="Z" unicode="Z" horiz-adv-x="1251" 
d="M843 82q127 0 197 56q69 56 121 227l33 -6l-64 -359h-1104v37l870 1238h-434q-107 0 -156 -23q-48 -23 -74 -68q-26 -46 -47 -167h-38l28 339h1003l-891 -1274h556z" />
    <glyph glyph-name="bracketleft" unicode="[" horiz-adv-x="682" 
d="M168 1387h440v-79h-290v-1636h290v-78h-440v1793z" />
    <glyph glyph-name="backslash" unicode="\" horiz-adv-x="569" 
d="M493 -28l-490 1450h80l490 -1450h-80z" />
    <glyph glyph-name="bracketright" unicode="]" horiz-adv-x="682" 
d="M515 -407h-440v79h290v1636h-290v79h440v-1794z" />
    <glyph glyph-name="asciicircum" unicode="^" horiz-adv-x="961" 
d="M831 667l-350 586l-350 -586h-94l431 717h30l425 -717h-92z" />
    <glyph glyph-name="underscore" unicode="_" 
d="M-17 -358h1059v-84h-1059v84z" />
    <glyph glyph-name="grave" unicode="`" horiz-adv-x="682" 
d="M447 1045h-35l-294 345h223z" />
    <glyph glyph-name="a" unicode="a" horiz-adv-x="909" 
d="M691 -18q-50 0 -78 34q-29 35 -30 116q-141 -110 -177 -126q-53 -25 -115 -25q-94 0 -156 65t-62 171q0 67 30 116q41 68 143 128q101 60 337 146v36q0 121 -31 180t-118 59q-61 0 -98.5 -42t-37.5 -105h-186v209l331 -1q121 0 200 -41q59 -32 87 -97q18 -43 18 -176
v-311q0 -128 5 -160q4 -29 17 -40q10 -10 26 -10q17 0 28 7q22 14 81 73v-56q-113 -150 -214 -150zM383 97q76 0 200 100v349q-154 -61 -195 -85q-77 -42 -113 -92q-34 -47 -34 -105q0 -73 43 -119q44 -48 99 -48z" />
    <glyph glyph-name="b" unicode="b" 
d="M150 1037q0 158 -7 192q-7 35 -24 49q-16 13 -40 13q-29 0 -70 -16l-14 35l275 112h45v-664q66 91 158 138t198 47h276l6 -450v-493h-803v1037zM532 67q309 0 309 389q0 382 -247 382q-90 0 -150.5 -35t-128.5 -123v-512q104 -101 217 -101z" />
    <glyph glyph-name="c" unicode="c" horiz-adv-x="909" 
d="M842 348q-37 -181 -145 -278q-109 -98 -239 -98q-156 0 -272 131t-116 354q0 216 129 351q128 135 308 135l310 1l-1 -209h-204q0 141 -138 141q-99 0 -161 -74q-81 -98 -81 -259q0 -165 81 -289q79 -126 217 -126q99 0 176 67q55 46 107 167z" />
    <glyph glyph-name="d" unicode="d" 
d="M711 1036q0 159 -7 193q-7 35 -24 49q-16 13 -40 13q-27 0 -69 -16l-13 35l273 112h45v-1059q0 -164 7 -196q8 -38 24 -50q17 -14 39 -14q26 0 72 17l11 -35l-272 -113h-46v131q-93 -102 -304 -102h-339v944h643v91zM184 499q0 -203 88 -309q88 -108 208 -108
q67 0 128 23.5t103 67.5v472q-9 98 -78 167.5t-156 69.5q-136 0 -214.5 -101.5t-78.5 -281.5z" />
    <glyph glyph-name="e" unicode="e" horiz-adv-x="909" 
d="M218 571q-2 -204 99 -320t235 -116q89 0 157 50q66 50 111 169l31 -20q-21 -136 -122 -249t-253 -113q-165 0 -282 129q-118 127 -118 345q0 236 121 367q120 131 302 131h352v-373h-633zM481 874q-113 0 -183 -67t-80 -178h511q-6 111 -71.5 178t-176.5 67z" />
    <glyph glyph-name="f" unicode="f" horiz-adv-x="682" 
d="M422 242q0 -126 34 -169q29 -37 93 -37h83v-36h-547v36h41q39 0 73 20q32 19 46 54q12 34 12 132v630h-178v72h178v32q0 136 44 232t135 154q89 58 203 58h251v-209h-201q-5 75 -38 106t-91 31q-98 0 -124 -100q-14 -54 -14 -266v-38h236v-72h-236v-630z" />
    <glyph glyph-name="g" unicode="g" 
d="M462 -442q-192 0 -326 87q-75 49 -75 104q0 23 11 48q15 34 70 103q8 9 102 108q-53 32 -73 56q-22 23 -22 55q0 35 29 82q36 59 86 94h-129v648h723v-648h-521q-23 -18 -38 -46q-16 -28 -16 -49q0 -16 17 -33q15 -15 64 -23q25 -4 140 -7q201 -4 267 -14q94 -14 149 -69
t55 -138q0 -113 -106 -212q-157 -146 -407 -146zM539 356q103 0 156.5 59.5t53.5 164.5q0 126 -78 216.5t-208 90.5q-98 0 -155 -63.5t-57 -168.5q0 -128 79.5 -213.5t208.5 -85.5zM551 -322q181 0 266 63q85 64 85 136q0 51 -51 74q-50 21 -206 26q-220 6 -346 23
q-47 -52 -71 -95t-24 -81q0 -48 58 -84q101 -62 289 -62z" />
    <glyph glyph-name="h" unicode="h" 
d="M333 751q159 192 305 192h237v-736q0 -85 14 -118q11 -25 36 -39t90 -14v-36h-453v36h19q64 0 90 20q24 19 35 57q4 13 4 94v375q0 124 -32 182q-33 56 -110 56q-119 0 -235 -128v-485q0 -93 11 -117q11 -23 39 -38q28 -16 98 -16v-36h-454v36q62 0 96 19q21 11 32 38
q12 29 12 114v829q0 159 -7 193q-7 35 -23 49q-16 13 -42 13q-23 0 -68 -16l-14 35l274 112h46v-671z" />
    <glyph glyph-name="i" unicode="i" horiz-adv-x="569" 
d="M192 1211v209h209v-209h-209zM380 207q0 -87 13 -114q13 -30 37 -43q25 -14 89 -14v-36h-445v36q68 0 90 13q24 15 37 43q13 29 13 115v353q0 150 -9 193q-8 32 -22 45q-15 12 -41 12q-28 0 -68 -15l-14 36l276 112h44v-736z" />
    <glyph glyph-name="j" unicode="j" horiz-adv-x="569" 
d="M192 1211v209h209v-209h-209zM382 21q0 -236 -100 -349q-101 -114 -260 -114q-92 0 -135 33q-44 33 -44 68t24 60q25 25 58 25q27 0 53 -13q16 -7 66 -51q47 -43 81 -43q24 0 47 18q24 21 34 62q11 46 11 189v652q0 150 -9 194q-7 33 -22 46q-15 12 -41 12q-27 0 -68 -15
l-14 36l276 112h43v-922z" />
    <glyph glyph-name="k" unicode="k" 
d="M568 751q19 19 40 39.5t32 31t14 15.5q8 13 8 24q0 23 -16 35q-18 15 -55 16v32h398v-32q-78 -1 -136 -25q-66 -27 -120 -82l-235 -245l235 -297q97 -123 132 -156q50 -48 84 -61q24 -10 87 -10v-36h-445v36q39 2 52 12t13 29q0 24 -40 74l-281 359v-304q0 -90 13 -117
q12 -28 35 -40q21 -11 100 -13v-36h-466v36q69 0 105 17q21 11 32 34q15 33 15 114v834q0 161 -7 195q-8 37 -23 49q-16 13 -42 13q-20 0 -63 -17l-17 35l272 112h46v-911z" />
    <glyph glyph-name="l" unicode="l" horiz-adv-x="569" 
d="M379 207q0 -87 13 -114q12 -28 38 -42q26 -15 97 -15v-36h-449v36q64 0 86 13q23 14 36 43t13 115v832q0 157 -7 191q-8 35 -22 48q-16 13 -40 13q-27 0 -66 -16l-17 35l273 112h45v-1215z" />
    <glyph glyph-name="m" unicode="m" horiz-adv-x="1593" 
d="M336 748q100 100 118 115q47 39 97 59q52 21 103 21q86 0 148 -50t83 -145q104 121 174 158t146 37h241v-736q0 -88 13 -118q10 -22 37 -37q26 -16 88 -16v-36h-452v36h19q58 0 92 23q23 17 33 51q4 15 4 97v394q0 111 -27 158q-39 64 -125 64q-52 0 -106 -26
q-53 -26 -130 -99l-2 -11l2 -43v-437q0 -93 11 -117q11 -23 39 -38q28 -16 99 -16v-36h-463v36q76 0 105 18t39 54q5 18 5 99v394q0 111 -33 161q-43 64 -123 64q-54 0 -107 -29q-83 -44 -128 -99v-491q0 -91 13 -117q12 -27 37 -40q25 -14 99 -14v-36h-453v36q62 0 88 14
q24 13 38 43q13 27 13 114v350q0 151 -9 195q-7 33 -22 46q-15 12 -41 12q-28 0 -67 -15l-15 36l276 112h43v-195z" />
    <glyph glyph-name="n" unicode="n" 
d="M331 749q161 194 307 194h237v-736q0 -85 14 -118q11 -25 36 -39t90 -14v-36h-453v36h19q64 0 90 20q24 19 35 57q4 13 4 94v375q0 124 -32 182q-33 56 -110 56q-119 0 -237 -130v-483q0 -91 11 -115q14 -28 39 -42t99 -14v-36h-453v36h20q70 0 95 36q24 34 24 135v340
q0 167 -7 201q-7 35 -23 49q-16 13 -42 13q-28 0 -67 -15l-15 36l276 112h43v-194z" />
    <glyph glyph-name="o" unicode="o" 
d="M953 0h-884v944h884v-944zM544 59q137 0 213 91.5t76 258.5q0 207 -98 341t-254 134q-124 0 -208 -93.5t-84 -246.5q0 -112 29.5 -205.5t79 -153.5t113 -93t133.5 -33z" />
    <glyph glyph-name="p" unicode="p" 
d="M18 -401q55 -1 94 21q19 10 30 35q10 24 10 125v802q0 164 -7 196q-8 38 -24 50q-17 14 -39 14q-26 0 -72 -17l-11 35l272 113h46v-131q52 58 113 80t154 22h376v-944h-643v-226q0 -91 12 -120q10 -24 40 -40q29 -15 103 -15v-37h-479v37h25zM317 300q9 -98 78 -167.5
t156 -69.5q136 0 214.5 101.5t78.5 281.5q0 203 -88 309q-88 108 -208 108q-67 0 -128 -23.5t-103 -67.5v-472z" />
    <glyph glyph-name="q" unicode="q" 
d="M443 944q191 0 282 -99l103 99h47v-1179q0 -87 12 -113q12 -25 38 -39t99 -14v-37h-462v37h19q57 0 85 16q20 11 32 39t12 111v235h-643v944h376zM183 446q0 -180 78.5 -281.5t214.5 -101.5q87 0 156 69.5t78 167.5v472q-71 91 -231 91q-119 0 -208 -108
q-88 -106 -88 -309z" />
    <glyph glyph-name="r" unicode="r" horiz-adv-x="716" 
d="M339 737q116 206 236 206h129v-208l-175 1q-119 0 -190 -97v-425q0 -77 19 -115q14 -27 46 -45q33 -18 95 -18v-36h-469v36q70 0 104 22q24 16 35 51q5 18 5 97v355q0 159 -6 191q-8 31 -24 44q-19 14 -44 14q-31 0 -70 -15l-10 36l277 112h42v-206z" />
    <glyph glyph-name="s" unicode="s" horiz-adv-x="797" 
d="M623 631q-37 146 -97 200q-61 53 -152 53q-70 0 -113 -37t-43 -82q0 -55 32 -96t126 -87l146 -71q203 -99 203 -261v-250h-621v313h33q16 -78 32.5 -117.5t53.5 -72.5q74 -66 177 -66q36 0 74 11t59 28q49 40 49 92q0 76 -54 116q-11 9 -31.5 20t-38.5 20t-58 28.5
t-65 31.5q-145 72 -190 130q-45 57 -45 144q0 112 78 189q76 76 200 76q53 0 131 -23q51 -15 68 -15t25 7q9 8 21 31h33v-312h-33z" />
    <glyph glyph-name="t" unicode="t" horiz-adv-x="569" 
d="M544 943v-70h-214v-691q0 -57 21.5 -90t60.5 -33q51 0 82 32.5t39 90.5h39v-182h-407v873h-145v33q57 23 113 75q63 58 102 124q24 41 64 139h31v-301h214z" />
    <glyph glyph-name="u" unicode="u" 
d="M867 364q0 -157 8 -194t24 -50q17 -14 38 -14q30 0 70 17l14 -35l-274 -113h-45v193q-60 -74 -159.5 -121t-193.5 -47h-192v766q0 64 -14 90q-13 25 -41 39q-28 13 -100 12v37h321v-613q0 -126 45 -168q43 -40 107 -40q57 0 120 30t107 74v545q0 79 -28 106
q-29 28 -119 29v37h312v-580z" />
    <glyph glyph-name="v" unicode="v" 
d="M448 907h-28q-37 0 -59 -19q-21 -18 -21 -51q0 -31 21 -83l213 -534l214 553q23 58 23 85q0 13 -8 23q-10 15 -28 21q-14 5 -69 5v37h299v-37q-53 -3 -72 -21q-37 -35 -63 -100l-325 -814h-41l-327 801q-23 54 -42 78q-16 20 -51 39q-17 9 -67 17v37h431v-37z" />
    <glyph glyph-name="w" unicode="w" horiz-adv-x="1479" 
d="M397 907q-53 -5 -69 -19q-17 -15 -17 -43q0 -26 17 -75l196 -555l197 457l-52 135q-22 60 -63 83q-23 14 -82 17v37h436v-37q-75 -3 -102 -26q-20 -17 -20 -51q0 -19 8 -41l208 -554l193 535q20 55 20 86q0 19 -19 34q-20 16 -77 17v37h289v-37q-89 -14 -128 -118
l-306 -817h-41l-229 613l-267 -613h-37l-294 798q-26 72 -57 99q-27 24 -88 38v37h384v-37z" />
    <glyph glyph-name="x" unicode="x" 
d="M458 907q-40 0 -57 -14t-17 -37q0 -20 35 -74l33 -50l65 -104l71 104q72 106 72 125q0 23 -17 36q-17 14 -55 14v37h310v-37q-49 -3 -85 -27q-53 -35 -134 -148l-121 -167l245 -356q82 -118 120 -145q35 -25 93 -28v-36h-432v36q44 0 70 20q19 13 19 37q0 22 -64 116
l-151 224l-147 -224q-11 -16 -23 -34.5t-19 -28.5t-13.5 -20t-9.5 -16t-3 -9q0 -23 23 -43q24 -21 67 -22v-36h-299v36q34 4 63 25q59 45 128 148l192 283l-174 252q-75 110 -114 136q-41 27 -102 27v37h431v-37z" />
    <glyph glyph-name="y" unicode="y" 
d="M439 907h-21q-45 0 -67 -19q-23 -20 -23 -49q0 -36 33 -108l223 -490l205 534q17 46 17 81q0 19 -7 27q-11 13 -25 18q-16 6 -60 6v37h298v-37q-39 -5 -57 -16q-20 -13 -44 -45q-7 -11 -34 -77l-373 -942q-62 -158 -126 -222q-47 -47 -116 -47h-215v209h216
q131 0 197 161l44 108l-329 719q-16 34 -48 77q-27 37 -41 47q-21 16 -74 28v37h427v-37z" />
    <glyph glyph-name="z" unicode="z" horiz-adv-x="909" 
d="M41 0v36l608 838h-300q-100 0 -127 -12q-29 -13 -49 -48q-26 -48 -31 -124h-40l6 254h768v-37l-614 -840h334q106 0 143 18q37 16 60 61q17 32 27 135h34l-11 -281h-808z" />
    <glyph glyph-name="braceleft" unicode="{" horiz-adv-x="983" 
d="M615 -175q0 -76 55 -140t171 -92v-35q-168 23 -271 135q-105 112 -105 250q0 70 23 168q23 97 23 148q0 72 -60 135q-63 63 -168 76v41q105 13 168 76q60 61 60 135q0 51 -23 148t-23 168q0 136 105 249q103 112 271 135v-35q-118 -29 -171 -91q-55 -64 -55 -140
q0 -57 23 -155q22 -95 22 -165q0 -101 -74 -196q-73 -94 -221 -147q143 -52 220 -150q75 -97 75 -198q0 -70 -22 -165q-23 -98 -23 -155z" />
    <glyph glyph-name="bar" unicode="|" horiz-adv-x="410" 
d="M161 -442v1864h83v-1864h-83z" />
    <glyph glyph-name="braceright" unicode="}" horiz-adv-x="983" 
d="M403 1156q0 76 -54 140q-55 63 -172 91v35q168 -23 272 -134q104 -113 104 -251q0 -70 -23 -167t-23 -148q0 -73 61 -134q60 -63 167 -77v-41q-106 -13 -167 -76q-61 -62 -61 -135q0 -51 23 -148q23 -98 23 -168q0 -136 -104 -249q-106 -114 -272 -136v35q116 28 172 92
q54 63 54 140q0 57 -23 155q-23 100 -23 164q0 102 75 197q73 94 221 147q-143 52 -220 150q-76 97 -76 198q0 65 23 165q23 98 23 155z" />
    <glyph glyph-name="asciitilde" unicode="~" horiz-adv-x="1108" 
d="M880 489q75 0 126 48t60 138h45q-5 -131 -74 -203q-71 -74 -171 -74q-48 0 -99 16q-56 16 -274 105q-153 64 -219 64q-71 0 -118 -43q-49 -44 -68 -140h-44q6 134 74 207q68 71 160 71q42 0 90 -14q107 -31 274 -102q168 -73 238 -73z" />
    <glyph glyph-name="exclamdown" unicode="&#xa1;" horiz-adv-x="682" 
d="M232 863q0 45 32 79q32 32 78 32q47 0 79 -32q32 -34 32 -79q0 -46 -32 -78q-34 -32 -79 -32q-46 0 -78 32t-32 78zM449 -223q5 -58 5 -79q0 -63 -33 -102q-35 -38 -80 -38q-47 0 -80 38t-33 114q0 19 5 67l89 810h38z" />
    <glyph glyph-name="cent" unicode="&#xa2;" 
d="M900 349q-47 -188 -163 -292q-90 -81 -221 -81q-80 0 -162 35l-142 -390h-70l155 427q-81 77 -117 154q-51 110 -51 250q0 254 157 390q120 105 273 105q25 0 61 -4l140 383h72l-145 -402q101 -45 138 -87q48 -54 48 -115q0 -40 -24 -62q-25 -23 -70 -23q-54 0 -86 38
q-19 23 -26 82q-5 34 -17 65l-228 -631q54 -37 94 -51q27 -10 69 -10q60 0 117 26t85 60q31 37 83 146zM289 535q0 -75 18 -138q17 -63 63 -147l223 615q-29 12 -60 12q-102 0 -162 -74q-82 -100 -82 -268z" />
    <glyph glyph-name="sterling" unicode="&#xa3;" 
d="M465 659q1 -31 1 -68q0 -97 -13 -174q-13 -75 -49 -184q198 -64 224 -69q52 -12 102 -12q82 0 135 39q52 37 76 121l36 -9q-21 -162 -103 -244q-83 -83 -184 -83q-69 0 -123 25q-53 23 -203 135q-41 -81 -86 -120q-46 -40 -100 -40q-51 0 -83 35q-34 34 -34 94
q0 67 46 112q47 44 118 44q10 0 38 -2q22 -2 47 -6l3 45v32q0 88 -21 329h-194v95h194q-13 143 -13 199q0 124 49 223q50 102 136 155t185 53q125 0 190 -68q63 -68 63 -136q0 -32 -24 -57q-25 -25 -54 -25q-37 0 -63 38q-11 18 -15 78q-5 59 -34 87q-31 28 -87 28
q-79 0 -130 -62q-52 -61 -52 -218q0 -73 12 -187q2 -20 10 -108h258v-95h-258zM183 34q34 0 65 31q30 31 50 107q-23 14 -43 21t-42 7q-45 0 -70 -24q-25 -25 -25 -64q0 -35 20 -57q20 -21 45 -21z" />
    <glyph glyph-name="currency" unicode="&#xa4;" 
d="M514 1121q68 0 146 -26q73 -24 134 -76l143 142l58 -57l-144 -141q103 -131 103 -281q0 -154 -103 -284l144 -145l-58 -55l-143 143q-133 -103 -270 -103q-90 0 -171 31q-83 30 -124 72l-146 -143l-56 55l144 145q-102 117 -102 282q0 157 102 283l-144 141l56 57
l146 -142q54 46 132 74t153 28zM874 679q0 91 -49 179t-135 135t-178 47q-151 0 -256 -106q-106 -106 -106 -257q0 -147 106 -253t255 -106t256 107t107 254z" />
    <glyph glyph-name="yen" unicode="&#xa5;" 
d="M1023 352h-426v-108q0 -110 11 -143q9 -22 34 -38q37 -22 85 -22h41v-41h-515v41h32q69 0 104 26q24 19 33 57q4 17 4 120v108h-424v73h424v144l-15 36h-409v73h377l-213 496q-37 86 -72 115q-35 27 -92 29v38h442v-38q-71 -4 -96 -23q-25 -18 -25 -39q0 -15 18 -59
l214 -519l213 504q21 50 21 75q0 21 -21 41q-12 12 -64 17q-9 0 -27 3v38h346v-38q-59 0 -87 -23q-42 -33 -86 -132l-214 -485h387v-73h-419l-7 -16v-164h426v-73z" />
    <glyph glyph-name="brokenbar" unicode="&#xa6;" horiz-adv-x="410" 
d="M161 680v742h83v-742h-83zM161 -442v742h83v-742h-83z" />
    <glyph glyph-name="section" unicode="&#xa7;" 
d="M156 504q0 92 54 182q55 90 167 157q-65 71 -95 135q-29 63 -29 124q0 118 82 200t202 82q111 0 182 -67q71 -68 71 -153q0 -38 -26 -69q-20 -21 -53 -21t-56 23q-22 22 -22 54q0 13 8 53q5 25 5 43q0 41 -29 68q-28 27 -80 27q-73 0 -123 -51q-51 -51 -51 -124
q0 -64 27 -106q45 -71 151 -147q203 -147 275 -260q52 -82 52 -172t-53 -182q-52 -91 -168 -160q68 -74 97 -133q26 -57 26 -121q0 -122 -82 -204t-202 -82q-108 0 -179 68q-72 69 -72 157q0 37 24 62q23 26 54 26t53 -24q22 -22 22 -63q0 -25 -8 -60q-8 -34 -8 -49
q0 -29 25 -48q39 -30 95 -30q67 0 122 52q54 53 54 113q0 62 -31 111q-49 76 -174 170q-188 140 -256 247q-51 81 -51 172zM542 702q-76 58 -133 110q-151 -91 -151 -222q0 -71 37 -129q54 -83 197 -191q62 -46 122 -101q153 93 153 220q0 65 -44 136q-43 69 -181 177z" />
    <glyph glyph-name="dieresis" unicode="&#xa8;" horiz-adv-x="682" 
d="M57 1228q0 45 32 77t76 32q46 0 78 -32q31 -31 31 -77q0 -44 -32 -76t-76 -32q-45 0 -77 32t-32 76zM409 1228q0 45 32 77t77 32t77 -32q31 -31 31 -77q0 -45 -31 -76q-32 -32 -77 -32t-77 32t-32 76z" />
    <glyph glyph-name="copyright" unicode="&#xa9;" horiz-adv-x="1556" 
d="M69 678q0 185 96 356q95 170 265 262q169 91 348 91q180 0 349 -91t266 -262q95 -172 95 -356t-94 -353q-95 -170 -263 -262q-169 -94 -353 -94q-185 0 -352 94q-168 92 -263 262q-94 169 -94 353zM1426 678q0 169 -87 325q-87 155 -242 239t-319 84t-318 -84
q-155 -84 -242 -239q-87 -156 -87 -325q0 -167 86 -322t239 -240q155 -86 322 -86q168 0 323 86t240 240t85 322zM1110 854q-36 120 -114 178q-79 58 -189 58q-82 0 -146 -34q-65 -35 -105 -91q-31 -45 -50 -114q-20 -72 -20 -150q0 -212 91 -312q92 -101 240 -101
q195 0 312 162l37 -19q-140 -203 -383 -203q-201 0 -331 130q-132 129 -132 314q0 191 140 328q140 135 358 135q45 0 77 -6q26 -5 108 -32q27 -8 37 -8q16 0 27 9q12 8 22 36h40l20 -280h-39z" />
    <glyph glyph-name="ordfeminine" unicode="&#xaa;" horiz-adv-x="565" 
d="M123 1081q54 32 217 99q0 108 -26 143q-27 33 -80 33q-48 0 -71 -21q-23 -23 -23 -68q0 -46 -16 -65q-16 -21 -42 -21q-22 0 -39 17t-17 43q0 55 57 99q56 44 177 44q93 0 142 -31q50 -32 63 -64t13 -109v-218q0 -51 2 -61q3 -12 11 -20q7 -6 13 -6q14 0 58 30v-48
q-75 -53 -98 -63q-27 -11 -51 -11q-25 0 -44 21q-20 20 -29 74q-65 -46 -117 -68q-55 -23 -98 -23q-52 0 -92 38q-39 37 -39 86q0 45 22 77q30 46 107 93zM340 1142q-120 -40 -163 -88q-44 -49 -44 -96q0 -34 26 -60t63 -26q21 0 52 11q28 11 66 33v226z" />
    <glyph glyph-name="guillemotleft" unicode="&#xab;" 
d="M64 464l387 470h57l-244 -470l244 -472h-57zM508 464l394 470h58l-243 -470l243 -472h-58z" />
    <glyph glyph-name="logicalnot" unicode="&#xac;" horiz-adv-x="1155" 
d="M1116 472h-79v325h-1001v81h1080v-406z" />
    <glyph glyph-name="registered" unicode="&#xae;" horiz-adv-x="1556" 
d="M69 678q0 185 96 356q95 170 265 262q169 91 348 91q180 0 349 -91t266 -262q95 -172 95 -356t-94 -353q-95 -170 -263 -262q-169 -94 -353 -94q-185 0 -352 94q-168 92 -263 262q-94 169 -94 353zM1426 678q0 169 -87 325q-87 155 -242 239t-319 84t-318 -84
q-155 -84 -242 -239q-87 -156 -87 -325q0 -167 86 -322t239 -240q155 -86 322 -86q168 0 323 86t240 240t85 322zM695 652h-91v-250q0 -77 19 -101q22 -29 72 -29h35v-23h-371v23h33q50 0 78 36q14 18 14 94v557q0 80 -18 101q-23 29 -74 29h-33v24h674v-461h-201l167 -230
q66 -91 104 -114q45 -27 115 -36v-23h-230zM626 693q6 -1 68 -1q112 0 180.5 49t68.5 141q0 87 -49.5 133t-172.5 49q-47 1 -117 -12v-359h22z" />
    <glyph glyph-name="macron" unicode="&#xaf;" 
d="M-17 1546h1059v-84h-1059v84z" />
    <glyph glyph-name="degree" unicode="&#xb0;" horiz-adv-x="819" 
d="M98 1078q0 128 90 218q89 90 217 90q129 0 219 -90q89 -91 89 -218t-90 -217t-218 -90q-127 0 -217 90t-90 217zM628 1079q0 93 -65 158t-158 65t-158 -65t-65 -158q0 -92 65 -157q65 -66 158 -66q92 0 158 66q65 65 65 157z" />
    <glyph glyph-name="plusminus" unicode="&#xb1;" horiz-adv-x="1124" 
d="M521 222v418h-498v82h498v497h80v-497h500v-82h-500v-418h501v-81h-1079v81h498z" />
    <glyph glyph-name="uni00B2" unicode="&#xb2;" horiz-adv-x="614" 
d="M20 664v29q247 192 328 313q50 74 50 143q0 60 -41 103q-43 41 -105 41q-56 0 -100 -29q-42 -29 -65 -89h-45q14 99 78 154q62 55 164 55q106 0 173 -58q66 -58 66 -130q0 -66 -48 -141q-75 -117 -295 -295h186q88 0 116 12t48 44h45l-61 -152h-494z" />
    <glyph glyph-name="uni00B3" unicode="&#xb3;" horiz-adv-x="614" 
d="M55 1229q36 73 81 108q65 47 149 47q93 0 145 -46q53 -47 53 -101q0 -68 -105 -155q71 -25 109 -74q36 -50 36 -108q0 -104 -85 -177q-86 -74 -247 -74q-83 0 -121 24q-26 17 -26 39q0 17 17 31t42 14q29 0 81 -24q53 -24 91 -24q56 0 96 40q40 39 40 92q0 45 -26 86
q-27 41 -69 57q-61 23 -107 23h-30v28q77 0 130 47q52 46 52 108q0 48 -33 80q-32 31 -88 31q-86 0 -147 -88z" />
    <glyph glyph-name="acute" unicode="&#xb4;" horiz-adv-x="682" 
d="M236 1045l105 345h224l-295 -345h-34z" />
    <glyph glyph-name="uni00B5" unicode="&#xb5;" horiz-adv-x="1180" 
d="M360 383q0 -145 18 -198q13 -39 48 -65q34 -25 76 -25q117 0 236 134v687h165v-654q0 -97 8 -131q7 -23 24 -37t36 -14q26 0 44 22q27 33 37 102h42q-9 -120 -63 -176q-53 -56 -135 -56q-78 0 -120 58q-31 44 -38 132q-88 -103 -162 -146q-76 -44 -152 -44q-53 0 -92 21
q-29 17 -63 64q-1 -21 -1 -46q0 -81 34 -239q13 -59 13 -104q0 -48 -28 -79t-66 -31q-36 0 -62 29q-25 28 -25 80q0 44 29 165q21 85 22 104q12 103 12 179q0 28 -1 75v726h164v-533z" />
    <glyph glyph-name="paragraph" unicode="&#xb6;" horiz-adv-x="928" 
d="M726 -442v1743h-187v-1743h-73v1043q-190 7 -285 51q-95 42 -145 131t-50 198q0 110 43 180q59 97 155 146q95 49 252 49h495v-55h-133v-1743h-72z" />
    <glyph glyph-name="periodcentered.001" unicode="&#xb7;" horiz-adv-x="682" 
d="M236 703q0 44 31 75q30 30 74 30q43 0 75 -30q30 -32 30 -75t-31 -74t-74 -31t-74 31t-31 74z" />
    <glyph glyph-name="cedilla" unicode="&#xb8;" horiz-adv-x="682" 
d="M371 -63q62 -16 94 -54q31 -37 31 -92q0 -71 -60 -127q-60 -54 -155 -54q-41 0 -94 7v43q25 -4 48 -4q51 0 86 33q35 35 35 77q0 29 -23 52q-22 22 -57 22q-4 0 -26 -2l111 178h60z" />
    <glyph glyph-name="uni00B9" unicode="&#xb9;" horiz-adv-x="614" 
d="M376 1384v-592q0 -60 6 -74q5 -9 16 -14q18 -8 79 -8v-32h-325v32q65 0 80 7q12 5 17 16q5 12 5 73v374q0 69 -5 94q-3 16 -10 23q-7 6 -20 6q-19 0 -67 -20l-16 28l205 87h35z" />
    <glyph glyph-name="ordmasculine" unicode="&#xba;" horiz-adv-x="635" 
d="M29 1075q0 138 83 224q82 85 212 85q124 0 206 -84q81 -86 81 -209t-89 -214q-88 -90 -211 -90q-118 0 -200 82q-82 81 -82 206zM402 1279q-44 62 -106 62q-52 0 -89 -45q-37 -44 -37 -143q0 -159 69 -258q39 -57 102 -57q57 0 95 45q37 43 37 140q0 156 -71 256z" />
    <glyph glyph-name="guillemotright" unicode="&#xbb;" 
d="M516 462l-394 -470h-58l243 470l-243 472h58zM960 462l-387 -470h-57l244 470l-244 472h57z" />
    <glyph glyph-name="onequarter" unicode="&#xbc;" horiz-adv-x="1536" 
d="M374 1384v-592q0 -60 6 -74q5 -9 16 -14q18 -8 79 -8v-32h-325v32q65 0 80 7q12 5 17 16q5 12 5 73v374q0 69 -5 94q-3 16 -10 23q-8 6 -20 6q-19 0 -67 -20l-16 28l205 87h35zM268 -54l935 1438h89l-934 -1438h-90zM1393 143v-183h-117v183h-343v73l376 465h84v-457h108
v-81h-108zM1016 224h260v316z" />
    <glyph glyph-name="onehalf" unicode="&#xbd;" horiz-adv-x="1536" 
d="M374 1384v-592q0 -60 6 -74q5 -9 16 -14q18 -8 79 -8v-32h-325v32q65 0 80 7q12 5 17 16q5 12 5 73v374q0 69 -5 94q-3 16 -10 23q-8 6 -20 6q-19 0 -67 -20l-16 28l205 87h35zM244 -54l935 1438h89l-935 -1438h-89zM939 -40v30q247 192 328 313q50 74 50 143
q0 60 -41 103q-43 41 -105 41q-56 0 -100 -29q-42 -29 -65 -89h-45q13 98 78 153q64 56 164 56q106 0 173 -58q66 -59 66 -130q0 -65 -48 -142q-76 -116 -295 -294h187q86 0 115 12q28 10 48 44h45l-61 -153h-494z" />
    <glyph glyph-name="threequarters" unicode="&#xbe;" horiz-adv-x="1536" 
d="M53 1229q36 73 81 108q65 47 149 47q93 0 145 -46q53 -47 53 -101q0 -68 -105 -155q71 -25 109 -74q36 -50 36 -108q0 -104 -85 -177q-86 -74 -247 -74q-83 0 -121 24q-26 17 -26 39q0 17 17 31t42 14q29 0 81 -24q53 -24 91 -24q56 0 96 40q40 39 40 92q0 72 -56 120
t-176 46v28q77 0 130 47q52 46 52 108q0 48 -33 80q-32 31 -88 31q-86 0 -147 -88zM256 -54l935 1438h86l-931 -1438h-90zM1393 143v-183h-116v183h-344v73l376 465h84v-457h108v-81h-108zM1017 224h260v316z" />
    <glyph glyph-name="questiondown" unicode="&#xbf;" horiz-adv-x="909" 
d="M341 864q0 46 33 79q32 32 78 32q45 0 79 -32q32 -34 32 -79q0 -46 -32 -78q-33 -33 -79 -33t-78 33q-33 32 -33 78zM118 27q44 97 150 222q107 124 137 191q30 68 36 186h39q-4 -124 -24 -196q-19 -72 -102 -247t-83 -289q0 -132 66 -204t170 -72q87 0 137 41t50 90
q0 32 -31 84q-31 53 -31 86q0 35 24 57q24 24 57 24q41 0 76 -42q35 -41 35 -110q0 -115 -97 -203q-97 -87 -267 -87t-270 93q-101 95 -101 224q0 82 29 152z" />
    <glyph glyph-name="multiply" unicode="&#xd7;" horiz-adv-x="1155" 
d="M166 1033l58 58l352 -352l352 352l56 -57l-352 -352l354 -354l-57 -58l-354 354l-353 -353l-57 57l353 353z" />
    <glyph glyph-name="germandbls" unicode="&#xdf;" horiz-adv-x="1461" 
d="M1274 669q108 -108 108 -270q0 -191 -134 -314q-128 -116 -309 -116q-259 0 -405 252l34 22q124 -183 317 -183q132 0 205 109q65 98 65 246q0 161 -108 250q-102 84 -273 84v54l266 336q-42 71 -115 114q-78 48 -162 48q-206 0 -285 -154q-57 -111 -57 -337v-810h-386
v37h48q93 0 124 58q22 40 22 145v509q0 330 104 473q121 165 428 165q326 0 489 -280l-249 -310q169 -24 273 -128z" />
    <glyph glyph-name="germandbls" unicode="&#x1e9e;" horiz-adv-x="1461" 
d="M1274 669q108 -108 108 -270q0 -191 -134 -314q-128 -116 -309 -116q-259 0 -405 252l34 22q124 -183 317 -183q132 0 205 109q65 98 65 246q0 161 -108 250q-102 84 -273 84v54l266 336q-42 71 -115 114q-78 48 -162 48q-206 0 -285 -154q-57 -111 -57 -337v-810h-386
v37h48q93 0 124 58q22 40 22 145v509q0 330 104 473q121 165 428 165q326 0 489 -280l-249 -310q169 -24 273 -128z" />
    <glyph glyph-name="divide" unicode="&#xf7;" horiz-adv-x="1124" 
d="M474 988q0 36 26 62q25 25 62 25t62 -25t25 -62q0 -36 -25 -61q-26 -26 -63 -26q-35 0 -61 26t-26 61zM23 722h1078v-82h-1078v82zM474 367q0 36 26 62t62 26q37 0 63 -26q25 -25 25 -62q0 -36 -26 -62t-62 -26t-62 26t-26 62z" />
    <glyph glyph-name="Ccircumflex" unicode="&#x108;" horiz-adv-x="1366" 
d="M997 1491h-31l-273 213l-229 -213h-30l189 331h184zM1233 926q-61 206 -177 298q-115 91 -276 91q-134 0 -244 -68q-110 -69 -171 -219q-63 -150 -63 -373q0 -183 59 -319q58 -134 178 -207q119 -72 270 -72q133 0 233 57q100 55 222 224l31 -20q-102 -181 -238 -265
q-137 -84 -323 -84q-338 0 -522 250q-138 186 -138 438q0 204 91 373q92 170 251 264q159 93 348 93q148 0 290 -72q41 -22 60 -22q28 0 47 19q27 28 37 75h35l31 -461h-31z" />
    <glyph glyph-name="ccircumflex" unicode="&#x109;" horiz-adv-x="909" 
d="M737 1054h-31l-273 213l-229 -213h-30l189 331h184zM842 348q-37 -181 -145 -278q-109 -98 -239 -98q-156 0 -272 131t-116 354q0 216 129 351q128 135 308 135l310 1l-1 -209h-204q0 141 -138 141q-99 0 -161 -74q-81 -98 -81 -259q0 -165 81 -289q79 -126 217 -126
q99 0 176 67q55 46 107 167z" />
    <glyph glyph-name="Ebreve" unicode="&#x114;" horiz-adv-x="1251" 
d="M625 1490q-111 0 -193 78q-82 76 -93 202h31q32 -60 76 -86q71 -43 181 -43q109 0 180 42q52 29 71 87h33q-9 -124 -91 -202t-195 -78zM726 746q115 0 155 35q52 46 58 162h37v-472h-37q-13 95 -28 127q-19 36 -59 55q-42 20 -126 20h-298v-447q0 -88 8 -109
q8 -20 28 -31q20 -12 76 -12h230q116 0 167 16q52 16 100 63q63 62 127 187h40l-117 -340h-1045v37h48q47 0 91 23q32 17 44 48q11 33 11 131v881q0 128 -26 159q-36 40 -120 40h-48v37h1045l15 -297h-39q-21 108 -46 147t-76 61q-41 15 -141 15h-372v-536h298z" />
    <glyph glyph-name="ebreve" unicode="&#x115;" horiz-adv-x="909" 
d="M462 1078q-110 0 -193 78q-82 76 -93 202h31q32 -60 76 -86q71 -43 181 -43t180 42q52 29 71 87h33q-9 -124 -91 -202q-83 -78 -195 -78zM218 571q-2 -204 99 -320t235 -116q89 0 157 50q66 50 111 169l31 -20q-21 -136 -122 -249t-253 -113q-165 0 -282 129
q-118 127 -118 345q0 236 121 367q120 131 302 131h352v-373h-633zM481 874q-113 0 -183 -67t-80 -178h511q-6 111 -71.5 178t-176.5 67z" />
    <glyph glyph-name="Gcircumflex" unicode="&#x11c;" horiz-adv-x="1479" 
d="M1051 1491h-31l-273 213l-229 -213h-30l189 331h184zM1257 959q-52 159 -137 241q-122 117 -311 117q-259 0 -394 -205q-113 -173 -113 -412q0 -194 75 -354t197 -234q122 -75 249 -75q76 0 145 19q74 20 135 56v392q0 102 -15 134q-16 32 -48 48t-115 16v38h525v-38h-25
q-79 0 -107 -52q-20 -38 -20 -146v-415q-120 -64 -227 -91q-114 -29 -249 -29q-393 0 -597 252q-153 189 -153 436q0 179 86 343q102 195 280 300q148 87 352 87q74 0 135 -12q57 -11 171 -53q56 -21 75 -21t33 18q13 16 16 68h37l35 -428h-35z" />
    <glyph glyph-name="gcircumflex" unicode="&#x11d;" 
d="M794 1054h-31l-273 213l-229 -213h-30l189 331h184zM462 -442q-192 0 -326 87q-75 49 -75 104q0 23 11 48q15 34 70 103q8 9 102 108q-53 32 -73 56q-22 23 -22 55q0 35 29 82q36 59 86 94h-129v648h723v-648h-521q-23 -18 -38 -46q-16 -28 -16 -49q0 -16 17 -33
q15 -15 64 -23q25 -4 140 -7q201 -4 267 -14q94 -14 149 -69t55 -138q0 -113 -106 -212q-157 -146 -407 -146zM539 356q103 0 156.5 59.5t53.5 164.5q0 126 -78 216.5t-208 90.5q-98 0 -155 -63.5t-57 -168.5q0 -128 79.5 -213.5t208.5 -85.5zM551 -322q181 0 266 63
q85 64 85 136q0 51 -51 74q-50 21 -206 26q-220 6 -346 23q-47 -52 -71 -95t-24 -81q0 -48 58 -84q101 -62 289 -62z" />
    <glyph glyph-name="Hcircumflex" unicode="&#x124;" horiz-adv-x="1479" 
d="M1022 1491h-31l-273 213l-229 -213h-30l189 331h184zM1051 1115q0 105 -13 137q-10 25 -42 43q-44 24 -91 24h-48v37h580v-37h-48q-47 0 -91 -23q-33 -17 -43 -48q-12 -33 -12 -133v-875q0 -104 13 -136q11 -26 41 -43q43 -24 92 -24h48v-37h-580v37h48q84 0 121 49
q25 31 25 154v413h-630v-413q0 -104 13 -136q10 -25 42 -43q44 -24 91 -24h49v-37h-581v37h48q85 0 122 49q24 32 24 154v875q0 105 -13 137q-11 26 -41 43q-44 24 -92 24h-48v37h581v-37h-49q-47 0 -91 -23q-31 -16 -43 -48q-12 -33 -12 -133v-388h630v388z" />
    <glyph glyph-name="hcircumflex" unicode="&#x125;" 
d="M794 1491h-31l-273 213l-229 -213h-30l189 331h184zM333 751q159 192 305 192h237v-736q0 -85 14 -118q11 -25 36 -39t90 -14v-36h-453v36h19q64 0 90 20q24 19 35 57q4 13 4 94v375q0 124 -32 182q-33 56 -110 56q-119 0 -235 -128v-485q0 -93 11 -117q11 -23 39 -38
q28 -16 98 -16v-36h-454v36q62 0 96 19q21 11 32 38q12 29 12 114v829q0 159 -7 193q-7 35 -23 49q-16 13 -42 13q-23 0 -68 -16l-14 35l274 112h46v-671z" />
    <glyph glyph-name="Ibreve" unicode="&#x12c;" horiz-adv-x="682" 
d="M340 1490q-110 0 -193 78q-82 76 -93 202h31q32 -60 76 -86q71 -43 181 -43t180 42q52 29 71 87h33q-9 -124 -91 -202q-83 -78 -195 -78zM51 0v37h48q85 0 122 49q24 32 24 154v876q0 104 -13 136q-11 26 -41 43q-43 24 -92 24h-48v37h581v-37h-49q-84 0 -121 -49
q-25 -31 -25 -154v-876q0 -104 13 -136q10 -25 42 -43q44 -24 91 -24h49v-37h-581z" />
    <glyph glyph-name="ibreve" unicode="&#x12d;" horiz-adv-x="569" 
d="M284 1078q-110 0 -193 78q-82 76 -93 202h31q32 -60 76 -86q71 -43 181 -43t180 42q52 29 71 87h33q-9 -124 -91 -202q-83 -78 -195 -78zM380 207q0 -87 13 -114q14 -31 38 -43q25 -14 89 -14v-36h-445v36q68 0 90 13q24 15 37 43q13 29 13 115v353q0 150 -9 193
q-8 32 -22 45q-15 12 -41 12q-28 0 -68 -15l-14 36l276 112h43v-736z" />
    <glyph glyph-name="IJ" unicode="&#x132;" horiz-adv-x="1451" 
d="M51 0v37h48q85 0 122 49q24 32 24 154v876q0 104 -13 136q-11 26 -41 43q-43 24 -92 24h-48v37h581v-37h-49q-84 0 -121 -49q-25 -31 -25 -154v-876q0 -104 13 -136q10 -25 42 -43q44 -24 91 -24h49v-37h-581zM1445 1356v-37h-49q-84 0 -121 -49q-24 -32 -24 -154v-663
q0 -153 -33 -248q-35 -96 -116 -165q-81 -71 -198 -71q-95 0 -148 47q-54 47 -54 106q0 49 25 74q32 31 77 31q32 0 58 -21q25 -21 64 -112q23 -54 59 -54q27 0 51 33q23 34 23 117v926q0 104 -13 136q-10 25 -42 43q-44 24 -91 24h-49v37h581z" />
    <glyph glyph-name="ij" unicode="&#x133;" horiz-adv-x="1131" 
d="M192 1211v209h209v-209h-209zM760 1211v209h209v-209h-209zM380 207q0 -87 13 -114q13 -30 37 -43q25 -14 89 -14v-36h-445v36q68 0 90 13q24 15 37 43q13 29 13 115v353q0 150 -9 193q-8 32 -22 45q-15 12 -41 12q-28 0 -68 -15l-14 36l276 112h44v-736zM950 21
q0 -236 -100 -349q-100 -114 -260 -114q-92 0 -135 33q-44 33 -44 68t25 60q24 25 57 25q27 0 53 -13q16 -7 66 -51q47 -43 81 -43q25 0 47 18q24 21 34 62q11 46 11 189v652q0 150 -9 194q-7 33 -22 46q-15 12 -41 12q-27 0 -68 -15l-14 36l276 112h43v-922z" />
    <glyph glyph-name="Jcircumflex" unicode="&#x134;" horiz-adv-x="797" 
d="M767 1491h-31l-273 213l-229 -213h-30l189 331h184zM785 1356v-37h-49q-84 0 -121 -49q-24 -32 -24 -154v-663q0 -153 -33 -248q-35 -96 -116 -165q-81 -71 -198 -71q-95 0 -148 47q-54 46 -54 106q0 49 25 74q32 31 77 31q32 0 58 -21q25 -21 64 -112q22 -54 59 -54
q27 0 51 33q23 34 23 117v926q0 104 -13 136q-10 25 -42 43q-44 24 -91 24h-49v37h581z" />
    <glyph glyph-name="jcircumflex" unicode="&#x135;" horiz-adv-x="569" 
d="M565 1054h-31l-273 213l-229 -213h-30l189 331h184zM382 21q0 -225 -96 -344t-264 -119q-84 0 -132 30q-47 32 -47 71q0 31 22 57q22 28 60 28q46 0 114 -59q52 -48 86 -48q48 0 71 50q21 49 21 219v652q0 162 -12 207t-61 45q-26 0 -67 -15l-14 36l276 112h43v-922z" />
    <glyph glyph-name="kgreenlandic" unicode="&#x138;" 
d="M487 878q-98 0 -125 -32t-27 -131v-204l229 208q68 61 81 78q12 15 12 31q0 45 -71 50v38h398v-38q-80 -2 -135 -24q-54 -22 -120 -82l-231 -212l235 -297q119 -150 167 -188q47 -38 111 -38h25v-37h-445v37q65 2 65 41q0 23 -40 73l-281 359v-304q0 -101 22 -135
q21 -34 126 -34v-37h-466v37q99 0 126 33q26 34 26 131v511q0 108 -28 137q-29 29 -120 29v38h466v-38z" />
    <glyph glyph-name="Ldot" unicode="&#x13f;" horiz-adv-x="1251" 
d="M736 86q155 0 219 23q61 22 115 82q51 57 104 184l33 -7l-116 -368h-1050v37h51q85 0 123 56q21 31 21 148v875q0 128 -28 159q-39 44 -116 44h-51v37h614v-37q-107 1 -151 -20q-43 -21 -60 -53q-16 -31 -16 -153v-852q0 -83 16 -114q12 -21 37 -31q24 -10 156 -10h99z
M656 708q0 44 31 75q30 30 74 30q43 0 75 -30q30 -31 30 -75q0 -43 -31 -74t-74 -31t-74 31t-31 74z" />
    <glyph glyph-name="ldot" unicode="&#x140;" horiz-adv-x="704" 
d="M379 207q0 -87 13 -114q12 -28 38 -42q26 -15 97 -15v-36h-449v36q64 0 86 13q23 14 36 43t13 115v832q0 157 -7 191q-8 35 -22 48q-16 13 -40 13q-27 0 -66 -16l-17 35l273 112h45v-1215zM483 703q0 44 31 75q30 30 74 30t75 -30q30 -32 30 -75t-31 -74t-74 -31t-74 31
t-31 74z" />
    <glyph glyph-name="napostrophe" unicode="&#x149;" horiz-adv-x="1237" 
d="M219 975q-58 -64 -171 -106v47q102 60 140 114q26 38 26 91q0 30 -11 46q-12 15 -26 15q-12 0 -29 -7q-25 -9 -43 -9q-39 0 -71 30q-31 30 -31 75q0 50 31 78q43 38 100 38q67 0 121 -56q53 -58 53 -141q0 -117 -89 -215zM546 749q161 194 307 194h237v-736
q0 -85 14 -118q10 -25 36 -39q25 -14 90 -14v-36h-453v36h19q64 0 90 20q24 19 35 57q4 13 4 94v375q0 124 -32 182q-33 56 -110 56q-119 0 -237 -130v-483q0 -91 11 -115q13 -28 39 -42q25 -14 99 -14v-36h-453v36h20q70 0 95 36q24 34 24 135v340q0 167 -7 201
q-7 35 -23 49q-16 13 -42 13q-28 0 -67 -15l-15 36l276 112h43v-194z" />
    <glyph glyph-name="Obreve" unicode="&#x14e;" horiz-adv-x="1479" 
d="M739 1490q-111 0 -193 78q-82 76 -93 202h31q32 -60 76 -86q71 -43 181 -43q109 0 180 42q52 29 71 87h33q-9 -124 -91 -202t-195 -78zM292 1210q190 177 457 177q264 0 458 -200q193 -200 193 -501q0 -309 -195 -513t-472 -204q-280 0 -470 199q-191 200 -191 515
q0 323 220 527zM1034 1178q-109 136 -304 136q-182 0 -292 -135q-137 -169 -137 -492q0 -333 142 -511q109 -136 288 -136q191 0 316 149q124 148 124 470q0 347 -137 519z" />
    <glyph glyph-name="obreve" unicode="&#x14f;" 
d="M492 1078q-110 0 -193 78q-82 76 -93 202h31q32 -60 76 -86q71 -43 181 -43t180 42q52 29 71 87h33q-9 -124 -91 -202q-83 -78 -195 -78zM953 0h-884v944h884v-944zM544 59q137 0 213 91.5t76 258.5q0 207 -98 341t-254 134q-124 0 -208 -93.5t-84 -246.5
q0 -112 29.5 -205.5t79 -153.5t113 -93t133.5 -33z" />
    <glyph glyph-name="Scircumflex" unicode="&#x15c;" horiz-adv-x="1139" 
d="M852 1491h-31l-273 213l-229 -213h-30l189 331h184zM902 918q-18 137 -64 215q-47 80 -133 127t-178 47q-105 0 -172 -63q-68 -65 -68 -145q0 -63 43 -113q61 -75 295 -200q187 -100 260 -156q70 -56 107 -129t37 -155q0 -154 -119 -265q-119 -112 -308 -112
q-58 0 -111 9q-32 5 -128 37q-96 31 -124 31q-25 0 -39 -15q-14 -14 -22 -62h-37v465h37q25 -144 70 -218q43 -73 135 -121q90 -48 198 -48q125 0 198 66q72 66 72 156q0 50 -27 101q-30 53 -86 95q-41 32 -213 128q-177 99 -247 155q-76 61 -112 128q-38 71 -38 154
q0 146 112 252q112 105 285 105q106 0 229 -53q54 -25 79 -25q27 0 43 16q15 14 26 62h37v-469h-37z" />
    <glyph glyph-name="scircumflex" unicode="&#x15d;" horiz-adv-x="797" 
d="M681 1054h-31l-273 213l-229 -213h-30l189 331h184zM623 631q-37 146 -97 200q-61 53 -152 53q-70 0 -113 -37t-43 -82q0 -55 32 -96t126 -87l146 -71q203 -99 203 -261v-250h-621v313h33q16 -78 32.5 -117.5t53.5 -72.5q74 -66 177 -66q36 0 74 11t59 28q49 40 49 92
q0 76 -54 116q-11 9 -31.5 20t-38.5 20t-58 28.5t-65 31.5q-145 72 -190 130q-45 57 -45 144q0 112 78 189q76 76 200 76q53 0 131 -23q51 -15 68 -15t25 7q9 8 21 31h33v-312h-33z" />
    <glyph glyph-name="Ubreve" unicode="&#x16c;" horiz-adv-x="1479" 
d="M739 1490q-111 0 -193 78q-82 76 -93 202h31q32 -60 76 -86q71 -43 181 -43q109 0 180 42q52 29 71 87h33q-9 -124 -91 -202t-195 -78zM1458 1356v-37h-51q-80 0 -123 -67q-21 -32 -21 -144v-550q0 -205 -40 -316q-41 -114 -159 -193q-119 -81 -323 -81q-221 0 -337 77
q-115 76 -163 207q-32 90 -32 334v530q0 126 -34 164q-34 39 -112 39h-51v37h586v-37h-52q-84 0 -120 -53q-25 -35 -25 -150v-591q0 -79 15 -181q13 -100 52 -159q37 -56 110 -94q70 -37 175 -37q134 0 238 58q106 59 144 149q38 91 38 306v549q0 128 -28 159
q-39 44 -116 44h-51v37h480z" />
    <glyph glyph-name="ubreve" unicode="&#x16d;" 
d="M512 1078q-110 0 -193 78q-82 76 -93 202h31q32 -60 76 -86q71 -43 181 -43t180 42q52 29 71 87h33q-9 -124 -91 -202q-83 -78 -195 -78zM868 364q0 -157 8 -194t24 -50q17 -14 38 -14q30 0 70 17l14 -35l-274 -113h-45v193q-60 -74 -159.5 -121t-193.5 -47h-192v766
q0 64 -14 90q-13 25 -41 39q-28 13 -100 12v37h321v-613q0 -126 45 -168q43 -40 107 -40q57 0 120 30t107 74v545q0 79 -28 106q-29 28 -119 29v37h312v-580z" />
    <glyph glyph-name="longs" unicode="&#x17f;" horiz-adv-x="569" 
d="M22 0v36h41q69 0 100 39q31 38 31 167v734q0 220 114 332q112 112 268 112q102 0 176 -55q75 -55 75 -113q0 -31 -26 -57q-27 -27 -56 -27q-51 0 -110 86q-64 94 -138 94q-54 0 -88 -34q-35 -35 -42 -106q-8 -78 -8 -226v-740q0 -124 30 -165t97 -41h41v-36h-505z" />
    <glyph glyph-name="uni0180" unicode="&#x180;" 
d="M868 796q85 -127 85 -303q0 -210 -130 -361q-136 -160 -342 -160q-158 0 -331 116v980h-140v82h140q-2 66 -9 90q-15 51 -62 51q-29 0 -70 -16l-14 35l275 112h45v-272h294v-82h-294v-310q134 185 287 185q168 0 266 -147zM726 186q54 112 54 250q0 137 -58 240
q-71 125 -199 125q-96 0 -208 -107v-548q104 -101 217 -101q125 0 194 141z" />
    <glyph glyph-name="uni0180" unicode="&#x243;" 
d="M868 796q85 -127 85 -303q0 -210 -130 -361q-136 -160 -342 -160q-158 0 -331 116v980h-140v82h140q-2 66 -9 90q-15 51 -62 51q-29 0 -70 -16l-14 35l275 112h45v-272h294v-82h-294v-310q134 185 287 185q168 0 266 -147zM726 186q54 112 54 250q0 137 -58 240
q-71 125 -199 125q-96 0 -208 -107v-548q104 -101 217 -101q125 0 194 141z" />
    <glyph glyph-name="uni0182" unicode="&#x182;" horiz-adv-x="1176" 
d="M987 1060q-31 144 -98 183t-237 39h-228v-537h54q251 0 366 -31q117 -31 191 -121q73 -88 73 -214q0 -152 -112 -265q-112 -114 -386 -114h-574v37q127 5 161 40q35 37 35 170v862q0 102 -14 139q-15 36 -48 51q-34 16 -122 20v37h961l14 -296h-36zM424 81
q92 -14 137 -14q123 0 223 82q99 82 99 227q0 149 -104 223q-103 72 -264 72q-41 0 -91 -8v-582z" />
    <glyph glyph-name="uni0183" unicode="&#x183;" 
d="M868 797q85 -127 85 -304q0 -245 -162 -393q-140 -128 -310 -128q-158 0 -331 116v1268h719l14 -296h-36q-31 145 -110 189q-60 33 -225 33h-197v-524q134 185 287 185q168 0 266 -146zM726 186q54 111 54 250q0 138 -58 241q-70 124 -199 124q-53 0 -106 -27
q-39 -19 -102 -80v-548q104 -101 217 -101q126 0 194 141z" />
    <glyph glyph-name="uni0184" unicode="&#x184;" horiz-adv-x="1176" 
d="M1035 593q73 -88 73 -214q0 -201 -156 -298q-129 -81 -342 -81h-574v37q128 5 162 42t34 168v672l-196 191v35l352 211h36v-611h54q213 0 300 -16q172 -32 257 -136zM561 67q136 0 229 87t93 222q0 153 -112 229q-96 66 -256 66q-41 0 -91 -8v-582q92 -14 137 -14z" />
    <glyph glyph-name="uni0185" unicode="&#x185;" 
d="M868 797q85 -127 85 -304q0 -245 -162 -393q-140 -128 -310 -128q-158 0 -331 116v897l-150 191v35l270 211h45v-664q134 185 287 185q168 0 266 -146zM726 186q54 111 54 250q0 138 -58 241q-70 124 -199 124q-53 0 -106 -27q-39 -19 -102 -80v-548q104 -101 217 -101
q126 0 194 141z" />
    <glyph glyph-name="uni0189" unicode="&#x189;" horiz-adv-x="1479" 
d="M86 37q85 0 123 56q21 31 21 147v438h-195v74h195v364q0 128 -28 159q-39 44 -116 44h-51v37h552q313 0 466 -71q152 -72 249 -229q98 -158 98 -369q0 -287 -183 -487q-185 -200 -577 -200h-605v37h51zM423 100q125 -28 213 -28q231 0 384 163t153 442q0 281 -153 443
t-392 162q-87 0 -205 -29v-501h393v-74h-393v-578z" />
    <glyph glyph-name="uni0189" unicode="&#x256;" horiz-adv-x="1479" 
d="M86 37q85 0 123 56q21 31 21 147v438h-195v74h195v364q0 128 -28 159q-39 44 -116 44h-51v37h552q313 0 466 -71q152 -72 249 -229q98 -158 98 -369q0 -287 -183 -487q-185 -200 -577 -200h-605v37h51zM423 100q125 -28 213 -28q231 0 384 163t153 442q0 281 -153 443
t-392 162q-87 0 -205 -29v-501h393v-74h-393v-578z" />
    <glyph glyph-name="uni018B" unicode="&#x18b;" horiz-adv-x="1176" 
d="M566 0q-213 0 -342 81q-156 97 -156 298q0 122 73 213q72 90 191 122q114 31 366 31h54v537h-228q-164 0 -224 -33q-80 -43 -111 -189h-36l14 296h961v-37q-77 -5 -98 -11q-53 -17 -71 -60q-15 -38 -15 -139v-862q0 -130 35 -168t161 -42v-37h-574zM615 67q45 0 137 14
v582q-50 8 -91 8q-160 0 -256 -66q-112 -76 -112 -229q0 -134 94 -221q92 -88 228 -88z" />
    <glyph glyph-name="uni018C" unicode="&#x18c;" 
d="M711 -28v131q-125 -131 -269 -131q-169 0 -276 143q-98 131 -98 305q0 201 119 356q129 168 324 168q120 0 200 -77v415h-197q-165 0 -225 -33q-79 -44 -110 -189h-36l14 296h719v-993q0 -219 32 -246q17 -14 38 -14q26 0 72 17l11 -35l-272 -113h-46zM535 82
q91 0 176 91v472q-14 151 -115 209q-49 28 -97 28q-88 0 -157 -79q-91 -103 -91 -304q0 -153 64 -271q78 -146 220 -146z" />
    <glyph glyph-name="uni018D" unicode="&#x18d;" horiz-adv-x="965" 
d="M794 818q101 -119 101 -297q0 -182 -122 -310q-119 -122 -302 -149q28 -28 139 -114q94 -72 110 -88q56 -59 56 -126q0 -176 -296 -176q-110 0 -202 33q-127 46 -127 136q0 35 23 61q22 27 57 27q47 0 108 -69q114 -127 208 -127q169 0 169 104q0 63 -93 128
q-49 29 -147 85q-159 92 -207 130q-97 78 -154 199q-45 96 -45 203q0 185 127 327q132 148 315 148q175 0 282 -125zM427 108q287 47 287 394q0 136 -50 242q-64 135 -188 135q-118 0 -180 -125q-47 -97 -47 -229q0 -236 178 -417z" />
    <glyph glyph-name="uni0194" unicode="&#x194;" horiz-adv-x="1479" 
d="M1454 1319q-74 -14 -109 -46q-52 -47 -94 -150l-388 -955l109 -232q41 -90 41 -166q0 -213 -229 -213q-88 0 -134 57q-39 50 -39 121q0 39 14 75l88 220l-480 1108q-40 92 -55 110q-50 62 -160 71v37h554v-37q-150 -13 -150 -91q0 -51 46 -156l345 -795l320 785
q47 117 47 161q0 72 -127 93q-5 2 -17 3v37h418v-37zM844 -274q0 34 -15 67l-64 144l-56 -144q-14 -36 -14 -66q0 -89 79 -89q70 0 70 88z" />
    <glyph glyph-name="uni0194" unicode="&#x263;" horiz-adv-x="1479" 
d="M1454 1319q-74 -14 -109 -46q-52 -47 -94 -150l-388 -955l109 -232q41 -90 41 -166q0 -213 -229 -213q-88 0 -134 57q-39 50 -39 121q0 39 14 75l88 220l-480 1108q-40 92 -55 110q-50 62 -160 71v37h554v-37q-150 -13 -150 -91q0 -51 46 -156l345 -795l320 785
q47 117 47 161q0 72 -127 93q-5 2 -17 3v37h418v-37zM844 -274q0 34 -15 67l-64 144l-56 -144q-14 -36 -14 -66q0 -89 79 -89q70 0 70 88z" />
    <glyph glyph-name="uni0195" unicode="&#x195;" horiz-adv-x="1577" 
d="M1420 303q0 -166 -68 -242q-83 -89 -285 -89q-201 0 -287 101q-71 86 -71 255v203q0 116 -4 144q-12 90 -61 124q-34 23 -82 23q-106 0 -229 -131v-484q0 -71 3 -88q9 -46 47 -67q28 -16 98 -16v-36h-454v36q61 0 96 19q44 23 44 152v829q0 216 -30 242q-16 13 -42 13
q-23 0 -68 -16l-14 35l274 112h46v-670q86 94 134 130q83 61 172 61q165 0 217 -178q19 -63 19 -234v-227q0 -261 192 -261q187 0 187 261v434q0 102 -55 129q-27 13 -100 12v37h321v-613z" />
    <glyph glyph-name="uni0196" unicode="&#x196;" horiz-adv-x="519" 
d="M519 199q-20 -227 -192 -227q-177 0 -177 256v811q0 215 -29 239q-16 13 -40 13q-27 0 -66 -16l-17 35l273 112h45v-1201q0 -70 8 -100q16 -55 71 -55q69 0 88 133h36z" />
    <glyph glyph-name="uni0196" unicode="&#x269;" horiz-adv-x="519" 
d="M519 199q-20 -227 -192 -227q-177 0 -177 256v811q0 215 -29 239q-16 13 -40 13q-27 0 -66 -16l-17 35l273 112h45v-1201q0 -70 8 -100q16 -55 71 -55q69 0 88 133h36z" />
    <glyph glyph-name="uni019A" unicode="&#x19a;" horiz-adv-x="569" 
d="M379 207q0 -127 51 -156q27 -15 97 -15v-36h-449v36q98 0 122 56q13 29 13 115v471h-168v74h168v287q0 215 -29 239q-16 13 -40 13q-27 0 -66 -16l-17 35l273 112h45v-670h169v-74h-169v-471z" />
    <glyph glyph-name="uni019B" unicode="&#x19b;" horiz-adv-x="993" 
d="M1003 288q0 -302 -180 -302q-103 0 -162 105q-33 60 -63 197l-86 388l-298 -676h-189l428 922q-8 42 -23 104l-361 -350v94l340 329q-59 174 -157 174q-137 0 -147 -178h-36q1 115 43 206q54 118 156 118q123 0 187 -196l18 -62l191 185v-94l-171 -166q25 -98 72 -309
l71 -317q30 -137 58 -202q57 -126 146 -126q112 0 127 156h36z" />
    <glyph glyph-name="uni019C" unicode="&#x19c;" horiz-adv-x="1672" 
d="M1313 -32v195q-99 -98 -118 -115q-47 -39 -97 -59q-52 -21 -113 -21q-96 0 -158 50t-83 145q-110 -128 -164 -157q-73 -38 -146 -38q-138 0 -206 111q-55 89 -55 231v839q0 88 -13 118q-23 53 -125 53v36h462v-36h-19q-95 0 -115 -74q-4 -13 -4 -97v-839q0 -113 27 -158
q37 -64 125 -64q41 0 97 27q53 26 129 98v936q0 70 -2 88q-9 47 -48 68q-29 15 -88 15v36h461v-36q-110 0 -133 -72q-5 -18 -5 -99v-839q0 -113 33 -161q43 -64 123 -64q52 0 107 29q85 45 128 99v936q0 131 -49 158q-23 13 -89 13v36h461v-36q-99 0 -125 -56
q-13 -29 -13 -115v-795q0 -152 9 -195q12 -58 63 -58q28 0 67 15l15 -36l-296 -112h-43z" />
    <glyph glyph-name="uni019C" unicode="&#x26f;" horiz-adv-x="1672" 
d="M1313 -32v195q-99 -98 -118 -115q-47 -39 -97 -59q-52 -21 -113 -21q-96 0 -158 50t-83 145q-110 -128 -164 -157q-73 -38 -146 -38q-138 0 -206 111q-55 89 -55 231v839q0 88 -13 118q-23 53 -125 53v36h462v-36h-19q-95 0 -115 -74q-4 -13 -4 -97v-839q0 -113 27 -158
q37 -64 125 -64q41 0 97 27q53 26 129 98v936q0 70 -2 88q-9 47 -48 68q-29 15 -88 15v36h461v-36q-110 0 -133 -72q-5 -18 -5 -99v-839q0 -113 33 -161q43 -64 123 -64q52 0 107 29q85 45 128 99v936q0 131 -49 158q-23 13 -89 13v36h461v-36q-99 0 -125 -56
q-13 -29 -13 -115v-795q0 -152 9 -195q12 -58 63 -58q28 0 67 15l15 -36l-296 -112h-43z" />
    <glyph glyph-name="uni019E" unicode="&#x19e;" 
d="M562 -402h19q105 0 125 77q4 13 4 94v813q0 106 -20 158q-33 80 -122 80q-119 0 -237 -130v-483q0 -91 11 -115q27 -56 138 -56v-36h-453v36h20q78 0 102 50q17 34 17 121v340q0 225 -30 250q-16 13 -42 13q-28 0 -67 -15l-15 36l276 112h43v-194q161 194 307 194
q155 0 215 -161q22 -57 22 -184v-829q0 -128 50 -157q26 -14 90 -14v-36h-453v36z" />
    <glyph glyph-name="uni019F" unicode="&#x19f;" horiz-adv-x="1479" 
d="M1219 1175q181 -202 181 -489q0 -297 -184 -502q-191 -215 -483 -215q-296 0 -483 211q-178 202 -178 503q0 323 220 527q190 177 457 177q282 0 470 -212zM1170 727q-10 251 -99 399q-113 188 -341 188q-220 0 -332 -192q-89 -155 -96 -395h868zM1080 239q91 160 91 414
h-870q8 -308 142 -477q108 -136 288 -136q237 0 349 199z" />
    <glyph glyph-name="uni019F" unicode="&#x275;" horiz-adv-x="1479" 
d="M1219 1175q181 -202 181 -489q0 -297 -184 -502q-191 -215 -483 -215q-296 0 -483 211q-178 202 -178 503q0 323 220 527q190 177 457 177q282 0 470 -212zM1170 727q-10 251 -99 399q-113 188 -341 188q-220 0 -332 -192q-89 -155 -96 -395h868zM1080 239q91 160 91 414
h-870q8 -308 142 -477q108 -136 288 -136q237 0 349 199z" />
    <glyph glyph-name="uni01A2" unicode="&#x1a2;" horiz-adv-x="1894" 
d="M1271 -401h48q85 0 122 49q24 32 24 154v1294q0 83 -14 119q-24 61 -99 61h-108v-1216q-157 -52 -165 -53q-157 -38 -345 -38q-338 0 -522 250q-138 186 -138 438q0 199 87 365q90 176 255 272q159 93 348 93q63 0 217 -25q161 -26 263 -26q189 0 363 51h50v-1585
q0 -104 13 -136q27 -67 133 -67h49v-37h-581v37zM809 57q149 0 243 63v1156q-172 39 -272 39q-295 0 -415 -287q-63 -152 -63 -373q0 -382 237 -526q119 -72 270 -72z" />
    <glyph glyph-name="uni01A3" unicode="&#x1a3;" horiz-adv-x="1416" 
d="M958 -402q98 0 122 56q13 29 13 115v931q0 112 -79 112h-80v-376q0 -276 -202 -400q-103 -64 -231 -64q-207 0 -329 165q-103 139 -103 312q0 203 114 342q123 152 329 152q77 0 221 -43t201 -43q153 0 280 86h45v-1174q0 -127 51 -156q27 -15 97 -15v-36h-449v36z
M544 43q96 0 161 81q63 80 63 285v400q-144 69 -287 69q-123 0 -182 -119q-44 -91 -44 -226q0 -171 61 -309q79 -181 228 -181z" />
    <glyph glyph-name="uni01A6" unicode="&#x1a6;" horiz-adv-x="1139" 
d="M570 414h-150v-171q0 -108 23 -149q33 -57 130 -57h41v-37h-578v37h38q92 0 133 56q20 29 20 147v868q0 89 -2 107q-10 53 -57 82q-37 22 -92 22h-40v37h578v-37h-40q-154 0 -154 -146v-15h74q154 0 224 -12q207 -34 297 -186q45 -75 45 -170q0 -151 -107 -255
q-76 -73 -184 -100l270 -374q87 -121 144 -163q76 -57 201 -71v-37h-362zM654 513q176 74 176 274q0 158 -112 237q-49 34 -113 48q-42 8 -137 8h-48v-595h44q124 0 190 28z" />
    <glyph glyph-name="uni01A6" unicode="&#x280;" horiz-adv-x="1139" 
d="M570 414h-150v-171q0 -108 23 -149q33 -57 130 -57h41v-37h-578v37h38q92 0 133 56q20 29 20 147v868q0 89 -2 107q-10 53 -57 82q-37 22 -92 22h-40v37h578v-37h-40q-154 0 -154 -146v-15h74q154 0 224 -12q207 -34 297 -186q45 -75 45 -170q0 -151 -107 -255
q-76 -73 -184 -100l270 -374q87 -121 144 -163q76 -57 201 -71v-37h-362zM654 513q176 74 176 274q0 158 -112 237q-49 34 -113 48q-42 8 -137 8h-48v-595h44q124 0 190 28z" />
    <glyph glyph-name="uni01A7" unicode="&#x1a7;" horiz-adv-x="1139" 
d="M890 1291q121 -102 121 -261q0 -163 -149 -282q-78 -60 -230 -143q-160 -86 -231 -140q-113 -86 -113 -196q0 -105 85 -166q77 -56 185 -56q102 0 189 43q95 45 144 126q45 76 70 218h37v-465h-37q-11 77 -61 77q-33 0 -122 -29q-101 -35 -130 -39q-52 -9 -111 -9
q-171 0 -295 101q-132 108 -132 276q0 170 145 284q70 55 259 156q231 124 295 200q43 52 43 113q0 92 -76 152q-71 56 -164 56t-179 -47q-83 -45 -131 -127q-47 -82 -65 -215h-37v469h37q17 -78 69 -78q23 0 79 25q121 53 229 53q162 0 276 -96z" />
    <glyph glyph-name="uni01A8" unicode="&#x1a8;" horiz-adv-x="797" 
d="M617 871q80 -75 80 -193q0 -103 -71 -171q-47 -45 -164 -103q-118 -58 -157 -88q-85 -64 -85 -147q0 -61 48 -101q44 -37 108 -37q115 0 192 86q68 77 92 196h33v-327h-33q-14 26 -36 26q-21 0 -54 -10q-106 -30 -192 -30q-121 0 -212 77q-94 81 -94 201q0 162 203 261
l146 71q158 77 158 183q0 54 -53 89q-45 30 -103 30q-109 0 -171 -75q-46 -55 -78 -178h-33v312h33q20 -38 46 -38q17 0 68 15q78 23 131 23q119 0 198 -72z" />
    <glyph glyph-name="uni01AA" unicode="&#x1aa;" horiz-adv-x="704" 
d="M774 -256q35 0 59 -25q23 -26 23 -60q0 -53 -68 -80q-50 -21 -111 -21q-187 0 -282 143q-78 121 -78 320v1060q-52 -43 -122 -43q-79 0 -135 56t-56 135q0 77 56 135q56 56 145 56q139 0 209 -100q68 -95 68 -262v-1152q0 -214 45 -250q23 -19 47 -19q31 0 76 39
q53 46 71 55q27 13 53 13zM195 1107q51 0 87 36q35 35 35 86q0 52 -35 87t-87 35q-51 0 -86 -35q-36 -36 -36 -87q0 -50 36 -86t86 -36z" />
    <glyph glyph-name="uni01AB" unicode="&#x1ab;" horiz-adv-x="569" 
d="M572 21q0 -199 -78 -320q-95 -143 -282 -143q-62 0 -111 21q-68 27 -68 80q0 33 24 59t58 26q26 0 53 -13q20 -9 66 -50q50 -44 81 -44q61 0 81 81q11 46 11 188v91q-23 -12 -66 -12q-111 0 -155 99q-21 48 -21 146v616h-145v33q123 50 215 199q22 35 64 139h31v-301h214
v-70h-214v-594q0 -151 91 -151q77 0 112 81h39v-161z" />
    <glyph glyph-name="uni01B1" unicode="&#x1b1;" horiz-adv-x="1522" 
d="M1425 1043q-4 127 -158 127h-278l10 -67q198 -59 307 -202q110 -146 110 -350q0 -267 -193 -429q-181 -153 -454 -153q-272 0 -459 157q-200 167 -200 434q0 195 115 347q119 159 306 196l2 67h-273q-79 0 -115 -24q-43 -28 -48 -103h-37v313h560l-19 -302
q-256 -94 -256 -491q0 -206 103 -354q117 -167 315 -167q207 0 322 171q101 149 101 364q0 396 -258 477l-26 302h560v-313h-37z" />
    <glyph glyph-name="uni01B1" unicode="&#x28a;" horiz-adv-x="1522" 
d="M1425 1043q-4 127 -158 127h-278l10 -67q198 -59 307 -202q110 -146 110 -350q0 -267 -193 -429q-181 -153 -454 -153q-272 0 -459 157q-200 167 -200 434q0 195 115 347q119 159 306 196l2 67h-273q-79 0 -115 -24q-43 -28 -48 -103h-37v313h560l-19 -302
q-256 -94 -256 -491q0 -206 103 -354q117 -167 315 -167q207 0 322 171q101 149 101 364q0 396 -258 477l-26 302h560v-313h-37z" />
    <glyph glyph-name="uni01B5" unicode="&#x1b5;" horiz-adv-x="1251" 
d="M26 0v37l450 641h-291v74h343l368 523h-434q-178 0 -230 -91q-26 -48 -47 -167h-38l28 339h1003l-422 -604h322v-74h-374l-417 -596h556q144 0 214 73q58 59 104 210l33 -6l-64 -359h-1104z" />
    <glyph glyph-name="uni01B6" unicode="&#x1b6;" horiz-adv-x="909" 
d="M806 512v-74h-263l-281 -371h334q83 0 116 9q59 17 87 70q17 32 27 135h34l-11 -281h-808v36l302 402h-201v74h256l251 334h-300q-80 0 -100 -4q-52 -10 -76 -56q-26 -48 -31 -124h-40l6 254h768v-37l-278 -367h208z" />
    <glyph glyph-name="uni01B8" unicode="&#x1b8;" horiz-adv-x="1104" 
d="M975 1015h-38q-8 104 -34 155q-51 101 -223 101h-293l444 -598v-54q-237 0 -385 -129q-156 -135 -156 -367q0 -215 110 -349q105 -125 260 -125q106 0 210 56q101 57 157 147l34 -22q-158 -272 -455 -272q-230 0 -375 122q-168 144 -168 427q0 267 167 425
q134 125 349 165l-468 623v36h837z" />
    <glyph glyph-name="uni01B9" unicode="&#x1b9;" horiz-adv-x="909" 
d="M876 -66q-32 -158 -126 -260q-107 -116 -258 -116q-186 0 -292 133q-96 121 -96 306q0 169 104 284q91 98 230 124l-368 474v37h768l6 -254h-40q-7 142 -80 172q-28 12 -127 12h-310l360 -460v-36q-381 0 -381 -307q0 -145 70 -231q80 -98 228 -98q182 0 283 234z" />
    <glyph glyph-name="uni01BA" unicode="&#x1ba;" horiz-adv-x="909" 
d="M528 525q143 -11 208 -44q96 -47 96 -149q0 -89 -103 -128q-78 -29 -255 -41q-92 -6 -156 -60q-76 -64 -76 -170q0 -95 63 -153q73 -66 215 -66q192 0 292 234l29 -14q-32 -158 -126 -260q-107 -116 -258 -116q-182 0 -286 104q-91 91 -91 225q0 164 130 251
q99 66 260 77q200 14 200 123q0 78 -74 105q-75 27 -277 27v36l350 340h-320q-80 0 -100 -4q-52 -10 -76 -56q-26 -48 -31 -124h-40l6 254h768v-37z" />
    <glyph glyph-name="uni01BB" unicode="&#x1bb;" 
d="M44 0v37q355 325 497 526q42 58 71 115h-492v74h526q39 99 39 187q0 121 -73 206q-77 89 -195 89q-220 0 -297 -230h-37q23 171 117 273q104 110 270 110q156 0 269 -99q117 -104 117 -257q0 -128 -85 -279h168v-74h-214q-66 -101 -157 -199q-253 -275 -311 -328h354
q171 0 230 41q36 27 61 69h37l-95 -261h-800z" />
    <glyph glyph-name="uni01BC" unicode="&#x1bc;" 
d="M688 860q179 -138 179 -373q0 -211 -164 -363q-160 -148 -372 -148q-85 0 -147 25q-86 35 -86 108q0 32 25 51q25 20 56 20q44 0 121 -50q75 -51 143 -51q123 0 208 91q86 91 86 213q0 217 -164 336q-144 105 -380 110v290q0 112 -11 142q-22 58 -114 58h-26v37h771
l22 -388h-35q-45 164 -145 204q-53 21 -157 21h-225v-189q259 -24 415 -144z" />
    <glyph glyph-name="uni01BD" unicode="&#x1bd;" horiz-adv-x="908" 
d="M686 547q151 -93 151 -260q0 -175 -132 -248q-113 -63 -344 -63q-88 0 -157 25q-96 36 -96 108q0 32 25 51q25 20 56 20q40 0 119 -62q78 -63 165 -63q120 0 186 54q63 51 63 139q0 231 -519 231v200q0 112 -11 142q-22 58 -114 58h-26v37h751l34 -315h-44
q-35 111 -77 139q-35 23 -150 23h-283v-119q258 -8 403 -97z" />
    <glyph glyph-name="uni01BE" unicode="&#x1be;" horiz-adv-x="864" 
d="M589 511q203 -99 203 -261q0 -122 -94 -201q-89 -77 -212 -77q-86 0 -192 30q-33 10 -54 10q-22 0 -36 -26h-33v327h33q24 -119 92 -196q77 -86 192 -86q65 0 108 37q48 39 48 101q0 84 -85 148q-33 26 -157 87q-143 71 -190 131q-47 59 -47 143v168h-145v33
q123 50 215 199q22 35 64 139h31v-301h214v-70h-214v-153q0 -55 113 -111z" />
    <glyph glyph-name="uni01BF" unicode="&#x1bf;" 
d="M651 943q303 0 303 -362q0 -263 -268 -468q-183 -141 -368 -190v-250l-325 -111v37l25 12q78 38 102 68q32 38 32 111v856q0 92 -10 119q-16 42 -71 42q-22 0 -61 -14l-12 32l282 114h38v-214q59 85 146 148q98 70 187 70zM604 163q172 154 172 344q0 145 -40 212
q-46 79 -164 79q-110 0 -254 -132v-666q154 43 286 163z" />
    <glyph glyph-name="uni01C4" unicode="&#x1c4;" horiz-adv-x="2730" 
d="M1839 1793h31l273 -212l229 212h30l-189 -331h-184zM86 37q86 0 122 55q22 32 22 148v876q0 128 -28 159q-39 44 -116 44h-51v37h552q304 0 463 -69q157 -69 255 -230q96 -161 96 -372q0 -283 -172 -473q-194 -212 -588 -212h-606v37h51zM2322 82q127 0 197 56
q69 56 121 227l33 -6l-64 -359h-1104v37l870 1238h-434q-107 0 -156 -23q-48 -23 -74 -68q-26 -46 -47 -167h-38l28 339h1003l-891 -1274h556zM422 98q125 -28 213 -28q232 0 385 163t153 442q0 281 -153 443t-393 162q-87 0 -205 -29v-1153z" />
    <glyph glyph-name="uni01C5" unicode="&#x1c5;" horiz-adv-x="2388" 
d="M1668 1385h31l273 -212l229 212h30l-189 -331h-184zM86 37q86 0 122 55q22 32 22 148v876q0 128 -28 159q-39 44 -116 44h-51v37h552q304 0 463 -69q157 -69 255 -230q96 -161 96 -372q0 -283 -172 -473q-194 -212 -588 -212h-606v37h51zM422 98q125 -28 213 -28
q232 0 385 163t153 442q0 281 -153 443t-393 162q-87 0 -205 -29v-1153zM1520 0v36l608 838h-300q-100 0 -127 -12q-29 -13 -49 -48q-26 -48 -31 -124h-40l6 254h768v-37l-614 -840h334q105 0 143 18q37 16 60 61q16 32 27 135h34l-11 -281h-808z" />
    <glyph glyph-name="uni01C6" unicode="&#x1c6;" horiz-adv-x="1933" 
d="M711 1036q0 159 -7 193q-7 35 -24 49q-16 13 -40 13q-27 0 -69 -16l-13 35l273 112h45v-1059q0 -164 7 -196q8 -38 24 -50q17 -14 39 -14q26 0 72 17l11 -35l-272 -113h-46v131q-93 -102 -304 -102h-339v944h643v91zM1213 1385h31l273 -212l229 212h30l-189 -331h-184z
M1065 0v36l608 838h-300q-100 0 -127 -12q-29 -13 -49 -48q-26 -48 -31 -124h-40l6 254h768v-37l-614 -840h334q106 0 143 18q37 16 60 61q17 32 27 135h34l-11 -281h-808zM184 499q0 -203 88 -309q88 -108 208 -108q67 0 128 23.5t103 67.5v472q-9 98 -78 167.5t-156 69.5
q-136 0 -214.5 -101.5t-78.5 -281.5z" />
    <glyph glyph-name="uni01C7" unicode="&#x1c7;" horiz-adv-x="2048" 
d="M736 86q155 0 219 23q61 22 115 82q51 57 104 184l33 -7l-116 -368h-1050v37h51q85 0 123 56q21 31 21 148v875q0 128 -28 159q-39 44 -116 44h-51v37h614v-37q-107 1 -151 -20q-43 -21 -60 -53q-16 -31 -16 -153v-852q0 -83 16 -114q12 -21 37 -31q24 -10 156 -10h99z
M2036 1356v-37h-49q-84 0 -121 -49q-24 -32 -24 -154v-663q0 -153 -33 -248q-35 -96 -116 -165q-81 -71 -198 -71q-95 0 -148 47q-54 46 -54 106q0 49 25 74q32 31 77 31q33 0 58 -21t64 -112q23 -54 59 -54q27 0 51 33q23 34 23 117v926q0 104 -13 136q-10 25 -42 43
q-43 24 -91 24h-49v37h581z" />
    <glyph glyph-name="uni01C8" unicode="&#x1c8;" horiz-adv-x="1820" 
d="M1443 1211v209h209v-209h-209zM736 86q155 0 219 23q61 22 115 82q51 57 104 184l33 -7l-116 -368h-1050v37h51q85 0 123 56q21 31 21 148v875q0 128 -28 159q-39 44 -116 44h-51v37h614v-37q-107 1 -151 -20q-43 -21 -60 -53q-16 -31 -16 -153v-852q0 -83 16 -114
q12 -21 37 -31q24 -10 156 -10h99zM1633 21q0 -236 -100 -349q-101 -114 -260 -114q-91 0 -135 33t-44 68t25 60q24 25 57 25q27 0 53 -13q17 -7 66 -51q47 -43 81 -43q24 0 47 18q24 21 34 62q11 46 11 189v652q0 150 -9 194q-7 33 -22 46q-15 12 -41 12q-28 0 -68 -15
l-14 36l276 112h43v-922z" />
    <glyph glyph-name="uni01C9" unicode="&#x1c9;" horiz-adv-x="1138" 
d="M379 207q0 -87 13 -114q12 -28 38 -42q26 -15 97 -15v-36h-449v36q64 0 86 13q23 14 36 43t13 115v832q0 157 -7 191q-8 35 -22 48q-16 13 -40 13q-27 0 -66 -16l-17 35l273 112h45v-1215zM761 1211v209h209v-209h-209zM951 21q0 -236 -100 -349q-100 -114 -260 -114
q-91 0 -135 33t-44 68t25 60q24 25 57 25q27 0 53 -13q17 -7 66 -51q47 -43 81 -43q24 0 47 18q24 21 34 62q11 46 11 189v652q0 150 -9 194q-7 33 -22 46q-15 12 -41 12q-28 0 -68 -15l-14 36l276 112h43v-922z" />
    <glyph glyph-name="uni01CA" unicode="&#x1ca;" horiz-adv-x="2276" 
d="M1170 339v782q0 125 -28 156q-38 42 -117 42h-47v37h472v-37h-48q-86 0 -122 -52q-22 -31 -22 -146v-1143h-36l-894 1092v-835q0 -125 27 -156q37 -42 117 -42h48v-37h-472v37h47q87 0 123 52q22 31 22 146v943q-56 67 -89 91q-29 21 -90 41q-28 9 -88 9v37h368z
M2264 1356v-37h-49q-84 0 -121 -49q-24 -31 -24 -154v-663q0 -153 -33 -248q-35 -96 -116 -165q-81 -71 -198 -71q-95 0 -148 47q-54 46 -54 106q0 49 25 74q32 31 77 31q33 0 58 -21t64 -112q23 -54 59 -54q27 0 51 33q23 34 23 117v926q0 104 -13 136q-10 25 -42 43
q-43 24 -91 24h-49v37h581z" />
    <glyph glyph-name="uni01CB" unicode="&#x1cb;" horiz-adv-x="2048" 
d="M1671 1211v209h209v-209h-209zM1170 339v782q0 125 -28 156q-38 42 -117 42h-47v37h472v-37h-48q-86 0 -122 -52q-22 -31 -22 -146v-1143h-36l-894 1092v-835q0 -125 27 -156q37 -42 117 -42h48v-37h-472v37h47q87 0 123 52q22 31 22 146v943q-56 67 -89 91
q-29 21 -90 41q-28 9 -88 9v37h368zM1861 21q0 -236 -100 -349q-101 -114 -260 -114q-91 0 -135 33t-44 68t25 60q24 25 57 25q27 0 53 -13q17 -7 66 -51q47 -43 81 -43q25 0 47 18q24 21 34 62q11 46 11 189v652q0 150 -9 194q-7 33 -22 46q-15 12 -41 12q-28 0 -68 -15
l-14 36l276 112h43v-922z" />
    <glyph glyph-name="uni01CC" unicode="&#x1cc;" horiz-adv-x="1593" 
d="M1216 1211v209h209v-209h-209zM331 749q161 194 307 194h237v-736q0 -85 14 -118q11 -25 36 -39t90 -14v-36h-453v36h19q64 0 90 20q24 19 35 57q4 13 4 94v375q0 124 -32 182q-33 56 -110 56q-119 0 -237 -130v-483q0 -91 11 -115q14 -28 39 -42t99 -14v-36h-453v36h20
q70 0 95 36q24 34 24 135v340q0 167 -7 201q-7 35 -23 49q-16 13 -42 13q-28 0 -67 -15l-15 36l276 112h43v-194zM1406 21q0 -236 -100 -349q-100 -114 -260 -114q-92 0 -135 33q-44 33 -44 68t25 60q24 25 57 25q27 0 53 -13q16 -7 66 -51q47 -43 81 -43q25 0 47 18
q24 21 34 62q11 46 11 189v652q0 150 -9 194q-7 33 -22 46q-15 12 -41 12q-27 0 -68 -15l-14 36l276 112h43v-922z" />
    <glyph glyph-name="uni01E0" unicode="&#x1e0;" horiz-adv-x="1479" 
d="M488 1825h494v-128h-494v128zM735 1616q36 0 61 -25t25 -61q0 -35 -25 -60t-60 -25q-36 0 -61 25q-26 26 -26 60q0 36 25 61t61 25zM320 240q-34 -78 -34 -118q0 -32 30 -54q28 -23 127 -31v-37h-427v37q84 15 110 39q52 49 113 195l477 1116h35l472 -1128
q56 -134 104 -176t129 -46v-37h-535v37q82 5 110 27t28 56q0 46 -40 139l-82 195h-525zM443 528h466l-230 548z" />
    <glyph glyph-name="uni01E1" unicode="&#x1e1;" horiz-adv-x="909" 
d="M763 1401h-638v128h638v-128zM335 1162q0 45 32 77t77 32t77 -32t32 -77t-32 -77t-77 -32t-77 32t-32 77zM691 -18q-50 0 -78 34q-29 35 -30 116q-141 -110 -177 -126q-53 -25 -115 -25q-94 0 -156 65t-62 171q0 67 30 116q41 68 143 128q101 60 337 146v36
q0 121 -31 180t-118 59q-61 0 -98.5 -42t-37.5 -105h-186v209l331 -1q121 0 200 -41q59 -32 87 -97q18 -43 18 -176v-311q0 -128 5 -160q4 -29 17 -40q10 -10 26 -10q17 0 28 7q22 14 81 73v-56q-113 -150 -214 -150zM383 97q76 0 200 100v349q-154 -61 -195 -85
q-77 -42 -113 -92q-34 -47 -34 -105q0 -73 43 -119q44 -48 99 -48z" />
    <glyph glyph-name="uni01E2" unicode="&#x1e2;" horiz-adv-x="1821" 
d="M1461 1508h-638v128h638v-128zM1284 746q116 0 162 43q48 45 55 154h36v-471h-36q-12 99 -32 135q-21 34 -69 55q-24 11 -116 11h-257v-449q0 -93 7 -108q8 -19 29 -30q23 -12 79 -12h182q110 0 168 18q59 18 114 70q73 67 120 179h38l-108 -341h-1018v37h51q83 0 122 49
q24 32 24 153v286h-396l-124 -233q-70 -131 -70 -173q0 -29 31 -51q29 -23 126 -31v-37h-426v37q45 2 76 19q29 17 68 65q36 45 94 153l412 771q77 143 77 193q0 32 -27 50q-34 25 -146 31v37h1111l15 -298h-34q-14 105 -50 157q-27 39 -78 57q-27 10 -136 10h-331v-536h257
zM835 598v684l-357 -684h357z" />
    <glyph glyph-name="uni01E3" unicode="&#x1e3;" horiz-adv-x="1366" 
d="M1011 1119h-638v128h638v-128zM734 567q-1 -34 -1 -74q0 -201 72 -286t184 -85q97 0 176 61q50 40 107 159l32 -22q-36 -161 -155 -270q-85 -78 -215 -78q-108 0 -185 47q-35 22 -111 113l-55 -43q-62 -50 -78 -58q-43 -25 -100 -43q-51 -16 -109 -16q-94 0 -158 67
q-65 67 -65 162q0 86 44 148t170 126q159 81 276 122v92q0 109 -40 153q-41 44 -107 44q-65 0 -103 -32q-38 -33 -38 -73q0 -82 -8 -109q-9 -24 -27 -38q-17 -13 -45 -13q-39 0 -60 23q-30 32 -30 72q0 52 37 104q36 52 115 88q78 36 183 36q123 0 187 -35q64 -36 83 -88
q48 60 101 87q71 36 168 36q144 0 235 -97q90 -98 90 -280h-570zM927 873q-79 0 -135 -62q-57 -64 -58 -179h378q-1 125 -53 184q-53 57 -132 57zM402 79q40 0 83 21q41 18 125 84q-20 44 -34 118q-13 69 -13 141v89q-135 -42 -248 -128q-74 -57 -74 -146q0 -80 48 -129
q47 -50 113 -50z" />
    <glyph glyph-name="uni01E4" unicode="&#x1e4;" horiz-adv-x="1479" 
d="M1298 89q-224 -120 -476 -120q-393 0 -597 252q-153 189 -153 436q0 179 86 343q202 387 632 387q129 0 306 -65q57 -21 75 -21q44 0 49 86h37l35 -428h-35q-52 159 -137 241q-122 117 -311 117q-261 0 -394 -205q-113 -173 -113 -412q0 -177 64 -330q74 -176 208 -258
q122 -75 249 -75q148 0 280 75v246h-280v74h280v72q0 78 -6 103q-12 57 -57 79q-31 16 -115 16v38h525v-38h-25q-79 0 -107 -52q-20 -37 -20 -146v-72h152v-74h-152v-269z" />
    <glyph glyph-name="uni01E5" unicode="&#x1e5;" 
d="M938 -212q-26 -44 -69 -84q-157 -146 -407 -146q-194 0 -326 87q-75 49 -75 104q0 21 7 39h-68v74h113q5 6 14.5 19t14.5 19q8 10 102 108q-95 57 -95 111q0 82 160 215q-174 86 -174 277q0 147 111 242q105 90 254 90q132 0 227 -64h194q54 0 60 -10q6 -11 6 -33
q0 -38 -15 -44q-8 -3 -51 -3h-119q56 -73 56 -184q0 -144 -111 -231q-101 -79 -250 -79q-67 0 -139 20q-75 -65 -75 -115q0 -44 81 -56q25 -4 140 -7q201 -4 267 -14q89 -14 144 -64q60 -56 60 -143q0 -28 -6 -54h54v-74h-85zM509 344q174 0 174 236q0 159 -69 249
q-51 66 -131 66q-92 0 -137 -78q-37 -64 -37 -162q0 -157 68 -245q53 -66 132 -66zM901 -138q1 5 1 15q0 69 -103 90q-33 7 -154 10q-220 6 -346 23q-71 -77 -89 -138h691zM817 -258q27 19 50 46h-654q13 -25 49 -48q101 -62 289 -62q181 0 266 64z" />
    <glyph glyph-name="uni01E8" unicode="&#x1e8;" horiz-adv-x="1479" 
d="M340 1793h31l273 -212l229 212h30l-189 -331h-184zM1112 255q124 -124 210 -167q87 -45 174 -51v-37h-645v37q58 0 84 20q25 19 25 43t-9 43q-9 17 -63 71l-468 463v-437q0 -104 13 -136q10 -25 42 -43q43 -24 91 -24h46v-37h-578v37h48q85 0 122 49q24 32 24 154v876
q0 104 -13 137q-11 25 -41 42q-44 24 -92 24h-48v37h578v-37h-46q-47 0 -91 -23q-31 -16 -43 -48t-12 -132v-415q7 7 137 127q298 273 359 363q27 41 27 70q0 23 -21 41q-22 17 -71 17h-31v37h498v-37q-44 -2 -80 -12q-35 -10 -88 -42q-50 -30 -128 -102q-9 -8 -203 -205
l-207 -206z" />
    <glyph glyph-name="uni01E9" unicode="&#x1e9;" 
d="M210 1793h31l273 -212l229 212h30l-189 -331h-184zM568 751q19 19 40 39.5t32 31t14 15.5q8 13 8 24q0 23 -16 35q-18 15 -55 16v32h398v-32q-78 -1 -136 -25q-66 -27 -120 -82l-235 -245l235 -297q97 -123 132 -156q50 -48 84 -61q24 -10 87 -10v-36h-445v36q39 2 52 12
t13 29q0 24 -40 74l-281 359v-304q0 -90 13 -117q12 -28 35 -40q21 -11 100 -13v-36h-466v36q69 0 105 17q21 11 32 34q15 33 15 114v834q0 161 -7 195q-8 37 -23 49q-16 13 -42 13q-20 0 -63 -17l-17 35l272 112h46v-911z" />
    <glyph glyph-name="uni01EA" unicode="&#x1ea;" horiz-adv-x="1479" 
d="M1207 1187q193 -200 193 -501q0 -309 -195 -513q-121 -127 -275 -175q-30 -32 -54 -66t-40 -71q-15 -34 -17 -75q-1 -52 27 -87q29 -35 78 -35q21 0 43 7q27 8 44 19l15 -29q-39 -39 -82 -65q-41 -25 -96 -25q-37 0 -67 12q-32 15 -50 35q-21 22 -31 50q-11 31 -10 61
q2 43 21 84q21 43 49 77q20 23 36 38q11 12 38 37q5 4 15 14q-53 -10 -116 -10q-280 0 -470 199q-191 200 -191 515q0 323 220 527q190 177 457 177q264 0 458 -200zM1047 189q124 148 124 470q0 347 -137 519q-109 136 -304 136q-182 0 -292 -135q-137 -169 -137 -492
q0 -333 142 -511q109 -136 288 -136q191 0 316 149z" />
    <glyph glyph-name="uni01EB" unicode="&#x1eb;" 
d="M556 -139q-15 -34 -17 -75q-1 -52 27 -87q29 -35 78 -35q21 0 43 7q27 8 44 19l15 -29q-39 -39 -82 -65q-41 -25 -96 -25q-37 0 -67 12q-32 15 -50 35q-21 22 -31 50q-11 31 -10 61q2 43 21 84q21 43 49 77q20 23 36 38q11 12 38 37q7 6 21.5 18t19.5 17h-526v944h884
v-944h-301l-2 -2q-30 -32 -54 -66t-40 -71zM189 544q0 -112 29.5 -205.5t79 -153.5t113 -93t133.5 -33q137 0 213 91.5t76 258.5q0 207 -98 341t-254 134q-124 0 -208 -93.5t-84 -246.5z" />
    <glyph glyph-name="uni01EC" unicode="&#x1ec;" horiz-adv-x="1479" 
d="M426 1636h638v-128h-638v128zM1207 1187q193 -200 193 -501q0 -309 -195 -513q-121 -127 -275 -175q-30 -32 -54 -66t-40 -71q-15 -34 -17 -75q-1 -52 27 -87q29 -35 78 -35q21 0 43 7q27 8 44 19l15 -29q-39 -39 -82 -65q-41 -25 -96 -25q-37 0 -67 12q-32 15 -50 35
q-21 22 -31 50q-11 31 -10 61q2 43 21 84q21 43 49 77q20 23 36 38q11 12 38 37q5 4 15 14q-53 -10 -116 -10q-280 0 -470 199q-191 200 -191 515q0 323 220 527q190 177 457 177q264 0 458 -200zM1047 189q124 148 124 470q0 347 -137 519q-109 136 -304 136
q-182 0 -292 -135q-137 -169 -137 -492q0 -333 142 -511q109 -136 288 -136q191 0 316 149z" />
    <glyph glyph-name="uni01ED" unicode="&#x1ed;" 
d="M192 1247h638v-128h-638v128zM556 -139q-15 -34 -17 -75q-1 -52 27 -87q29 -35 78 -35q21 0 43 7q27 8 44 19l15 -29q-39 -39 -82 -65q-41 -25 -96 -25q-37 0 -67 12q-32 15 -50 35q-21 22 -31 50q-11 31 -10 61q2 43 21 84q21 43 49 77q20 23 36 38q11 12 38 37
q7 6 21.5 18t19.5 17h-526v944h884v-944h-301l-2 -2q-30 -32 -54 -66t-40 -71zM189 544q0 -112 29.5 -205.5t79 -153.5t113 -93t133.5 -33q137 0 213 91.5t76 258.5q0 207 -98 341t-254 134q-124 0 -208 -93.5t-84 -246.5z" />
    <glyph glyph-name="uni01EE" unicode="&#x1ee;" horiz-adv-x="1104" 
d="M270 1793h31l273 -212l229 212h30l-189 -331h-184zM525 697q215 -40 349 -165q167 -158 167 -425q0 -283 -168 -427q-145 -122 -375 -122q-297 0 -455 272l34 22q56 -91 158 -147q103 -56 209 -56q155 0 260 125q110 134 110 349q0 232 -156 367q-149 129 -385 129v54
l444 598h-293q-172 0 -223 -101q-26 -51 -34 -155h-38l27 341h837v-36z" />
    <glyph glyph-name="uni01EF" unicode="&#x1ef;" horiz-adv-x="909" 
d="M160 1385h31l273 -212l229 212h30l-189 -331h-184zM471 405q139 -26 230 -124q104 -115 104 -284q0 -185 -96 -306q-106 -133 -292 -133q-151 0 -258 116q-94 102 -126 260l29 14q100 -234 283 -234q148 0 228 98q70 86 70 231q0 307 -381 307v36l360 460h-310
q-80 0 -100 -4q-52 -10 -76 -56q-26 -48 -31 -124h-40l6 254h768v-37z" />
    <glyph glyph-name="uni01F0" unicode="&#x1f0;" horiz-adv-x="569" 
d="M180 1054l-190 331h31l273 -212l229 212h30l-189 -331h-184zM382 21q0 -199 -78 -320q-95 -143 -282 -143q-62 0 -111 21q-68 27 -68 80q0 33 24 59t58 26q26 0 53 -13q20 -9 66 -50q50 -44 81 -44q61 0 81 81q11 46 11 188v652q0 150 -9 194q-12 58 -63 58
q-27 0 -68 -15l-14 36l276 112h43v-922z" />
    <glyph glyph-name="uni01F1" unicode="&#x1f1;" horiz-adv-x="2730" 
d="M86 37q86 0 122 55q22 32 22 148v876q0 128 -28 159q-39 44 -116 44h-51v37h552q304 0 463 -69q157 -69 255 -230q96 -161 96 -372q0 -283 -172 -473q-194 -212 -588 -212h-606v37h51zM2322 82q127 0 197 56q69 56 121 227l33 -6l-64 -359h-1104v37l870 1238h-434
q-107 0 -156 -23q-48 -23 -74 -68q-26 -46 -47 -167h-38l28 339h1003l-891 -1274h556zM422 98q125 -28 213 -28q232 0 385 163t153 442q0 281 -153 443t-393 162q-87 0 -205 -29v-1153z" />
    <glyph glyph-name="uni01F2" unicode="&#x1f2;" horiz-adv-x="2388" 
d="M86 37q86 0 122 55q22 32 22 148v876q0 128 -28 159q-39 44 -116 44h-51v37h552q304 0 463 -69q157 -69 255 -230q96 -161 96 -372q0 -283 -172 -473q-194 -212 -588 -212h-606v37h51zM422 98q125 -28 213 -28q232 0 385 163t153 442q0 281 -153 443t-393 162
q-87 0 -205 -29v-1153zM1520 0v36l608 838h-300q-100 0 -127 -12q-29 -13 -49 -48q-26 -48 -31 -124h-40l6 254h768v-37l-614 -840h334q105 0 143 18q37 16 60 61q16 32 27 135h34l-11 -281h-808z" />
    <glyph glyph-name="uni01F3" unicode="&#x1f3;" horiz-adv-x="1933" 
d="M711 1036q0 159 -7 193q-7 35 -24 49q-16 13 -40 13q-27 0 -69 -16l-13 35l273 112h45v-1059q0 -164 7 -196q8 -38 24 -50q17 -14 39 -14q26 0 72 17l11 -35l-272 -113h-46v131q-93 -102 -304 -102h-339v944h643v91zM1065 0v36l608 838h-300q-100 0 -127 -12
q-29 -13 -49 -48q-26 -48 -31 -124h-40l6 254h768v-37l-614 -840h334q106 0 143 18q37 16 60 61q17 32 27 135h34l-11 -281h-808zM184 499q0 -203 88 -309q88 -108 208 -108q67 0 128 23.5t103 67.5v472q-9 98 -78 167.5t-156 69.5q-136 0 -214.5 -101.5t-78.5 -281.5z" />
    <glyph glyph-name="uni01F4" unicode="&#x1f4;" horiz-adv-x="1479" 
d="M686 1452l105 345h224l-295 -345h-34zM1257 959q-52 159 -137 241q-122 117 -311 117q-259 0 -394 -205q-113 -173 -113 -412q0 -194 75 -354t197 -234q122 -75 249 -75q76 0 145 19q74 20 135 56v392q0 102 -15 134q-16 32 -48 48t-115 16v38h525v-38h-25
q-79 0 -107 -52q-20 -38 -20 -146v-415q-120 -64 -227 -91q-114 -29 -249 -29q-393 0 -597 252q-153 189 -153 436q0 179 86 343q102 195 280 300q148 87 352 87q74 0 135 -12q57 -11 171 -53q56 -21 75 -21t33 18q13 16 16 68h37l35 -428h-35z" />
    <glyph glyph-name="uni01F5" unicode="&#x1f5;" 
d="M396 1045l105 345h224l-295 -345h-34zM462 -442q-192 0 -326 87q-75 49 -75 104q0 23 11 48q15 34 70 103q8 9 102 108q-53 32 -73 56q-22 23 -22 55q0 35 29 82q36 59 86 94h-129v648h723v-648h-521q-23 -18 -38 -46q-16 -28 -16 -49q0 -16 17 -33q15 -15 64 -23
q25 -4 140 -7q201 -4 267 -14q94 -14 149 -69t55 -138q0 -113 -106 -212q-157 -146 -407 -146zM539 356q103 0 156.5 59.5t53.5 164.5q0 126 -78 216.5t-208 90.5q-98 0 -155 -63.5t-57 -168.5q0 -128 79.5 -213.5t208.5 -85.5zM551 -322q181 0 266 63q85 64 85 136
q0 51 -51 74q-50 21 -206 26q-220 6 -346 23q-47 -52 -71 -95t-24 -81q0 -48 58 -84q101 -62 289 -62z" />
    <glyph glyph-name="uni01F6" unicode="&#x1f6;" horiz-adv-x="1945" 
d="M1788 303q0 -166 -68 -242q-83 -89 -285 -89q-384 0 -384 357v324h-630v-413q0 -104 13 -136q27 -67 133 -67h49v-37h-581v37h48q85 0 122 49q24 32 24 154v875q0 105 -13 137q-11 27 -41 43q-44 24 -92 24h-48v37h581v-37h-49q-50 0 -94 -25q-39 -23 -48 -80
q-4 -20 -4 -99v-388h630v388q0 105 -13 137q-27 67 -133 67h-48v37h580v-37h-48q-48 0 -89 -22q-42 -22 -53 -81q-4 -20 -4 -101v-810q0 -262 192 -262q187 0 187 261v434q0 102 -55 129q-27 13 -100 12v37h321v-613z" />
    <glyph glyph-name="uni01F7" unicode="&#x1f7;" horiz-adv-x="1147" 
d="M712 1387q363 0 363 -506q0 -364 -298 -638q-207 -190 -398 -243v-327l-345 -111v37l25 12q78 38 102 68q32 38 32 111v1304q0 92 -10 119q-17 42 -71 42q-22 0 -61 -14l-12 32l302 114h38v-214q59 86 146 146q98 68 187 68zM685 300q192 226 192 507q0 237 -60 341
q-57 98 -184 98q-110 0 -254 -132v-1037q154 44 306 223z" />
    <glyph glyph-name="uni01F8" unicode="&#x1f8;" horiz-adv-x="1479" 
d="M813 1452h-35l-294 345h223zM1170 339v782q0 125 -28 156q-38 42 -117 42h-47v37h472v-37h-48q-86 0 -122 -52q-22 -31 -22 -146v-1143h-36l-894 1092v-835q0 -125 27 -156q37 -42 117 -42h48v-37h-472v37h47q87 0 123 52q22 31 22 146v943q-56 67 -89 91q-29 21 -90 41
q-28 9 -88 9v37h368z" />
    <glyph glyph-name="uni01F9" unicode="&#x1f9;" 
d="M630 1045h-35l-294 345h223zM331 749q161 194 307 194h237v-736q0 -85 14 -118q11 -25 36 -39t90 -14v-36h-453v36h19q64 0 90 20q24 19 35 57q4 13 4 94v375q0 124 -32 182q-33 56 -110 56q-119 0 -237 -130v-483q0 -91 11 -115q14 -28 39 -42t99 -14v-36h-453v36h20
q70 0 95 36q24 34 24 135v340q0 167 -7 201q-7 35 -23 49q-16 13 -42 13q-28 0 -67 -15l-15 36l276 112h43v-194z" />
    <glyph glyph-name="Aringacute" unicode="&#x1fa;" horiz-adv-x="1479" 
d="M739 2062h224l-295 -345h-34zM1327 83q48 -42 129 -46v-37h-535v37q82 5 110 27t28 56q0 46 -40 139l-82 195h-525l-92 -214q-34 -78 -34 -118q0 -32 30 -54q28 -23 127 -31v-37h-427v37q84 15 110 39q52 49 113 195l449 1051q-52 12 -92 52q-56 56 -56 136q0 79 56 135
t135 56q80 0 136 -56t56 -135q0 -80 -56 -136q-39 -39 -89 -51l445 -1064q56 -134 104 -176zM645 1424q35 -36 86 -36t87 36q35 37 35 86q0 50 -35 87q-37 35 -87 35q-51 0 -86 -35q-36 -36 -36 -87q0 -50 36 -86zM443 528h466l-230 548z" />
    <glyph glyph-name="aringacute" unicode="&#x1fb;" horiz-adv-x="909" 
d="M363 1491l105 345h224l-295 -345h-34zM267 1235q0 79 56 135t135 56q80 0 136 -56t56 -135q0 -80 -56 -136t-136 -56q-79 0 -135 56t-56 136zM580 1235q0 50 -35 87q-37 35 -87 35q-51 0 -86 -35q-36 -36 -36 -87q0 -50 36 -86q34 -36 86 -36q51 0 87 36q35 37 35 86z
M691 -18q-50 0 -78 34q-29 35 -30 116q-141 -110 -177 -126q-53 -25 -115 -25q-94 0 -156 65t-62 171q0 67 30 116q41 68 143 128q101 60 337 146v36q0 121 -31 180t-118 59q-61 0 -98.5 -42t-37.5 -105h-186v209l331 -1q121 0 200 -41q59 -32 87 -97q18 -43 18 -176v-311
q0 -128 5 -160q4 -29 17 -40q10 -10 26 -10q17 0 28 7q22 14 81 73v-56q-113 -150 -214 -150zM383 97q76 0 200 100v349q-154 -61 -195 -85q-77 -42 -113 -92q-34 -47 -34 -105q0 -73 43 -119q44 -48 99 -48z" />
    <glyph glyph-name="AEacute" unicode="&#x1fc;" horiz-adv-x="1821" 
d="M806 1491l105 345h224l-295 -345h-34zM1284 746q116 0 162 43q48 45 55 154h36v-471h-36q-12 99 -32 135q-21 34 -69 55q-24 11 -116 11h-257v-449q0 -93 7 -108q8 -19 29 -30q23 -12 79 -12h182q110 0 168 18q59 18 114 70q73 67 120 179h38l-108 -341h-1018v37h51
q83 0 122 49q24 32 24 153v286h-396l-124 -233q-70 -131 -70 -173q0 -29 31 -51q29 -23 126 -31v-37h-426v37q45 2 76 19q29 17 68 65q36 45 94 153l412 771q77 143 77 193q0 32 -27 50q-34 25 -146 31v37h1111l15 -298h-34q-14 105 -50 157q-27 39 -78 57q-27 10 -136 10
h-331v-536h257zM835 598v684l-357 -684h357z" />
    <glyph glyph-name="aeacute" unicode="&#x1fd;" horiz-adv-x="1366" 
d="M578 1045l105 345h224l-295 -345h-34zM734 567q-1 -34 -1 -74q0 -201 72 -286t184 -85q97 0 176 61q50 40 107 159l32 -22q-36 -161 -155 -270q-85 -78 -215 -78q-108 0 -185 47q-35 22 -111 113l-55 -43q-62 -50 -78 -58q-43 -25 -100 -43q-51 -16 -109 -16
q-94 0 -158 67q-65 67 -65 162q0 86 44 148t170 126q159 81 276 122v92q0 109 -40 153q-41 44 -107 44q-65 0 -103 -32q-38 -33 -38 -73q0 -82 -8 -109q-9 -24 -27 -38q-17 -13 -45 -13q-39 0 -60 23q-30 32 -30 72q0 52 37 104q36 52 115 88q78 36 183 36q123 0 187 -35
q64 -36 83 -88q48 60 101 87q71 36 168 36q144 0 235 -97q90 -98 90 -280h-570zM927 873q-79 0 -135 -62q-57 -64 -58 -179h378q-1 125 -53 184q-53 57 -132 57zM402 79q40 0 83 21q41 18 125 84q-20 44 -34 118q-13 69 -13 141v89q-135 -42 -248 -128q-74 -57 -74 -146
q0 -80 48 -129q47 -50 113 -50z" />
    <glyph glyph-name="uni0200" unicode="&#x200;" horiz-adv-x="1479" 
d="M365 1797h187l65 -346h-34zM678 1797h187l66 -346h-33zM320 240q-34 -78 -34 -118q0 -32 30 -54q28 -23 127 -31v-37h-427v37q84 15 110 39q52 49 113 195l477 1116h35l472 -1128q56 -134 104 -176t129 -46v-37h-535v37q82 5 110 27t28 56q0 46 -40 139l-82 195h-525z
M443 528h466l-230 548z" />
    <glyph glyph-name="uni0201" unicode="&#x201;" horiz-adv-x="909" 
d="M115 1390h187l65 -346h-34zM428 1390h187l66 -346h-33zM691 -18q-50 0 -78 34q-29 35 -30 116q-141 -110 -177 -126q-53 -25 -115 -25q-94 0 -156 65t-62 171q0 67 30 116q41 68 143 128q101 60 337 146v36q0 121 -31 180t-118 59q-61 0 -98.5 -42t-37.5 -105h-186v209
l331 -1q121 0 200 -41q59 -32 87 -97q18 -43 18 -176v-311q0 -128 5 -160q4 -29 17 -40q10 -10 26 -10q17 0 28 7q22 14 81 73v-56q-113 -150 -214 -150zM383 97q76 0 200 100v349q-154 -61 -195 -85q-77 -42 -113 -92q-34 -47 -34 -105q0 -73 43 -119q44 -48 99 -48z" />
    <glyph glyph-name="uni0202" unicode="&#x202;" horiz-adv-x="1479" 
d="M932 1684q78 -79 87 -199h-33q-19 57 -71 87q-72 42 -180 42t-181 -43q-42 -25 -76 -86h-31q10 119 88 198q79 82 198 82q118 0 199 -81zM320 240q-34 -78 -34 -118q0 -32 30 -54q28 -23 127 -31v-37h-427v37q84 15 110 39q52 49 113 195l477 1116h35l472 -1128
q56 -134 104 -176t129 -46v-37h-535v37q82 5 110 27t28 56q0 46 -40 139l-82 195h-525zM443 528h466l-230 548z" />
    <glyph glyph-name="uni0203" unicode="&#x203;" horiz-adv-x="909" 
d="M640 1277q78 -79 87 -199h-33q-19 57 -71 87q-72 42 -180 42t-181 -43q-42 -25 -76 -86h-31q10 119 88 198q79 82 198 82q118 0 199 -81zM691 -18q-50 0 -78 34q-29 35 -30 116q-141 -110 -177 -126q-53 -25 -115 -25q-94 0 -156 65t-62 171q0 67 30 116q41 68 143 128
q101 60 337 146v36q0 121 -31 180t-118 59q-61 0 -98.5 -42t-37.5 -105h-186v209l331 -1q121 0 200 -41q59 -32 87 -97q18 -43 18 -176v-311q0 -128 5 -160q4 -29 17 -40q10 -10 26 -10q17 0 28 7q22 14 81 73v-56q-113 -150 -214 -150zM383 97q76 0 200 100v349
q-154 -61 -195 -85q-77 -42 -113 -92q-34 -47 -34 -105q0 -73 43 -119q44 -48 99 -48z" />
    <glyph glyph-name="uni0204" unicode="&#x204;" horiz-adv-x="1251" 
d="M265 1797h187l65 -346h-34zM578 1797h187l66 -346h-33zM726 746q115 0 155 35q52 46 58 162h37v-472h-37q-13 95 -28 127q-19 36 -59 55q-42 20 -126 20h-298v-447q0 -88 8 -109q8 -20 28 -31q20 -12 76 -12h230q116 0 167 16q52 16 100 63q63 62 127 187h40l-117 -340
h-1045v37h48q47 0 91 23q32 17 44 48q11 33 11 131v881q0 128 -26 159q-36 40 -120 40h-48v37h1045l15 -297h-39q-21 108 -46 147t-76 61q-41 15 -141 15h-372v-536h298z" />
    <glyph glyph-name="uni0205" unicode="&#x205;" horiz-adv-x="909" 
d="M80 1390h187l65 -346h-34zM393 1390h187l66 -346h-33zM218 571q-2 -204 99 -320t235 -116q89 0 157 50q66 50 111 169l31 -20q-21 -136 -122 -249t-253 -113q-165 0 -282 129q-118 127 -118 345q0 236 121 367q120 131 302 131h352v-373h-633zM481 874q-113 0 -183 -67
t-80 -178h511q-6 111 -71.5 178t-176.5 67z" />
    <glyph glyph-name="uni0206" unicode="&#x206;" horiz-adv-x="1251" 
d="M860 1684q78 -79 87 -199h-33q-19 57 -71 87q-72 42 -180 42t-181 -43q-42 -25 -76 -86h-31q10 119 88 198q79 82 198 82q118 0 199 -81zM726 746q115 0 155 35q52 46 58 162h37v-472h-37q-13 95 -28 127q-19 36 -59 55q-42 20 -126 20h-298v-447q0 -88 8 -109
q8 -20 28 -31q20 -12 76 -12h230q116 0 167 16q52 16 100 63q63 62 127 187h40l-117 -340h-1045v37h48q47 0 91 23q32 17 44 48q11 33 11 131v881q0 128 -26 159q-36 40 -120 40h-48v37h1045l15 -297h-39q-21 108 -46 147t-76 61q-41 15 -141 15h-372v-536h298z" />
    <glyph glyph-name="uni0207" unicode="&#x207;" horiz-adv-x="909" 
d="M662 1277q78 -79 87 -199h-33q-19 57 -71 87q-72 42 -180 42t-181 -43q-42 -25 -76 -86h-31q10 119 88 198q79 82 198 82q118 0 199 -81zM218 571q-2 -204 99 -320t235 -116q89 0 157 50q66 50 111 169l31 -20q-21 -136 -122 -249t-253 -113q-165 0 -282 129
q-118 127 -118 345q0 236 121 367q120 131 302 131h352v-373h-633zM481 874q-113 0 -183 -67t-80 -178h511q-6 111 -71.5 178t-176.5 67z" />
    <glyph glyph-name="uni0208" unicode="&#x208;" horiz-adv-x="682" 
d="M-45 1797h187l65 -346h-34zM268 1797h187l66 -346h-33zM51 0v37h48q85 0 122 49q24 32 24 154v876q0 104 -13 136q-11 26 -41 43q-43 24 -92 24h-48v37h581v-37h-49q-84 0 -121 -49q-25 -31 -25 -154v-876q0 -104 13 -136q10 -25 42 -43q44 -24 91 -24h49v-37h-581z" />
    <glyph glyph-name="uni0209" unicode="&#x209;" horiz-adv-x="569" 
d="M-95 1390h187l65 -346h-34zM218 1390h187l66 -346h-33zM379 207q0 -87 13 -114q14 -31 38 -43q25 -14 89 -14v-36h-445v36q68 0 90 13q24 15 37 43q13 29 13 115v353q0 150 -9 193q-8 32 -22 45q-15 12 -41 12q-28 0 -68 -15l-14 36l276 112h43v-736z" />
    <glyph glyph-name="uni020A" unicode="&#x20a;" horiz-adv-x="682" 
d="M540 1684q78 -79 87 -199h-33q-19 57 -71 87q-72 42 -180 42t-181 -43q-42 -25 -76 -86h-31q10 119 88 198q79 82 198 82q118 0 199 -81zM51 0v37h48q85 0 122 49q24 32 24 154v876q0 104 -13 136q-11 26 -41 43q-43 24 -92 24h-48v37h581v-37h-49q-84 0 -121 -49
q-25 -31 -25 -154v-876q0 -104 13 -136q10 -25 42 -43q44 -24 91 -24h49v-37h-581z" />
    <glyph glyph-name="uni020B" unicode="&#x20b;" horiz-adv-x="569" 
d="M483 1277q78 -79 87 -199h-33q-19 57 -71 87q-72 42 -180 42t-181 -43q-42 -25 -76 -86h-31q10 119 88 198q79 82 198 82q118 0 199 -81zM379 207q0 -87 13 -114q14 -31 38 -43q25 -14 89 -14v-36h-445v36q68 0 90 13q24 15 37 43q13 29 13 115v353q0 150 -9 193
q-8 32 -22 45q-15 12 -41 12q-28 0 -68 -15l-14 36l276 112h43v-736z" />
    <glyph glyph-name="uni020C" unicode="&#x20c;" horiz-adv-x="1479" 
d="M375 1797h187l65 -346h-34zM688 1797h187l66 -346h-33zM292 1210q190 177 457 177q264 0 458 -200q193 -200 193 -501q0 -309 -195 -513t-472 -204q-280 0 -470 199q-191 200 -191 515q0 323 220 527zM1034 1178q-109 136 -304 136q-182 0 -292 -135q-137 -169 -137 -492
q0 -333 142 -511q109 -136 288 -136q191 0 316 149q124 148 124 470q0 347 -137 519z" />
    <glyph glyph-name="uni020D" unicode="&#x20d;" 
d="M125 1390h187l65 -346h-34zM438 1390h187l66 -346h-33zM953 0h-884v944h884v-944zM544 59q137 0 213 91.5t76 258.5q0 207 -98 341t-254 134q-124 0 -208 -93.5t-84 -246.5q0 -112 29.5 -205.5t79 -153.5t113 -93t133.5 -33z" />
    <glyph glyph-name="uni020E" unicode="&#x20e;" horiz-adv-x="1479" 
d="M946 1684q78 -79 87 -199h-33q-19 57 -71 87q-72 42 -180 42t-181 -43q-42 -25 -76 -86h-31q10 119 88 198q79 82 198 82q118 0 199 -81zM292 1210q190 177 457 177q264 0 458 -200q193 -200 193 -501q0 -309 -195 -513t-472 -204q-280 0 -470 199q-191 200 -191 515
q0 323 220 527zM1034 1178q-109 136 -304 136q-182 0 -292 -135q-137 -169 -137 -492q0 -333 142 -511q109 -136 288 -136q191 0 316 149q124 148 124 470q0 347 -137 519z" />
    <glyph glyph-name="uni020F" unicode="&#x20f;" 
d="M709 1277q78 -79 87 -199h-33q-19 57 -71 87q-72 42 -180 42t-181 -43q-42 -25 -76 -86h-31q10 119 88 198q79 82 198 82q118 0 199 -81zM953 0h-884v944h884v-944zM544 59q137 0 213 91.5t76 258.5q0 207 -98 341t-254 134q-124 0 -208 -93.5t-84 -246.5
q0 -112 29.5 -205.5t79 -153.5t113 -93t133.5 -33z" />
    <glyph glyph-name="uni0210" unicode="&#x210;" horiz-adv-x="1366" 
d="M215 1797h187l65 -346h-34zM528 1797h187l66 -346h-33zM563 634h-142v-394q0 -128 28 -159q38 -44 114 -44h53v-37h-581v37h51q85 0 123 56q21 31 21 147v876q0 128 -28 159q-39 44 -116 44h-51v37h1058v-722h-314l260 -363q97 -135 165 -178q70 -44 180 -56v-37h-362z
M454 697q9 -1 107 -1q176 0 283.5 76.5t107.5 221.5q0 139 -78.5 212.5t-270.5 73.5q-86 0 -182 -19v-564h33z" />
    <glyph glyph-name="uni0211" unicode="&#x211;" horiz-adv-x="682" 
d="M15 1390h187l65 -346h-34zM328 1390h187l66 -346h-33zM339 737q116 206 236 206h129v-208l-175 1q-119 0 -190 -97v-425q0 -77 19 -115q14 -27 46 -45q33 -18 95 -18v-36h-469v36q70 0 104 22q24 16 35 51q5 18 5 97v355q0 159 -6 191q-8 31 -24 44q-19 14 -44 14
q-31 0 -70 -15l-10 36l277 112h42v-206z" />
    <glyph glyph-name="uni0212" unicode="&#x212;" horiz-adv-x="1366" 
d="M797 1684q78 -79 87 -199h-33q-19 57 -71 87q-72 42 -180 42t-181 -43q-42 -25 -76 -86h-31q10 119 88 198q79 82 198 82q118 0 199 -81zM563 634h-142v-394q0 -128 28 -159q38 -44 114 -44h53v-37h-581v37h51q85 0 123 56q21 31 21 147v876q0 128 -28 159
q-39 44 -116 44h-51v37h1058v-722h-314l260 -363q97 -135 165 -178q70 -44 180 -56v-37h-362zM454 697q9 -1 107 -1q176 0 283.5 76.5t107.5 221.5q0 139 -78.5 212.5t-270.5 73.5q-86 0 -182 -19v-564h33z" />
    <glyph glyph-name="uni0213" unicode="&#x213;" horiz-adv-x="682" 
d="M597 1277q78 -79 87 -199h-33q-19 57 -71 87q-72 42 -180 42t-181 -43q-42 -25 -76 -86h-31q10 119 88 198q79 82 198 82q118 0 199 -81zM339 737q116 206 236 206h129v-208l-175 1q-119 0 -190 -97v-425q0 -77 19 -115q14 -27 46 -45q33 -18 95 -18v-36h-469v36
q70 0 104 22q24 16 35 51q5 18 5 97v355q0 159 -6 191q-8 31 -24 44q-19 14 -44 14q-31 0 -70 -15l-10 36l277 112h42v-206z" />
    <glyph glyph-name="uni0214" unicode="&#x214;" horiz-adv-x="1479" 
d="M315 1797h187l65 -346h-34zM628 1797h187l66 -346h-33zM1457 1356v-37h-51q-80 0 -123 -67q-21 -32 -21 -144v-550q0 -205 -40 -316q-41 -114 -159 -193q-118 -81 -323 -81q-221 0 -337 77q-115 76 -163 207q-32 90 -32 334v530q0 126 -34 164q-35 39 -112 39h-51v37h586
v-37h-52q-84 0 -120 -53q-25 -35 -25 -150v-591q0 -79 15 -181q13 -100 52 -159q37 -56 110 -94q70 -37 175 -37q134 0 238 58q106 59 144 149q38 91 38 306v549q0 128 -28 159q-39 44 -116 44h-51v37h480z" />
    <glyph glyph-name="uni0215" unicode="&#x215;" 
d="M119 1390h187l65 -346h-34zM432 1390h187l66 -346h-33zM867 364q0 -157 8 -194t24 -50q17 -14 38 -14q30 0 70 17l14 -35l-274 -113h-45v193q-60 -74 -159.5 -121t-193.5 -47h-192v766q0 64 -14 90q-13 25 -41 39q-28 13 -100 12v37h321v-613q0 -126 45 -168
q43 -40 107 -40q57 0 120 30t107 74v545q0 79 -28 106q-29 28 -119 29v37h312v-580z" />
    <glyph glyph-name="uni0216" unicode="&#x216;" horiz-adv-x="1479" 
d="M949 1684q78 -79 87 -199h-33q-19 57 -71 87q-72 42 -180 42t-181 -43q-42 -25 -76 -86h-31q10 119 88 198q79 82 198 82q118 0 199 -81zM1457 1356v-37h-51q-80 0 -123 -67q-21 -32 -21 -144v-550q0 -205 -40 -316q-41 -114 -159 -193q-118 -81 -323 -81q-221 0 -337 77
q-115 76 -163 207q-32 90 -32 334v530q0 126 -34 164q-35 39 -112 39h-51v37h586v-37h-52q-84 0 -120 -53q-25 -35 -25 -150v-591q0 -79 15 -181q13 -100 52 -159q37 -56 110 -94q70 -37 175 -37q134 0 238 58q106 59 144 149q38 91 38 306v549q0 128 -28 159
q-39 44 -116 44h-51v37h480z" />
    <glyph glyph-name="uni0217" unicode="&#x217;" 
d="M697 1277q78 -79 87 -199h-33q-19 57 -71 87q-72 42 -180 42t-181 -43q-42 -25 -76 -86h-31q10 119 88 198q79 82 198 82q118 0 199 -81zM867 364q0 -157 8 -194t24 -50q17 -14 38 -14q30 0 70 17l14 -35l-274 -113h-45v193q-60 -74 -159.5 -121t-193.5 -47h-192v766
q0 64 -14 90q-13 25 -41 39q-28 13 -100 12v37h321v-613q0 -126 45 -168q43 -40 107 -40q57 0 120 30t107 74v545q0 79 -28 106q-29 28 -119 29v37h312v-580z" />
    <glyph glyph-name="uni021C" unicode="&#x21c;" horiz-adv-x="1153" 
d="M966 442q109 -103 109 -255q0 -341 -389 -502q-219 -91 -611 -127v50q772 121 772 577q0 135 -78 229q-78 92 -201 100q-167 -47 -373 -66v50q652 102 652 527q0 137 -81 213q-83 77 -217 77q-332 0 -443 -339h-31l31 411h35q7 -35 37 -65q19 -19 47 -19q13 0 65 23
q51 23 71 31q89 30 204 30q203 0 339 -76q171 -95 171 -284q0 -305 -354 -459q150 -36 245 -126z" />
    <glyph glyph-name="uni021D" unicode="&#x21d;" horiz-adv-x="809" 
d="M489 332q215 -53 215 -287q0 -228 -235 -363q-166 -96 -385 -120v58q177 21 299 122q143 119 143 304q0 214 -147 236q-89 -32 -183 -42v58q330 40 330 368q0 218 -170 218q-178 0 -236 -255h-36v287h42q17 -16 40 -16q19 0 74 16q94 27 155 27q309 0 309 -278
q0 -211 -215 -333z" />
    <glyph glyph-name="uni021E" unicode="&#x21e;" horiz-adv-x="1479" 
d="M455 1783h31l273 -212l229 212h30l-189 -331h-184zM1051 1115q0 105 -13 137q-10 25 -42 43q-44 24 -91 24h-48v37h580v-37h-48q-47 0 -91 -23q-33 -17 -43 -48q-12 -33 -12 -133v-875q0 -104 13 -136q11 -26 41 -43q43 -24 92 -24h48v-37h-580v37h48q84 0 121 49
q25 31 25 154v413h-630v-413q0 -104 13 -136q10 -25 42 -43q44 -24 91 -24h49v-37h-581v37h48q85 0 122 49q24 32 24 154v875q0 105 -13 137q-11 26 -41 43q-44 24 -92 24h-48v37h581v-37h-49q-47 0 -91 -23q-31 -16 -43 -48q-12 -33 -12 -133v-388h630v388z" />
    <glyph glyph-name="uni021F" unicode="&#x21f;" 
d="M231 1793h31l273 -212l229 212h30l-189 -331h-184zM333 751q159 192 305 192h237v-736q0 -85 14 -118q11 -25 36 -39t90 -14v-36h-453v36h19q64 0 90 20q24 19 35 57q4 13 4 94v375q0 124 -32 182q-33 56 -110 56q-119 0 -235 -128v-485q0 -93 11 -117q11 -23 39 -38
q28 -16 98 -16v-36h-454v36q62 0 96 19q21 11 32 38q12 29 12 114v829q0 159 -7 193q-7 35 -23 49q-16 13 -42 13q-23 0 -68 -16l-14 35l274 112h46v-671z" />
    <glyph glyph-name="uni0220" unicode="&#x220;" horiz-adv-x="1331" 
d="M751 -401q165 0 187 76q11 38 11 139v1160q0 113 -6 149q-25 153 -187 153q-151 0 -331 -82v-942q0 -86 5 -114q20 -99 191 -101v-37h-584v37q153 1 182 70q14 36 14 145v852q0 88 -5 115q-13 64 -67 83q-41 14 -124 17v37h388v-82q253 113 411 113q90 0 168 -34
q93 -40 119 -115q18 -54 18 -222v-1202q0 -90 5 -115q23 -99 191 -100v-37h-586v37z" />
    <glyph glyph-name="uni0221" unicode="&#x221;" 
d="M958 -89q94 0 150 -52q57 -53 57 -144q0 -65 -35 -108q-38 -45 -102 -45q-175 0 -263 184q-49 -40 -110 -184h-62q34 169 141 265q-23 83 -23 175v101q-125 -131 -269 -131q-169 0 -276 143q-98 131 -98 305q0 201 119 356q129 168 324 168q120 0 200 -77v169
q0 217 -31 242q-16 13 -40 13q-27 0 -69 -16l-13 35l273 112h45v-1519q37 8 82 8zM535 82q91 0 176 91v472q-14 151 -115 209q-49 28 -97 28q-88 0 -157 -79q-91 -103 -91 -304q0 -153 64 -271q78 -146 220 -146zM1026 -400q34 0 58 25t24 60q0 108 -140 108q-46 0 -86 -10
q24 -183 144 -183z" />
    <glyph glyph-name="uni0222" unicode="&#x222;" horiz-adv-x="1236" 
d="M856 692q308 -66 308 -337q0 -234 -179 -323q-127 -63 -371 -63q-241 0 -367 63q-175 88 -175 323q0 271 308 337q-245 80 -245 297q0 165 148 250q113 66 274 80v-67q-213 -26 -213 -255q0 -159 78 -215q58 -50 195 -50q133 0 196 60q79 63 79 225q0 139 -52 206
q-48 61 -161 96v67q167 -25 280 -102q142 -99 142 -275q0 -237 -245 -317zM614 40q318 0 318 308q0 170 -100 249q-83 66 -215 66q-133 0 -214 -66q-99 -79 -99 -249q0 -308 310 -308z" />
    <glyph glyph-name="uni0223" unicode="&#x223;" 
d="M705 827q117 -48 182 -151q66 -103 66 -241q0 -202 -123 -331q-126 -132 -329 -132q-193 0 -315 125q-117 123 -117 312q0 139 66 248q65 110 180 164q-206 68 -206 317q0 185 223 282l36 -35q-73 -85 -73 -237q0 -285 206 -285q226 0 226 285q0 152 -73 237l36 35
q223 -97 223 -282q0 -239 -208 -311zM544 43q223 0 223 315q0 166 -59 286q-76 154 -227 154q-226 0 -226 -305q0 -166 61 -289q78 -161 228 -161z" />
    <glyph glyph-name="uni0224" unicode="&#x224;" horiz-adv-x="1251" 
d="M962 82q90 0 152 -58q63 -58 64 -145q1 -150 -181 -298l-22 31q82 91 84 190q1 99 -54.5 148.5t-166.5 49.5h-812v37l870 1238h-434q-178 0 -230 -91q-26 -48 -47 -167h-38l28 339h1003l-891 -1274h675z" />
    <glyph glyph-name="uni0225" unicode="&#x225;" horiz-adv-x="909" 
d="M660 67q92 0 153 -51t63 -137q1 -150 -181 -298l-22 31q82 91 84 190q1 99 -54.5 148.5t-165.5 49.5h-496v36l608 810h-300q-80 0 -100 -4q-52 -10 -76 -56q-26 -48 -31 -124h-40l6 254h768v-37l-614 -812h398z" />
    <glyph glyph-name="uni0226" unicode="&#x226;" horiz-adv-x="1479" 
d="M627 1635q0 45 32 77t77 32t77 -32t32 -77t-32 -77t-77 -32t-77 32t-32 77zM320 240q-34 -78 -34 -118q0 -32 30 -54q28 -23 127 -31v-37h-427v37q84 15 110 39q52 49 113 195l477 1116h35l472 -1128q56 -134 104 -176t129 -46v-37h-535v37q82 5 110 27t28 56
q0 46 -40 139l-82 195h-525zM443 528h466l-230 548z" />
    <glyph glyph-name="uni0227" unicode="&#x227;" horiz-adv-x="909" 
d="M334 1228q0 45 32 77t77 32t77 -32t32 -77t-32 -77t-77 -32t-77 32t-32 77zM691 -18q-50 0 -78 34q-29 35 -30 116q-141 -110 -177 -126q-53 -25 -115 -25q-94 0 -156 65t-62 171q0 67 30 116q41 68 143 128q101 60 337 146v36q0 121 -31 180t-118 59q-61 0 -98.5 -42
t-37.5 -105h-186v209l331 -1q121 0 200 -41q59 -32 87 -97q18 -43 18 -176v-311q0 -128 5 -160q4 -29 17 -40q10 -10 26 -10q17 0 28 7q22 14 81 73v-56q-113 -150 -214 -150zM383 97q76 0 200 100v349q-154 -61 -195 -85q-77 -42 -113 -92q-34 -47 -34 -105q0 -73 43 -119
q44 -48 99 -48z" />
    <glyph glyph-name="uni022C" unicode="&#x22c;" horiz-adv-x="1479" 
d="M488 1825h494v-128h-494v128zM1014 1623q1 -73 -49 -120q-49 -48 -122 -48q-53 0 -156 48q-80 37 -105 37q-39 0 -59 -23q-11 -12 -25 -59h-39q3 78 49 121q47 44 120 44q39 0 81 -17l82 -34q82 -32 100 -32q65 0 85 83h38zM292 1210q190 177 457 177q264 0 458 -200
q193 -200 193 -501q0 -309 -195 -513t-472 -204q-280 0 -470 199q-191 200 -191 515q0 323 220 527zM1034 1178q-109 136 -304 136q-182 0 -292 -135q-137 -169 -137 -492q0 -333 142 -511q109 -136 288 -136q191 0 316 149q124 148 124 470q0 347 -137 519z" />
    <glyph glyph-name="uni022D" unicode="&#x22d;" 
d="M830 1401h-638v128h638v-128zM251 1132q-12 -19 -28 -101h-32q5 137 57 198t131 61q42 0 75 -13q44 -16 128 -71q82 -55 122 -55q32 0 57 27q25 28 38 112h31q2 -93 -24 -147q-25 -55 -72 -85q-46 -31 -94 -31q-78 0 -196 80q-62 43 -85 52t-43 9q-41 0 -65 -36zM953 0
h-884v944h884v-944zM544 59q137 0 213 91.5t76 258.5q0 207 -98 341t-254 134q-124 0 -208 -93.5t-84 -246.5q0 -112 29.5 -205.5t79 -153.5t113 -93t133.5 -33z" />
    <glyph glyph-name="uni022E" unicode="&#x22e;" horiz-adv-x="1479" 
d="M627 1635q0 45 32 77t77 32t77 -32t32 -77t-32 -77t-77 -32t-77 32t-32 77zM292 1210q190 177 457 177q264 0 458 -200q193 -200 193 -501q0 -309 -195 -513t-472 -204q-280 0 -470 199q-191 200 -191 515q0 323 220 527zM1034 1178q-109 136 -304 136q-182 0 -292 -135
q-137 -169 -137 -492q0 -333 142 -511q109 -136 288 -136q191 0 316 149q124 148 124 470q0 347 -137 519z" />
    <glyph glyph-name="uni022F" unicode="&#x22f;" 
d="M373 1228q0 45 32 77t77 32t77 -32t32 -77t-32 -77t-77 -32t-77 32t-32 77zM953 0h-884v944h884v-944zM544 59q137 0 213 91.5t76 258.5q0 207 -98 341t-254 134q-124 0 -208 -93.5t-84 -246.5q0 -112 29.5 -205.5t79 -153.5t113 -93t133.5 -33z" />
    <glyph glyph-name="uni0230" unicode="&#x230;" horiz-adv-x="1479" 
d="M488 1825h494v-128h-494v128zM735 1616q36 0 61 -25t25 -61q0 -35 -25 -60t-60 -25q-36 0 -61 25q-26 26 -26 60q0 36 25 61t61 25zM292 1210q190 177 457 177q264 0 458 -200q193 -200 193 -501q0 -309 -195 -513t-472 -204q-280 0 -470 199q-191 200 -191 515
q0 323 220 527zM1034 1178q-109 136 -304 136q-182 0 -292 -135q-137 -169 -137 -492q0 -333 142 -511q109 -136 288 -136q191 0 316 149q124 148 124 470q0 347 -137 519z" />
    <glyph glyph-name="uni0231" unicode="&#x231;" 
d="M830 1401h-638v128h638v-128zM402 1162q0 45 32 77t77 32t77 -32t32 -77t-32 -77t-77 -32t-77 32t-32 77zM953 0h-884v944h884v-944zM544 59q137 0 213 91.5t76 258.5q0 207 -98 341t-254 134q-124 0 -208 -93.5t-84 -246.5q0 -112 29.5 -205.5t79 -153.5t113 -93
t133.5 -33z" />
    <glyph glyph-name="uni0232" unicode="&#x232;" horiz-adv-x="1479" 
d="M1059 1508h-638v128h638v-128zM1449 1319h-26q-25 0 -76 -23t-91 -66q-44 -47 -101 -140l-327 -515v-340q0 -125 28 -156q38 -42 120 -42h44v-37h-576v37h48q86 0 122 52q22 31 22 146v321l-372 568q-62 94 -89 125q-24 25 -98 60q-19 10 -58 10v37h580v-37h-30
q-48 0 -86 -22q-40 -22 -40 -66q0 -36 61 -130l283 -437l266 418q60 94 60 140q0 27 -14 50q-14 21 -42 35q-27 12 -81 12v37h473v-37z" />
    <glyph glyph-name="uni0233" unicode="&#x233;" 
d="M832 1119h-638v128h638v-128zM439 907h-21q-45 0 -67 -19q-23 -20 -23 -49q0 -36 33 -108l223 -490l205 534q17 46 17 81q0 19 -7 27q-11 13 -25 18q-16 6 -60 6v37h298v-37q-39 -5 -57 -16q-20 -13 -44 -45q-7 -11 -34 -77l-373 -942q-52 -132 -141 -201
q-89 -68 -169 -68q-60 0 -97 34q-38 35 -38 78q0 42 28 67q28 26 75 26q34 0 90 -22q40 -15 50 -15q31 0 66 31q35 32 71 120l65 159l-329 719q-16 34 -48 77q-27 37 -41 47q-21 16 -74 28v37h427v-37z" />
    <glyph glyph-name="uni0234" unicode="&#x234;" horiz-adv-x="569" 
d="M461 -89q94 0 150 -52q57 -53 57 -144q0 -65 -35 -108q-37 -45 -102 -45q-175 0 -263 184q-49 -40 -110 -184h-62q34 169 141 265q-24 86 -24 175v1037q0 215 -29 239q-16 13 -40 13q-27 0 -66 -16l-17 35l273 112h45v-1520q37 9 82 9zM529 -400q34 0 58 25t24 60
q0 108 -140 108q-46 0 -86 -10q24 -183 144 -183z" />
    <glyph glyph-name="uni0235" unicode="&#x235;" 
d="M957 -89q94 0 150 -52q57 -53 57 -144q0 -65 -35 -108q-37 -45 -102 -45q-175 0 -263 184q-49 -40 -110 -184h-62q34 169 141 265q-23 83 -23 176v579q0 106 -20 158q-33 80 -122 80q-119 0 -237 -130v-483q0 -91 11 -115q27 -56 138 -56v-36h-453v36h20q78 0 102 50
q17 34 17 121v340q0 225 -30 250q-16 13 -42 13q-28 0 -67 -15l-15 36l276 112h43v-194q161 194 307 194q155 0 215 -161q22 -57 22 -184v-695q37 8 82 8zM1025 -400q34 0 58 25t24 60q0 108 -140 108q-46 0 -86 -10q24 -183 144 -183z" />
    <glyph glyph-name="uni0236" unicode="&#x236;" horiz-adv-x="649" 
d="M412 334q94 0 150 -52q57 -52 57 -144q0 -65 -35 -108q-38 -45 -102 -45q-175 0 -263 184q-68 -56 -105 -169h-62q31 154 136 250q-23 83 -23 166v430h-145v33q123 50 215 199q22 35 64 139h31v-301h214v-70h-214v-518q25 6 82 6zM480 23q34 0 58 26t24 59
q0 108 -140 108q-46 0 -86 -10q24 -183 144 -183z" />
    <glyph glyph-name="uni0237" unicode="&#x237;" horiz-adv-x="569" 
d="M382 21q0 -199 -78 -320q-95 -143 -282 -143q-62 0 -111 21q-68 27 -68 80q0 33 24 59t58 26q26 0 53 -13q20 -9 66 -50q50 -44 81 -44q61 0 81 81q11 46 11 188v652q0 150 -9 194q-12 58 -63 58q-27 0 -68 -15l-14 36l276 112h43v-922z" />
    <glyph glyph-name="uni0238" unicode="&#x238;" horiz-adv-x="1585" 
d="M1429 797q85 -127 85 -304q0 -245 -162 -393q-140 -128 -310 -128q-182 0 -331 120q-116 -120 -269 -120q-169 0 -276 143q-98 131 -98 305q0 201 119 356q129 168 324 168q120 0 200 -77v170q0 216 -31 241q-16 13 -40 13q-39 0 -70 -16l-14 35l275 112h45v-664
q134 185 287 185q168 0 266 -146zM535 82q101 0 176 80v483q-14 151 -115 209q-49 28 -97 28q-88 0 -157 -79q-91 -103 -91 -304q0 -153 64 -271q78 -146 220 -146zM1287 186q54 111 54 250q0 138 -58 241q-70 124 -199 124q-54 0 -106 -27q-39 -19 -102 -80v-548
q104 -101 217 -101q127 0 194 141z" />
    <glyph glyph-name="uni0239" unicode="&#x239;" horiz-adv-x="1582" 
d="M1399 835q113 -133 113 -344q0 -238 -136 -392q-112 -127 -282 -127q-72 0 -128 21q-40 17 -90 60v-279q0 -71 4 -90q11 -51 48 -70q28 -15 103 -15v-37h-480v37h25q56 0 94 21q12 8 18 15q15 21 20 71q2 34 2 74v379q-157 -187 -300 -187q-160 0 -257 148
q-85 128 -85 297q0 216 125 367q133 159 346 159q115 0 191 -64q61 30 111 64h35v-218q128 218 293 218q139 0 230 -108zM514 113q111 0 196 109v430q0 138 -89 191q-49 30 -113 30q-141 0 -214 -127q-58 -103 -58 -256q0 -149 62 -253q75 -124 216 -124zM1253 110
q81 102 81 287q0 210 -92 323q-64 78 -152 78q-48 0 -95 -24q-37 -18 -119 -108v-342q0 -110 9 -146q16 -67 77 -108q58 -38 129 -38q101 0 162 78z" />
    <glyph glyph-name="uni023A" unicode="&#x23a;" horiz-adv-x="1479" 
d="M921 37q138 7 138 83q0 46 -40 139l-82 195h-349l-257 -396q35 -15 112 -21v-37h-150l-35 -54h-89l35 54h-188v37q84 15 110 39q50 47 113 195l477 1116h35l139 -332l214 329h89l-268 -412l298 -713q46 -110 82 -153q56 -63 151 -69v-37h-535v37zM443 528h104l220 338
l-88 210zM636 528h273l-107 255zM320 240q-33 -78 -34 -114l213 328h-87z" />
    <glyph glyph-name="uni023B" unicode="&#x23b;" horiz-adv-x="1366" 
d="M1295 318q-196 -349 -561 -349q-162 0 -288 57l-78 -159h-89l97 197q-93 59 -164 155q-138 186 -138 438q0 199 87 365q90 176 255 272q159 93 348 93q124 0 239 -48l70 142h89l-87 -176q27 -12 39 -12q62 0 84 94h35l31 -461h-31q-65 218 -192 309l-534 -1085
q127 -93 302 -93q151 0 264 77q86 60 191 204zM972 1276q-86 39 -192 39q-295 0 -415 -287q-63 -152 -63 -373q0 -295 143 -450z" />
    <glyph glyph-name="uni023C" unicode="&#x23c;" 
d="M900 349q-47 -188 -163 -292q-90 -81 -221 -81q-80 0 -162 35l-142 -390h-70l155 427q-81 77 -117 154q-51 110 -51 250q0 254 157 390q120 105 273 105q25 0 61 -4l140 383h72l-145 -402q101 -45 138 -87q48 -54 48 -115q0 -40 -24 -62q-25 -23 -70 -23q-54 0 -86 38
q-19 23 -26 82q-5 34 -17 65l-228 -631q54 -37 94 -51q27 -10 69 -10q60 0 117 26t85 60q31 37 83 146zM289 535q0 -75 18 -138q17 -63 63 -147l223 615q-29 12 -60 12q-102 0 -162 -74q-82 -100 -82 -268z" />
    <glyph glyph-name="uni023D" unicode="&#x23d;" horiz-adv-x="1251" 
d="M41 0v37h51q85 0 123 56q21 31 21 148v437h-195v74h195v364q0 128 -28 159q-39 44 -116 44h-51v37h614v-37q-174 1 -211 -73q-16 -31 -16 -153v-341h394v-74h-394v-437q0 -85 16 -114q17 -33 89 -41h203q130 0 182 13q89 21 152 92q50 56 104 184l33 -7l-116 -368h-1050z
" />
    <glyph glyph-name="uni023E" unicode="&#x23e;" horiz-adv-x="1251" 
d="M1162 1038q-10 84 -30 120q-34 64 -93 91l-316 -486v-528q0 -126 27 -156q38 -42 117 -42h47v-37h-575v37h48q86 0 122 52q22 31 22 146v232l-339 -521h-89l428 658v667h-163q-95 0 -135 -14q-119 -43 -133 -219h-38l16 318h942l18 28h89l-18 -28h76l15 -318h-38z
M963 1268q-26 3 -49 3h-191v-371z" />
    <glyph glyph-name="uni023F" unicode="&#x23f;" horiz-adv-x="797" 
d="M658 -252q67 0 67 -73q0 -117 -173 -117q-170 0 -237 177l-62 165q-42 112 -78 112q-24 0 -38 -26h-33v327h33q24 -119 92 -196q77 -86 192 -86q65 0 108 37q48 39 48 101q0 84 -85 148q-34 26 -155 87q-118 57 -166 103q-71 68 -71 171q0 118 81 192q77 73 197 73
q53 0 131 -23q51 -15 68 -15q26 0 46 38h33v-312h-33q-31 123 -77 179q-62 74 -172 74q-58 0 -103 -30q-53 -35 -53 -89q0 -106 158 -183l146 -71q203 -99 203 -261q0 -122 -94 -201q-89 -77 -212 -77q-61 0 -132 15q9 -19 25 -60l56 -153q53 -146 137 -146q33 0 78 67
q32 53 75 53z" />
    <glyph glyph-name="uni023F" unicode="&#x2c7e;" horiz-adv-x="797" 
d="M658 -252q67 0 67 -73q0 -117 -173 -117q-170 0 -237 177l-62 165q-42 112 -78 112q-24 0 -38 -26h-33v327h33q24 -119 92 -196q77 -86 192 -86q65 0 108 37q48 39 48 101q0 84 -85 148q-34 26 -155 87q-118 57 -166 103q-71 68 -71 171q0 118 81 192q77 73 197 73
q53 0 131 -23q51 -15 68 -15q26 0 46 38h33v-312h-33q-31 123 -77 179q-62 74 -172 74q-58 0 -103 -30q-53 -35 -53 -89q0 -106 158 -183l146 -71q203 -99 203 -261q0 -122 -94 -201q-89 -77 -212 -77q-61 0 -132 15q9 -19 25 -60l56 -153q53 -146 137 -146q33 0 78 67
q32 53 75 53z" />
    <glyph glyph-name="uni0240" unicode="&#x240;" horiz-adv-x="909" 
d="M809 -252q67 0 67 -73q0 -117 -173 -117q-89 0 -148 49q-44 36 -95 128l-84 153q-61 112 -132 112h-203v36l608 810h-300q-80 0 -100 -4q-52 -10 -76 -56q-26 -48 -31 -124h-40l6 254h768v-37l-614 -812q100 0 175 -140l82 -153q73 -136 140 -136q32 0 70 56q37 54 80 54
z" />
    <glyph glyph-name="uni0240" unicode="&#x2c7f;" horiz-adv-x="909" 
d="M809 -252q67 0 67 -73q0 -117 -173 -117q-89 0 -148 49q-44 36 -95 128l-84 153q-61 112 -132 112h-203v36l608 810h-300q-80 0 -100 -4q-52 -10 -76 -56q-26 -48 -31 -124h-40l6 254h768v-37l-614 -812q100 0 175 -140l82 -153q73 -136 140 -136q32 0 70 56q37 54 80 54
z" />
    <glyph glyph-name="uni0241" unicode="&#x241;" horiz-adv-x="1093" 
d="M492 1420q241 0 384 -128q143 -129 143 -348q0 -403 -416 -490v-239q0 -149 55 -167q27 -8 102 -11v-37h-461v37q109 0 129 57q9 27 9 121v390h42q163 0 271 122q107 119 107 293q0 139 -85 231q-93 102 -247 102q-88 0 -155 -40q-68 -41 -72 -99q-11 -119 -112 -119
q-93 0 -93 85q0 102 137 174q123 66 262 66z" />
    <glyph glyph-name="uni0241" unicode="&#x242;" horiz-adv-x="1093" 
d="M492 1420q241 0 384 -128q143 -129 143 -348q0 -403 -416 -490v-239q0 -149 55 -167q27 -8 102 -11v-37h-461v37q109 0 129 57q9 27 9 121v390h42q163 0 271 122q107 119 107 293q0 139 -85 231q-93 102 -247 102q-88 0 -155 -40q-68 -41 -72 -99q-11 -119 -112 -119
q-93 0 -93 85q0 102 137 174q123 66 262 66z" />
    <glyph glyph-name="uni0246" unicode="&#x246;" horiz-adv-x="1251" 
d="M337 0l-29 -54h-89l29 54h-206v37h48q46 0 90 23q42 22 53 79q3 19 3 100v881q0 130 -26 159q-34 40 -120 40h-48v37h941l15 28h89l-15 -28h15l15 -297h-39q-21 109 -46 147q-3 5 -16 20l-260 -480q102 1 140 35q52 46 58 162h37v-472h-37q-13 97 -28 127q-37 75 -185 75
h-24l-274 -504q0 -38 8 -52q18 -43 104 -43h230q101 0 144 10q70 16 123 69q61 61 127 187h40l-117 -340h-750zM936 1269q-38 13 -136 13h-372v-536h224zM428 332l185 341h-185v-341z" />
    <glyph glyph-name="uni0247" unicode="&#x247;" horiz-adv-x="909" 
d="M851 334q-22 -147 -123 -251q-108 -111 -252 -111q-77 0 -143 28l-131 -379h-70l142 410q-36 23 -80 70q-118 128 -118 345q0 210 104 347q115 151 319 151q45 0 86 -9l135 391h72l-142 -412q55 -24 102 -71q99 -101 99 -272h-320l-135 -390q70 -46 156 -46
q186 0 268 219zM552 838q-53 35 -109 35q-96 0 -159 -76q-56 -67 -66 -168h262zM642 629q-4 88 -21 124q-9 19 -17 31l-53 -155h91zM218 571q-2 -223 123 -345l119 345h-242z" />
    <glyph glyph-name="uni0248" unicode="&#x248;" horiz-adv-x="797" 
d="M591 453q0 -139 -26 -226q-35 -111 -123 -187q-83 -71 -198 -71q-77 0 -135 37q-67 43 -67 116q0 105 102 105q48 0 79 -46q14 -19 43 -87q22 -54 59 -54q74 0 74 150v488h-195v74h195v364q0 104 -13 136q-27 67 -133 67h-49v37h581v-37h-49q-84 0 -121 -49
q-24 -32 -24 -154v-364h194v-74h-194v-225z" />
    <glyph glyph-name="uni0249" unicode="&#x249;" horiz-adv-x="569" 
d="M296 1423q43 0 73 -30t30 -73q0 -44 -30 -72q-30 -30 -73 -30q-42 0 -72 30t-30 72q0 43 30 73q28 30 72 30zM382 21q0 -199 -78 -320q-95 -143 -282 -143q-62 0 -111 21q-68 27 -68 80q0 33 24 59t58 26q26 0 53 -13q20 -9 66 -50q50 -44 81 -44q61 0 81 81
q11 46 11 188v532h-170v74h170v46q0 150 -9 194q-12 58 -63 58q-27 0 -68 -15l-14 36l276 112h43v-431h168v-74h-168v-417z" />
    <glyph glyph-name="uni024A" unicode="&#x24a;" horiz-adv-x="1438" 
d="M1539 -256q35 0 59 -25q23 -26 23 -60q0 -51 -72 -80q-54 -21 -117 -21q-200 0 -285 96q-92 103 -92 349q-151 -34 -321 -34q-338 0 -522 250q-138 186 -138 438q0 197 88 367q89 170 247 267q157 96 352 96q68 0 166 -20q95 -21 127 -21q50 0 153 41h40v-1477
q0 -218 45 -254q23 -19 47 -19q30 0 75 39q54 47 72 55q29 13 53 13zM809 57q114 0 246 52v997q0 96 -14 119q-22 34 -107 62q-84 28 -164 28q-285 0 -405 -287q-63 -152 -63 -373q0 -382 237 -526q119 -72 270 -72z" />
    <glyph glyph-name="uni024A" unicode="&#x24b;" horiz-adv-x="1438" 
d="M1539 -256q35 0 59 -25q23 -26 23 -60q0 -51 -72 -80q-54 -21 -117 -21q-200 0 -285 96q-92 103 -92 349q-151 -34 -321 -34q-338 0 -522 250q-138 186 -138 438q0 197 88 367q89 170 247 267q157 96 352 96q68 0 166 -20q95 -21 127 -21q50 0 153 41h40v-1477
q0 -218 45 -254q23 -19 47 -19q30 0 75 39q54 47 72 55q29 13 53 13zM809 57q114 0 246 52v997q0 96 -14 119q-22 34 -107 62q-84 28 -164 28q-285 0 -405 -287q-63 -152 -63 -373q0 -382 237 -526q119 -72 270 -72z" />
    <glyph glyph-name="uni024C" unicode="&#x24c;" horiz-adv-x="682" 
d="M655 913q40 -31 40 -81q0 -39 -25 -65q-25 -28 -63 -28q-30 0 -77 35q-46 34 -66 34q-16 0 -39 -20q-47 -42 -93 -135v-141h170v-74h-170v-224q0 -96 35 -137t125 -41v-36h-469v36q118 0 139 73q5 18 5 97v232h-144v74h144v170q-3 92 -30 114q-17 14 -44 14
q-31 0 -70 -15l-10 36l277 112h42v-206q116 206 236 206q51 0 87 -30z" />
    <glyph glyph-name="uni024C" unicode="&#x24d;" horiz-adv-x="682" 
d="M655 913q40 -31 40 -81q0 -39 -25 -65q-25 -28 -63 -28q-30 0 -77 35q-46 34 -66 34q-16 0 -39 -20q-47 -42 -93 -135v-141h170v-74h-170v-224q0 -96 35 -137t125 -41v-36h-469v36q118 0 139 73q5 18 5 97v232h-144v74h144v170q-3 92 -30 114q-17 14 -44 14
q-31 0 -70 -15l-10 36l277 112h42v-206q116 206 236 206q51 0 87 -30z" />
    <glyph glyph-name="uni024E" unicode="&#x24e;" horiz-adv-x="1479" 
d="M828 575v-340q0 -125 28 -156q38 -42 120 -42h44v-37h-576v37h48q86 0 122 52q22 31 22 146v321l-288 439h-329v74h281l-36 55q-60 93 -77 111q-35 38 -110 74q-20 10 -58 10v37h580v-37h-30q-48 0 -83 -20q-43 -24 -43 -68q0 -36 61 -130l21 -32h520l8 13q60 94 60 140
q0 59 -56 85q-25 12 -81 12v37h473v-37h-26q-81 0 -167 -89q-37 -38 -101 -140l-13 -21h307v-74h-354zM787 664l211 331h-425z" />
    <glyph glyph-name="uni024F" unicode="&#x24f;" 
d="M504 -173q-42 -105 -118 -181q-89 -88 -192 -88q-51 0 -91 29q-44 33 -44 83q0 93 103 93q33 0 90 -22q39 -15 50 -15q76 0 137 151l65 159l-239 502h-253v74h218l-55 115q-14 31 -48 77q-26 36 -41 47q-22 16 -74 28v37h427v-37h-21q-90 0 -90 -68q0 -41 33 -108l44 -91
h329l55 135q17 43 17 81q0 33 -32 45q-16 6 -60 6v37h298v-37q-64 -8 -101 -61q-4 -6 -34 -77l-53 -129h188v-74h-218zM584 241l120 297h-263z" />
    <glyph glyph-name="uni026B" unicode="&#x26b;" horiz-adv-x="1251" 
d="M41 0v37h51q85 0 123 56q21 31 21 148v388q-64 29 -101 29q-80 0 -93 -97h-32q6 219 188 219q23 0 38 -3v339q0 128 -28 159q-39 44 -116 44h-51v37h614v-37q-174 1 -211 -73q-16 -31 -16 -153v-381q80 -31 105 -31q79 0 95 99h31q0 -223 -190 -223q-20 0 -41 3v-319
q0 -85 16 -114q17 -33 89 -41h203q130 0 182 13q89 21 152 92q50 56 104 184l33 -7l-116 -368h-1050z" />
    <glyph glyph-name="uni026B" unicode="&#x2c62;" horiz-adv-x="1251" 
d="M41 0v37h51q85 0 123 56q21 31 21 148v388q-64 29 -101 29q-80 0 -93 -97h-32q6 219 188 219q23 0 38 -3v339q0 128 -28 159q-39 44 -116 44h-51v37h614v-37q-174 1 -211 -73q-16 -31 -16 -153v-381q80 -31 105 -31q79 0 95 99h31q0 -223 -190 -223q-20 0 -41 3v-319
q0 -85 16 -114q17 -33 89 -41h203q130 0 182 13q89 21 152 92q50 56 104 184l33 -7l-116 -368h-1050z" />
    <glyph glyph-name="uni0277" unicode="&#x277;" horiz-adv-x="1348" 
d="M1088 826q187 -138 187 -406q0 -176 -78 -301q-93 -147 -260 -147q-184 0 -262 198q-87 -198 -266 -198q-161 0 -255 150q-79 127 -79 298q0 268 188 406q159 117 412 117t413 -117zM906 43q186 0 186 395q0 210 -113 326q-113 114 -304 114t-304 -114
q-113 -116 -113 -326q0 -395 180 -395q88 0 141 74q28 41 68 150q-63 132 -63 279q0 223 91 223t91 -206q0 -141 -66 -296q72 -224 206 -224z" />
    <glyph glyph-name="uni027C" unicode="&#x27c;" horiz-adv-x="682" 
d="M655 913q40 -31 40 -81q0 -39 -25 -65q-25 -28 -63 -28q-30 0 -77 35q-46 34 -66 34q-16 0 -39 -20q-47 -42 -93 -135v-877q0 -96 35 -137t125 -41v-36h-469v36q118 0 139 73q5 18 5 97v914q-5 92 -31 114q-17 14 -44 14q-31 0 -70 -15l-10 36l278 112h42v-206
q116 206 236 206q51 0 87 -30z" />
    <glyph glyph-name="uni027D" unicode="&#x27d;" horiz-adv-x="682" 
d="M624 -256q35 0 59 -25q23 -26 23 -60q0 -53 -68 -80q-50 -21 -111 -21q-159 0 -260 114q-100 113 -100 354v656q-3 92 -30 114q-17 14 -44 14q-31 0 -70 -15l-10 36l277 112h42v-206q116 206 236 206q51 0 87 -30q40 -31 40 -81q0 -39 -25 -65q-25 -28 -63 -28
q-30 0 -77 35q-46 34 -66 34q-16 0 -39 -20q-47 -42 -93 -135v-746q0 -215 45 -251q23 -19 47 -19q31 0 76 39q53 46 71 55q27 13 53 13z" />
    <glyph glyph-name="uni027D" unicode="&#x2c64;" horiz-adv-x="682" 
d="M624 -256q35 0 59 -25q23 -26 23 -60q0 -53 -68 -80q-50 -21 -111 -21q-159 0 -260 114q-100 113 -100 354v656q-3 92 -30 114q-17 14 -44 14q-31 0 -70 -15l-10 36l277 112h42v-206q116 206 236 206q51 0 87 -30q40 -31 40 -81q0 -39 -25 -65q-25 -28 -63 -28
q-30 0 -77 35q-46 34 -66 34q-16 0 -39 -20q-47 -42 -93 -135v-746q0 -215 45 -251q23 -19 47 -19q31 0 76 39q53 46 71 55q27 13 53 13z" />
    <glyph glyph-name="uni027F" unicode="&#x27f;" horiz-adv-x="682" 
d="M190 -402q110 0 141 63q19 38 19 115v957q0 145 -122 145q-52 0 -93 -74q-41 -75 -80 -75q-68 0 -68 73q0 52 55 92q64 49 176 49q146 0 229 -132q68 -110 68 -250v-793q0 -79 5 -97q21 -73 139 -73v-36h-469v36z" />
    <glyph glyph-name="uni0285" unicode="&#x285;" horiz-adv-x="893" 
d="M911 -190q31 0 57 -26q25 -25 25 -57q0 -56 -58 -101q-89 -68 -193 -68q-108 0 -200 57q-91 57 -138 155q-44 96 -44 232v503q0 168 -1 179q-11 126 -59 163q-32 24 -78 24q-75 0 -137 -92q-60 -88 -111 -88q-30 0 -56 27q-26 26 -26 56q0 56 58 101q89 68 193 68
q110 0 202 -56q89 -55 136 -156q44 -96 44 -234v-501q0 -167 1 -178q11 -126 59 -163q32 -25 78 -25q74 0 137 93q58 87 111 87z" />
    <glyph glyph-name="uni0286" unicode="&#x286;" horiz-adv-x="682" 
d="M835 1352q58 -45 58 -101q0 -30 -26 -56q-25 -27 -56 -27q-51 0 -111 88q-62 92 -137 92q-97 0 -124 -100q-14 -54 -14 -266v-980q0 -92 -23 -175q107 -96 141 -265h-62q-17 39 -36 76q-42 82 -74 108q-88 -184 -263 -184q-58 0 -96 39q-41 43 -41 114q0 88 55 142
t152 54q44 0 82 -9v1072q0 272 179 388q89 58 203 58q104 0 193 -68zM110 -380q120 0 144 183q-40 10 -86 10q-140 0 -140 -108q0 -32 22 -57q24 -28 60 -28z" />
    <glyph glyph-name="uni0287" unicode="&#x287;" horiz-adv-x="569" 
d="M572 310q-123 -50 -215 -199q-22 -35 -64 -139h-31v301h-214v70h214v594q0 151 -91 151q-78 0 -112 -81h-39q71 197 231 197q111 0 155 -98q21 -48 21 -147v-616h145v-33z" />
    <glyph glyph-name="uni0287" unicode="&#xa7b1;" horiz-adv-x="569" 
d="M572 310q-123 -50 -215 -199q-22 -35 -64 -139h-31v301h-214v70h214v594q0 151 -91 151q-78 0 -112 -81h-39q71 197 231 197q111 0 155 -98q21 -48 21 -147v-616h145v-33z" />
    <glyph glyph-name="uni0293" unicode="&#x293;" horiz-adv-x="909" 
d="M471 405q142 -26 230 -115q104 -106 104 -274q0 -153 -89 -289q28 -45 54 -137l-40 -28q-12 37 -50 118q-105 -118 -262 -118q-159 0 -263 86q-95 80 -95 185q0 173 250 173q168 0 292 -117q42 87 42 184q0 109 -75 181q-99 96 -307 96v36l360 460h-310q-80 0 -100 -4
q-52 -10 -76 -56q-26 -48 -31 -124h-40l6 254h768v-37zM346 -282q146 0 225 117q-115 108 -261 108q-173 0 -173 -107q0 -47 48 -80q56 -38 161 -38z" />
    <glyph glyph-name="uni0296" unicode="&#x296;" horiz-adv-x="909" 
d="M503 938q336 -70 336 -480q0 -200 -117 -339q-124 -147 -320 -147q-105 0 -200 56q-109 64 -109 164q0 85 93 85q101 0 112 -119t137 -119q122 0 187 110q55 91 55 223q0 158 -66 274q-83 141 -232 141h-42v418q0 73 -2 91q-7 52 -46 72q-31 15 -90 15v37h461v-37
q-62 -3 -80 -5q-43 -9 -61 -44q-16 -31 -16 -129v-267z" />
    <glyph glyph-name="uni0297" unicode="&#x297;" horiz-adv-x="909" 
d="M842 -66q-32 -158 -126 -260q-107 -116 -258 -116q-185 0 -292 134q-96 122 -96 306v503q0 185 96 307q106 135 292 135q151 0 258 -116q94 -102 126 -260l-29 -14q-100 234 -283 234q-149 0 -226 -98q-68 -88 -68 -231v-415q0 -143 68 -231q77 -98 226 -98
q182 0 283 234z" />
    <glyph glyph-name="uni029A" unicode="&#x29a;" horiz-adv-x="907" 
d="M715 793q123 -143 123 -340t-123 -336q-127 -145 -322 -145q-127 0 -218 59q-106 70 -106 198q0 159 177 222q-177 63 -177 224q0 128 106 203q92 65 218 65q193 0 322 -150zM627 186q138 82 138 265t-138 266q-98 59 -235 59q-94 0 -164 -38q-77 -44 -77 -111
q0 -56 77 -100q76 -45 172 -45q15 0 58 5q42 5 58 5q61 0 61 -39q0 -41 -61 -41q-16 0 -58 5q-43 5 -58 5q-95 0 -172 -44t-77 -101q0 -71 77 -112q68 -36 164 -36q138 0 235 57z" />
    <glyph glyph-name="uni029E" unicode="&#x29e;" 
d="M689 -442v847l-233 -212q-73 -67 -86 -86q-8 -13 -8 -24q0 -46 71 -51v-32h-398v32q145 5 256 107l235 217l-235 297q-95 119 -132 156q-50 48 -84 61q-24 10 -87 10v36h445v-36q-65 -2 -65 -41q0 -24 40 -74l281 -359v304q0 132 -48 157q-21 11 -100 13v36h466v-36
q-113 0 -137 -51q-15 -31 -15 -114v-770q0 -217 30 -243q17 -14 42 -14q20 0 63 17l17 -35l-272 -112h-46z" />
    <glyph glyph-name="uni029E" unicode="&#xa7b0;" 
d="M689 -442v847l-233 -212q-73 -67 -86 -86q-8 -13 -8 -24q0 -46 71 -51v-32h-398v32q145 5 256 107l235 217l-235 297q-95 119 -132 156q-50 48 -84 61q-24 10 -87 10v36h445v-36q-65 -2 -65 -41q0 -24 40 -74l281 -359v304q0 132 -48 157q-21 11 -100 13v36h466v-36
q-113 0 -137 -51q-15 -31 -15 -114v-770q0 -217 30 -243q17 -14 42 -14q20 0 63 17l17 -35l-272 -112h-46z" />
    <glyph glyph-name="uni02A0" unicode="&#x2a0;" 
d="M1285 1352q58 -45 58 -101q0 -30 -26 -56q-25 -27 -56 -27q-51 0 -111 88q-62 92 -137 92q-97 0 -124 -100q-14 -54 -14 -265v-1218q0 -68 4 -85q11 -48 46 -67q26 -14 99 -14v-37h-462v37h19q93 0 117 56q12 28 12 110v394q-157 -187 -300 -187q-160 0 -257 148
q-85 128 -85 297q0 216 125 367q133 159 346 159q91 0 171 -53v86q0 270 179 386q89 58 203 58q104 0 193 -68zM514 113q111 0 196 109v430q0 138 -89 191q-49 30 -113 30q-141 0 -214 -127q-58 -103 -58 -256q0 -149 62 -253q75 -124 216 -124z" />
    <glyph glyph-name="uni02A3" unicode="&#x2a3;" horiz-adv-x="1643" 
d="M1330 67q83 0 116 9q59 17 87 70q17 32 27 135h34l-11 -281h-696q-89 0 -130 -28h-46v131q-125 -131 -269 -131q-169 0 -276 143q-98 131 -98 305q0 201 119 356q129 168 324 168q120 0 200 -77v169q0 217 -31 242q-16 13 -40 13q-27 0 -69 -16l-13 35l273 112h45v-506
h734v-37l-614 -812h334zM535 82q91 0 176 91v472q-14 151 -115 209q-49 28 -97 28q-88 0 -157 -79q-91 -103 -91 -304q0 -153 64 -271q78 -146 220 -146zM1083 846q-110 0 -156 -35q-51 -41 -51 -149v-491l507 675h-300z" />
    <glyph glyph-name="uni02A5" unicode="&#x2a5;" horiz-adv-x="1747" 
d="M1513 355q230 0 230 -173q0 -92 -89 -140q-76 -42 -199 -42h-293q-39 -73 -62 -138l-64 27q6 18 47 111h-198q-88 0 -128 -28h-46v131q-125 -131 -269 -131q-169 0 -276 143q-98 131 -98 305q0 201 119 356q129 168 324 168q120 0 200 -77v169q0 217 -31 242
q-16 13 -40 13q-27 0 -69 -16l-13 35l273 112h45v-506h734v-37l-614 -812h123q166 288 394 288zM535 82q91 0 176 91v472q-14 151 -115 209q-49 28 -97 28q-88 0 -157 -79q-91 -103 -91 -304q0 -153 64 -271q78 -146 220 -146zM1083 846q-110 0 -156 -35q-51 -41 -51 -149
v-491l507 675h-300zM1620 105q46 31 46 80q0 107 -153 107q-169 0 -312 -225h257q106 0 162 38z" />
    <glyph glyph-name="uni02A6" unicode="&#x2a6;" horiz-adv-x="1157" 
d="M882 511q203 -99 203 -256q0 -120 -94 -190q-86 -65 -212 -65h-438q-176 0 -176 230v616h-145v33q123 50 215 199q22 35 64 139h31v-301h278q57 27 130 27q53 0 131 -23q51 -15 68 -15q26 0 46 38h33v-312h-33q-31 123 -77 179q-62 74 -172 74q-58 0 -103 -30
q-53 -35 -53 -89q0 -106 158 -183zM779 59q158 0 158 115q0 63 -47 110q-43 43 -199 122q-142 72 -185 128q-46 58 -46 144q0 98 58 168h-188v-636q0 -151 91 -151h358z" />
    <glyph glyph-name="uni02A8" unicode="&#x2a8;" horiz-adv-x="1329" 
d="M986 416q250 0 250 -173q0 -105 -95 -185q-104 -86 -263 -86q-80 0 -163 46q-79 43 -129 110q-140 -143 -245 -143q-176 0 -176 245v616h-145v33q123 50 215 199q22 35 64 139h31v-301h214v-70h-214v-594q0 -151 91 -151q48 0 134 77q-65 121 -65 279q0 199 117 339
q125 147 320 147q105 0 200 -56q109 -64 109 -164q0 -85 -93 -85q-100 0 -111 119t-138 119q-122 0 -187 -110q-55 -91 -55 -223q0 -131 53 -242q122 115 281 115zM1111 166q48 33 48 80q0 107 -173 107q-138 0 -250 -106q83 -119 214 -119q105 0 161 38z" />
    <glyph glyph-name="uni02A9" unicode="&#x2a9;" horiz-adv-x="1613" 
d="M1475 21q0 -200 -78 -320q-93 -143 -282 -143q-61 0 -111 21q-68 27 -68 80q0 33 24 59t58 26q46 0 114 -59q56 -48 86 -48q69 0 87 110q5 38 5 159v676q0 105 -20 157q-32 81 -121 81q-123 0 -238 -130v-483q0 -95 17 -126q26 -44 111 -44h21v-37h-453v37h20
q77 0 102 49q17 34 17 121v548q-11 89 -73 89h-271v-602q0 -128 28 -162q38 -44 99 -44h23v-36h-487v36h41q92 0 119 74q12 33 12 132v602h-178v72h178v60q0 270 179 386q89 58 203 58q104 0 193 -68q58 -45 58 -101q0 -30 -26 -56q-26 -27 -56 -27q-51 0 -111 88
q-62 92 -137 92q-97 0 -124 -100q-14 -54 -14 -266v-66h345q71 0 121 27h43v-194q161 194 308 194q236 0 236 -345v-577z" />
    <glyph glyph-name="uni02AA" unicode="&#x2aa;" horiz-adv-x="1159" 
d="M884 511q203 -99 203 -261q0 -132 -111 -209q-99 -69 -245 -69q-87 0 -192 27t-124 27q-22 0 -36 -26h-301v36q98 0 122 56q13 29 13 115v832q0 215 -29 239q-16 13 -40 13q-27 0 -66 -16l-17 35l273 112h45v-1095q0 -131 100 -213q101 -83 254 -83q74 0 133 32
q73 39 73 106q0 84 -85 148q-34 26 -155 87q-118 57 -166 103q-71 68 -71 171q0 118 80 192q79 73 198 73q53 0 131 -23q51 -15 68 -15q26 0 46 38h33v-312h-33q-31 123 -77 179q-62 74 -172 74q-58 0 -103 -30q-53 -35 -53 -89q0 -106 158 -183z" />
    <glyph glyph-name="uni02AB" unicode="&#x2ab;" horiz-adv-x="1146" 
d="M833 67q83 0 116 9q59 17 87 70q16 32 27 135h34l-11 -281h-1008v36q98 0 122 56q13 29 13 115v832q0 215 -29 239q-16 13 -40 13q-27 0 -66 -16l-17 35l273 112h45v-506h734v-37l-614 -812h334zM586 846q-80 0 -100 -4q-52 -10 -76 -56q-31 -56 -31 -124v-491l507 675
h-300z" />
    <glyph glyph-name="uni02AC" unicode="&#x2ac;" horiz-adv-x="1053" 
d="M1033 1330q-62 -9 -90 -82l-214 -552h-29l-160 409l-187 -409h-26l-205 539q-18 47 -36 65q-21 20 -66 30v26h269v-26q-60 -4 -60 -43q0 -21 12 -52l137 -369l138 300l-37 94q-17 42 -44 59q-16 10 -57 11v26h305v-26q-85 -4 -85 -53q0 -14 5 -29l146 -368l135 355
q14 39 14 60q0 18 -20 27q-11 6 -47 8v26h202v-26zM1033 606q-62 -9 -90 -82l-214 -552h-29l-160 409l-187 -409h-26l-205 539q-18 47 -36 65q-21 20 -66 30v26h269v-26q-60 -4 -60 -43q0 -21 12 -52l137 -369l138 300l-37 94q-17 42 -44 59q-16 10 -57 11v26h305v-26
q-85 -4 -85 -53q0 -14 5 -29l146 -368l135 355q14 39 14 60q0 18 -20 27q-11 6 -47 8v26h202v-26z" />
    <glyph glyph-name="uni02AD" unicode="&#x2ad;" horiz-adv-x="985" 
d="M887 935q0 247 -194 247h-401q-194 0 -194 -247h-38v421h865v-421h-38zM887 0q0 247 -194 247h-401q-194 0 -194 -247h-38v421h865v-421h-38z" />
    <glyph glyph-name="uni02AE" unicode="&#x2ae;" horiz-adv-x="1279" 
d="M946 -442v606q-174 -191 -306 -191q-165 0 -217 178q-19 63 -19 234v209q0 143 -11 189q-19 81 -81 81q-30 0 -75 -39q-54 -47 -72 -55q-29 -13 -53 -13q-34 0 -58 26q-24 25 -24 59q0 51 68 80q52 21 111 21q189 0 282 -143q79 -119 79 -319v-96q0 -101 5 -143
q19 -148 142 -148q106 0 229 131v484q0 74 -2 88q-8 47 -47 68q-29 15 -99 15v36h454v-36q-61 0 -96 -19q-44 -23 -44 -152v-765q0 -217 31 -242q16 -13 41 -13q23 0 68 16l14 -35l-274 -112h-46z" />
    <glyph glyph-name="uni02AF" unicode="&#x2af;" horiz-adv-x="1261" 
d="M1404 -256q37 0 59 -25q23 -25 23 -60q0 -51 -68 -80q-52 -21 -111 -21q-189 0 -282 144q-79 121 -79 319v143q-174 -191 -306 -191q-165 0 -217 178q-19 63 -19 234v209q0 143 -11 189q-19 81 -81 81q-30 0 -75 -39q-54 -47 -72 -55q-29 -13 -53 -13q-34 0 -58 26
q-24 25 -24 59q0 51 68 80q52 21 111 21q189 0 282 -143q79 -119 79 -319v-96q0 -101 5 -143q19 -148 142 -148q106 0 229 131v484q0 74 -2 88q-8 47 -47 68q-29 15 -99 15v36h454v-36q-61 0 -96 -19q-44 -23 -44 -152v-802q0 -215 45 -251q23 -19 47 -19q31 0 76 39
q53 46 71 55q27 13 53 13z" />
    <glyph glyph-name="uni02B0" unicode="&#x2b0;" horiz-adv-x="658" 
d="M358 590h13q64 0 74 46q2 10 2 57v194q0 133 -39 160q-22 15 -49 15q-64 0 -137 -79v-290q0 -77 29 -94q16 -9 59 -9v-22h-272v22q62 0 77 34q7 15 7 69v497q0 130 -18 145q-11 8 -25 8t-41 -10l-8 21l164 68h28v-402q104 114 183 114q98 0 130 -107q12 -40 12 -140v-194
q0 -78 29 -95q14 -8 52 -8v-22h-270v22z" />
    <glyph glyph-name="uni02B1" unicode="&#x2b1;" horiz-adv-x="658" 
d="M358 590h13q64 0 74 46q2 10 2 56v195q0 134 -39 161q-20 14 -49 14q-65 0 -138 -79v-291q0 -76 30 -93q16 -9 59 -9v-22h-272v22q35 0 57 11q27 13 27 91v462q0 162 107 231q55 35 122 35q63 0 116 -41q35 -27 35 -60q0 -18 -16 -34t-34 -16q-30 0 -66 54q-37 54 -82 54
q-58 0 -75 -60q-8 -30 -8 -160v-138q105 115 184 115q98 0 130 -107q12 -40 12 -140v-195q0 -78 28 -94q14 -8 53 -8v-22h-270v22z" />
    <glyph glyph-name="uni02B2" unicode="&#x2b2;" horiz-adv-x="318" 
d="M226 1421q62 0 62 -62q0 -61 -62 -61q-61 0 -61 61q0 62 61 62zM278 580q0 -278 -216 -278q-108 0 -108 61q0 51 49 51q13 0 32 -8q13 -6 40 -30q30 -27 48 -27q37 0 49 49q7 27 7 113v391q0 128 -19 144q-7 7 -25 7q-16 0 -40 -9l-9 22l166 67h26v-553z" />
    <glyph glyph-name="uni02B3" unicode="&#x2b3;" horiz-adv-x="445" 
d="M363 1133q30 0 54 -18q23 -20 23 -48q0 -56 -53 -56q-19 0 -46 21q-29 20 -40 20q-33 0 -79 -93v-263q0 -107 96 -107v-21h-282v21q70 0 84 44q3 11 3 58v213q0 97 -4 114q-5 20 -14 28q-11 8 -27 8q-20 0 -42 -9l-6 21l167 67h25v-123q69 123 141 123z" />
    <glyph glyph-name="uni02B4" unicode="&#x2b4;" horiz-adv-x="445" 
d="M223 553v123q-69 -123 -141 -123q-30 0 -52 18q-25 19 -25 48q0 56 53 56q18 0 47 -20q27 -21 39 -21q32 0 79 93v263q0 107 -96 107v21h282v-21q-70 0 -84 -44q-3 -11 -3 -58v-213q0 -97 4 -114q4 -20 15 -27q10 -9 26 -9q19 0 42 9l6 -21l-167 -67h-25z" />
    <glyph glyph-name="uni02B5" unicode="&#x2b5;" horiz-adv-x="445" 
d="M497 415q50 0 50 -51q0 -60 -108 -60q-96 0 -156 68t-60 211v93q-69 -123 -141 -123q-30 0 -52 18q-25 19 -25 48q0 56 53 56q20 0 49 -20q29 -21 37 -21q32 0 79 93v263q0 107 -96 107v21h282v-21q-70 0 -84 -44q-3 -11 -3 -58v-482q0 -129 27 -151q14 -11 28 -11
q18 0 47 23q33 28 42 33q19 8 31 8z" />
    <glyph glyph-name="uni02B6" unicode="&#x2b6;" horiz-adv-x="601" 
d="M597 1097q-56 -6 -76 -22q-12 -10 -52 -67l-110 -158q126 -29 126 -140q0 -142 -234 -142h-221v21h21q31 0 47 18q11 13 11 64v344q0 46 -8 59q-15 23 -50 23h-21v21h256v-21h-21q-31 0 -47 -18q-11 -14 -11 -64v-154q9 1 24 1t28 -1l176 257h162v-21zM271 599
q111 0 111 116q0 121 -152 121q-15 0 -23 -1v-228q45 -8 64 -8z" />
    <glyph glyph-name="uni02B7" unicode="&#x2b7;" horiz-adv-x="877" 
d="M873 1096q-51 -7 -77 -71l-184 -473h-24l-138 351l-160 -351h-22l-177 462q-25 68 -87 82v22h231v-22q-52 -4 -52 -37q0 -19 10 -45l118 -316l118 257l-31 81q-14 36 -38 50q-15 9 -49 10v22h262v-22q-74 -3 -74 -46q0 -10 5 -25l125 -315l116 304q12 32 12 51
q0 30 -58 31v22h174v-22z" />
    <glyph glyph-name="uni02B8" unicode="&#x2b8;" horiz-adv-x="608" 
d="M604 1096q-38 -4 -61 -36q-3 -6 -20 -47l-224 -548q-66 -161 -186 -161q-31 0 -56 19q-25 18 -25 48q0 56 62 56q15 0 54 -14q24 -9 30 -9q45 0 82 91l39 95l-197 415q-6 13 -29 46q-25 35 -69 45v22h256v-22h-12q-54 0 -54 -41q0 -26 19 -64l134 -278l123 304
q10 24 10 49q0 19 -19 26q-9 4 -36 4v22h179v-22z" />
    <glyph glyph-name="uni02B9" unicode="&#x2b9;" horiz-adv-x="448" 
d="M325 1387q78 0 78 -71q0 -23 -10 -50q-17 -46 -74 -168l-138 -295h-44l31 296q13 128 26 171q34 117 131 117z" />
    <glyph glyph-name="uni02BA" unicode="&#x2ba;" horiz-adv-x="748" 
d="M325 1387q78 0 78 -71q0 -23 -10 -50q-17 -46 -74 -168l-138 -295h-44l31 296q13 128 26 171q34 117 131 117zM625 1387q78 0 78 -71q0 -23 -10 -50q-17 -46 -74 -168l-138 -295h-44l31 296q13 128 26 171q34 117 131 117z" />
    <glyph glyph-name="uni02BB" unicode="&#x2bb;" horiz-adv-x="682" 
d="M388 1091q43 0 73 -31q29 -32 29 -74q0 -51 -31 -79q-44 -38 -100 -38q-75 0 -126 63q-48 58 -48 135q0 120 88 215q59 64 171 105v-43q-100 -60 -139 -115q-27 -39 -27 -92q0 -62 38 -62q10 0 28 7q25 9 44 9z" />
    <glyph glyph-name="uni02BC" unicode="&#x2bc;" horiz-adv-x="682" 
d="M450 1325q48 -59 48 -135q0 -117 -89 -215q-58 -64 -171 -106v47q104 62 140 114q26 38 26 91q0 61 -37 61q-11 0 -29 -7q-26 -9 -43 -9q-44 0 -72 31q-30 31 -30 74q0 50 31 78q43 38 100 38q76 0 126 -62z" />
    <glyph glyph-name="uni02BD" unicode="&#x2bd;" horiz-adv-x="682" 
d="M458 1349q31 -28 31 -78q0 -42 -29 -74q-30 -31 -73 -31q-17 0 -43 9q-18 7 -29 7q-37 0 -37 -61q0 -53 26 -91q36 -52 140 -114v-47q-113 42 -171 106q-89 98 -89 215q0 75 50 137q49 60 124 60q57 0 100 -38z" />
    <glyph glyph-name="uni02BE" unicode="&#x2be;" horiz-adv-x="682" 
d="M247 1424q81 0 136 -55t55 -136t-55 -136q-56 -56 -136 -56v70q51 0 87 36q35 35 35 86q0 50 -35 87q-37 35 -87 35v69z" />
    <glyph glyph-name="uni02BF" unicode="&#x2bf;" horiz-adv-x="682" 
d="M438 1041q-79 0 -135 56t-56 136t56 136q55 55 135 55v-69q-51 0 -86 -35q-36 -36 -36 -87t36 -86q35 -36 86 -36v-70z" />
    <glyph glyph-name="uni02C0" unicode="&#x2c0;" horiz-adv-x="508" 
d="M408 1331q70 -82 70 -203q0 -246 -202 -288v-272h-99v363h25q90 0 139 85q40 68 40 164q0 78 -33 134q-40 66 -113 66q-74 0 -82 -71q-7 -72 -67 -72q-56 0 -56 51q0 60 66 99q57 33 120 33q118 0 192 -89z" />
    <glyph glyph-name="uni02C1" unicode="&#x2c1;" horiz-adv-x="508" 
d="M412 1387q66 -39 66 -99q0 -51 -56 -51q-60 0 -67 72q-8 71 -82 71q-73 0 -113 -66q-33 -56 -33 -134q0 -96 40 -164q49 -85 139 -85h25v-363h-99v272q-202 42 -202 288q0 121 70 203q74 89 192 89q63 0 120 -33z" />
    <glyph glyph-name="uni02C2" unicode="&#x2c2;" horiz-adv-x="1155" 
d="M1115 1085l-926 -402l926 -406v-90l-1076 470v49l1076 466v-87z" />
    <glyph glyph-name="uni02C3" unicode="&#x2c3;" horiz-adv-x="1155" 
d="M37 273l927 402l-927 406v91l1076 -470v-49l-1076 -466v86z" />
    <glyph glyph-name="uni02C4" unicode="&#x2c4;" horiz-adv-x="1155" 
d="M572 1068l-402 -926h-87l466 1076h49l470 -1076h-90z" />
    <glyph glyph-name="uni02C5" unicode="&#x2c5;" horiz-adv-x="1155" 
d="M549 142l-466 1076h87l402 -926l406 926h90l-470 -1076h-49z" />
    <glyph glyph-name="circumflex" unicode="&#x2c6;" horiz-adv-x="682" 
d="M623 1054h-31l-273 213l-229 -213h-30l189 331h184z" />
    <glyph glyph-name="caron" unicode="&#x2c7;" horiz-adv-x="682" 
d="M60 1385h31l273 -212l229 212h30l-189 -331h-184z" />
    <glyph glyph-name="uni02C8" unicode="&#x2c8;" horiz-adv-x="682" 
d="M289 1420h103v-332h-103v332z" />
    <glyph glyph-name="uni02C9" unicode="&#x2c9;" horiz-adv-x="682" 
d="M661 1225h-638v128h638v-128z" />
    <glyph glyph-name="uni02CA" unicode="&#x2ca;" horiz-adv-x="682" 
d="M236 1045l105 345h224l-295 -345h-34z" />
    <glyph glyph-name="uni02CB" unicode="&#x2cb;" horiz-adv-x="682" 
d="M447 1045h-35l-294 345h223z" />
    <glyph glyph-name="uni02CC" unicode="&#x2cc;" horiz-adv-x="682" 
d="M289 -88h103v-332h-103v332z" />
    <glyph glyph-name="uni02CD" unicode="&#x2cd;" horiz-adv-x="682" 
d="M29 -150h624v-128h-624v128z" />
    <glyph glyph-name="uni02CE" unicode="&#x2ce;" horiz-adv-x="682" 
d="M118 -93h223l106 -345h-35z" />
    <glyph glyph-name="uni02CF" unicode="&#x2cf;" horiz-adv-x="682" 
d="M236 -438l105 345h224l-295 -345h-34z" />
    <glyph glyph-name="uni02D0" unicode="&#x2d0;" horiz-adv-x="569" 
d="M272 724l-90 205h205l-90 -205h-25zM272 205h25l90 -205h-205z" />
    <glyph glyph-name="uni02D1" unicode="&#x2d1;" horiz-adv-x="569" 
d="M272 724l-90 205h205l-90 -205h-25z" />
    <glyph glyph-name="uni02D2" unicode="&#x2d2;" horiz-adv-x="682" 
d="M247 483q81 0 136 -55t55 -136t-55 -136q-56 -56 -136 -56v70q51 0 87 36q35 35 35 86q0 50 -35 87q-37 35 -87 35v69z" />
    <glyph glyph-name="uni02D3" unicode="&#x2d3;" horiz-adv-x="682" 
d="M438 100q-79 0 -135 56t-56 136t56 136q55 55 135 55v-69q-51 0 -86 -35q-36 -36 -36 -87q0 -52 36 -86q35 -36 86 -36v-70z" />
    <glyph glyph-name="uni02D4" unicode="&#x2d4;" horiz-adv-x="682" 
d="M166 281h123v229h103v-229h123v-103h-349v103z" />
    <glyph glyph-name="uni02D5" unicode="&#x2d5;" horiz-adv-x="682" 
d="M392 178h-103v229h-123v103h349v-103h-123v-229z" />
    <glyph glyph-name="uni02D6" unicode="&#x2d6;" horiz-adv-x="682" 
d="M392 178h-103v115h-123v103h123v114h103v-114h123v-103h-123v-115z" />
    <glyph glyph-name="uni02D7" unicode="&#x2d7;" horiz-adv-x="682" 
d="M29 472h624v-149h-624v149z" />
    <glyph glyph-name="breve" unicode="&#x2d8;" horiz-adv-x="682" 
d="M341 1078q-110 0 -193 78q-82 76 -93 202h31q32 -60 76 -86q71 -43 181 -43q109 0 180 42q52 29 71 87h33q-9 -124 -91 -202t-195 -78z" />
    <glyph glyph-name="dotaccent" unicode="&#x2d9;" horiz-adv-x="682" 
d="M233 1228q0 45 32 77t77 32t77 -32t32 -77t-32 -77t-77 -32t-77 32t-32 77z" />
    <glyph glyph-name="ring" unicode="&#x2da;" horiz-adv-x="682" 
d="M150 1233q0 79 56 135t135 56q80 0 136 -56t56 -135q0 -80 -56 -136t-136 -56q-79 0 -135 56t-56 136zM463 1233q0 50 -35 87q-37 35 -87 35q-51 0 -86 -35q-36 -36 -36 -87q0 -50 36 -86q34 -36 86 -36q51 0 87 36q35 37 35 86z" />
    <glyph glyph-name="ogonek" unicode="&#x2db;" horiz-adv-x="682" 
d="M327 60q-19 -20 -57 -62q-30 -32 -54 -66t-40 -71q-15 -34 -17 -75q-1 -52 27 -87q29 -35 78 -35q21 0 43 7q27 8 44 19l15 -29q-39 -39 -82 -65q-41 -25 -96 -25q-37 0 -67 12q-32 15 -50 35q-21 22 -31 50q-11 31 -10 61q2 43 21 84q21 43 49 77q20 23 36 38
q11 12 38 37q17 15 49 41l69 54h35z" />
    <glyph glyph-name="tilde" unicode="&#x2dc;" horiz-adv-x="682" 
d="M82 1198q-12 -19 -28 -101h-32q4 137 57 198q52 61 131 61q42 0 75 -13q44 -16 128 -71q82 -55 122 -55q31 0 57 27q25 28 38 112h31q1 -93 -24 -147q-25 -55 -72 -85q-46 -31 -94 -31q-78 0 -196 80q-62 43 -85 52q-22 9 -43 9q-41 0 -65 -36z" />
    <glyph glyph-name="hungarumlaut" unicode="&#x2dd;" horiz-adv-x="682" 
d="M111 1044h-33l66 346h187zM426 1044h-34l65 346h187z" />
    <glyph glyph-name="uni02DE" unicode="&#x2de;" horiz-adv-x="682" 
d="M483 567q-26 -69 -83 -114q-58 -46 -127 -46q-37 0 -72 15q-135 57 -132 284q-27 -20 -69 -37l-17 43q27 7 57 31q32 27 35 56l38 -7q9 -190 137 -243q31 -12 62 -12q82 0 150 78z" />
    <glyph glyph-name="uni02DF" unicode="&#x2df;" horiz-adv-x="782" 
d="M391 981l-250 -251l-96 96l251 250l-251 250l96 96l250 -251l250 251l96 -96l-251 -250l251 -250l-96 -96z" />
    <glyph glyph-name="uni02E0" unicode="&#x2e0;" horiz-adv-x="600" 
d="M596 1096q-30 -1 -43 -13q-20 -17 -38 -60l-153 -361l61 -132q27 -58 27 -99q0 -128 -128 -128q-103 0 -103 105q0 26 9 47l55 129l-183 432q-23 53 -56 70q-14 6 -40 10v22h258v-22h-17q-48 0 -48 -42q0 -20 13 -50l128 -303l128 315q14 36 14 51q0 6 -5 13
q-12 16 -58 16v22h179v-22zM358 404q0 20 -9 40l-42 93l-38 -93q-7 -17 -7 -35q0 -58 54 -58q42 0 42 53z" />
    <glyph glyph-name="uni02E1" unicode="&#x2e1;" horiz-adv-x="340" 
d="M40 590q59 0 74 34q7 15 7 69v499q0 129 -17 143q-11 8 -24 8q-16 0 -40 -10l-10 21l164 68h27v-729q0 -82 23 -94q17 -9 58 -9v-22h-262v22z" />
    <glyph glyph-name="uni02E2" unicode="&#x2e2;" horiz-adv-x="435" 
d="M283 874q122 -59 122 -157q0 -74 -55 -120q-56 -47 -129 -47q-52 0 -115 18q-21 6 -32 6q-14 0 -22 -15h-20v196h20q34 -169 171 -169q37 0 66 23q27 23 27 59q0 66 -121 129q-11 6 -24 12q-69 34 -99 62q-42 41 -42 103q0 70 48 115q49 44 119 44q30 0 78 -14
q30 -9 41 -9q17 0 28 23h20v-187h-20q-39 151 -150 151q-34 0 -62 -18q-31 -19 -31 -53q0 -63 95 -110z" />
    <glyph glyph-name="uni02E3" unicode="&#x2e3;" horiz-adv-x="592" 
d="M328 590q54 0 54 34q0 13 -39 70l-80 117l-88 -117q-41 -56 -41 -65q0 -37 54 -39v-22h-179v22q20 3 37 15q23 18 77 89l115 153l-104 151q-68 98 -130 98v22h259v-22q-44 0 -44 -31q0 -14 21 -44q1 -2 19 -30l39 -63l45 63q44 62 44 75q0 30 -44 30v22h186v-22
q-56 -3 -131 -105l-75 -101l137 -196q42 -60 52 -70q33 -33 76 -34v-22h-260v22z" />
    <glyph glyph-name="uni02E4" unicode="&#x2e4;" horiz-adv-x="508" 
d="M412 1387q66 -39 66 -99q0 -51 -56 -51q-60 0 -67 72q-8 71 -82 71q-73 0 -113 -66q-33 -56 -33 -134q0 -96 40 -164q49 -85 139 -85h25v-234q0 -84 29 -98q18 -9 54 -9v-22h-276v22q40 2 48 3q25 6 36 26q10 19 10 78v143q-202 42 -202 288q0 121 70 203q74 89 192 89
q63 0 120 -33z" />
    <glyph glyph-name="uni02E5" unicode="&#x2e5;" horiz-adv-x="784" 
d="M478 1310h-328v156h484v-1466h-156v1310z" />
    <glyph glyph-name="uni02E6" unicode="&#x2e6;" horiz-adv-x="784" 
d="M478 982h-328v156h328v328h156v-1466h-156v982z" />
    <glyph glyph-name="uni02E7" unicode="&#x2e7;" horiz-adv-x="784" 
d="M478 655h-328v156h328v655h156v-1466h-156v655z" />
    <glyph glyph-name="uni02E8" unicode="&#x2e8;" horiz-adv-x="784" 
d="M478 328h-328v156h328v982h156v-1466h-156v328z" />
    <glyph glyph-name="uni02E9" unicode="&#x2e9;" horiz-adv-x="784" 
d="M150 156h328v1310h156v-1466h-484v156z" />
    <glyph glyph-name="uni02EA" unicode="&#x2ea;" horiz-adv-x="682" 
d="M98 880h94v-786h393v-94h-487v880z" />
    <glyph glyph-name="uni02EB" unicode="&#x2eb;" horiz-adv-x="682" 
d="M192 0h-94v880h94v-393h393v-94h-393v-393z" />
    <glyph glyph-name="uni02EC" unicode="&#x2ec;" horiz-adv-x="682" 
d="M250 -438l-190 331h31l253 -212l249 212h30l-189 -331h-184z" />
    <glyph glyph-name="uni02ED" unicode="&#x2ed;" horiz-adv-x="682" 
d="M23 1353h638v-128h-638v128zM23 1133h638v-128h-638v128z" />
    <glyph glyph-name="uni02EE" unicode="&#x2ee;" horiz-adv-x="909" 
d="M325 1323q47 -59 47 -137q0 -115 -74 -201q-69 -78 -183 -114v42q83 47 115 83q49 52 49 128q0 56 -34 56q-9 0 -36 -8t-40 -8q-43 0 -72 30q-30 30 -30 73q0 52 40 86t92 34q77 0 126 -64zM803 1323q48 -60 48 -138q0 -113 -76 -199q-70 -77 -183 -115v42
q164 86 164 205q0 62 -32 62q-9 0 -35 -8q-27 -8 -40 -8q-42 0 -72 32t-30 73q0 50 38 85q37 33 90 33q76 0 128 -64z" />
    <glyph glyph-name="uni02EF" unicode="&#x2ef;" horiz-adv-x="682" 
d="M268 -379l-122 265h24l170 -180l172 180h25l-122 -265h-147z" />
    <glyph glyph-name="uni02F0" unicode="&#x2f0;" horiz-adv-x="682" 
d="M340 -199l-170 -180h-24l122 265h147l122 -265h-25z" />
    <glyph glyph-name="uni02F1" unicode="&#x2f1;" horiz-adv-x="682" 
d="M209 -173l265 122v-24l-180 -170l180 -172v-25l-265 122v147z" />
    <glyph glyph-name="uni02F2" unicode="&#x2f2;" horiz-adv-x="682" 
d="M209 -417l180 172l-180 170v24l265 -122v-147l-265 -122v25z" />
    <glyph glyph-name="uni02F3" unicode="&#x2f3;" horiz-adv-x="682" 
d="M342 -55q82 0 137 -55t55 -136q0 -82 -55 -137t-137 -55q-79 0 -135 56t-56 136t56 136q55 55 135 55zM342 -368q50 0 87 35q35 37 35 87q0 52 -35 87t-87 35t-86 -36q-36 -34 -36 -86q0 -50 36 -86t86 -36z" />
    <glyph glyph-name="uni02F4" unicode="&#x2f4;" horiz-adv-x="682" 
d="M118 523h223l106 -345h-35z" />
    <glyph glyph-name="uni02F5" unicode="&#x2f5;" horiz-adv-x="682" 
d="M78 524h187l65 -346h-34zM391 524h187l66 -346h-33z" />
    <glyph glyph-name="uni02F6" unicode="&#x2f6;" horiz-adv-x="682" 
d="M78 178l66 346h187l-220 -346h-33zM392 178l65 346h187l-218 -346h-34z" />
    <glyph glyph-name="uni02F7" unicode="&#x2f7;" horiz-adv-x="682" 
d="M660 -124q1 -168 -96 -232q-46 -31 -94 -31q-78 0 -196 80q-88 61 -128 61q-41 0 -65 -36q-12 -19 -28 -101h-32q7 259 188 259q42 0 75 -13q26 -11 128 -73q88 -53 122 -53q73 0 95 139h31z" />
    <glyph glyph-name="uni02F8" unicode="&#x2f8;" horiz-adv-x="569" 
d="M289 1387q47 0 79 -32t32 -79q0 -46 -32 -78q-33 -33 -79 -33q-45 0 -78 33t-33 78q0 46 33 79q32 32 78 32zM287 638q46 0 80 -32q32 -34 32 -80t-33 -78q-33 -33 -79 -33q-45 0 -78 33t-33 78q0 46 33 79q31 33 78 33z" />
    <glyph glyph-name="uni02F9" unicode="&#x2f9;" horiz-adv-x="682" 
d="M272 1024h-103v332h349v-103h-246v-229z" />
    <glyph glyph-name="uni02FA" unicode="&#x2fa;" horiz-adv-x="682" 
d="M415 1253h-246v103h349v-332h-103v229z" />
    <glyph glyph-name="uni02FB" unicode="&#x2fb;" horiz-adv-x="682" 
d="M169 -88h103v-229h246v-103h-349v332z" />
    <glyph glyph-name="uni02FC" unicode="&#x2fc;" horiz-adv-x="682" 
d="M169 -317h246v229h103v-332h-349v103z" />
    <glyph glyph-name="uni02FD" unicode="&#x2fd;" horiz-adv-x="814" 
d="M30 -44h154v-222h446v222h154v-376h-754v376z" />
    <glyph glyph-name="uni02FE" unicode="&#x2fe;" horiz-adv-x="814" 
d="M30 -44h154v-222h600v-154h-754v376z" />
    <glyph glyph-name="uni02FF" unicode="&#x2ff;" horiz-adv-x="682" 
d="M352 -420h-94l-200 283v14l200 283h94l-166 -243h439v-94h-439z" />
    <glyph glyph-name="uni0305" unicode="&#x305;" horiz-adv-x="0" 
d="M-530 1546h1059v-84h-1059v84z" />
    <glyph glyph-name="uni030A" unicode="&#x30a;" horiz-adv-x="0" 
d="M3 1424q81 0 136 -55q56 -56 56 -136q0 -81 -55 -136q-56 -56 -137 -56q-80 0 -136 56q-55 55 -55 136t55 136t136 55zM3 1111q51 0 87 36q35 35 35 86q0 52 -35 87t-87 35q-50 0 -87 -35q-35 -37 -35 -87t36 -86t86 -36z" />
    <glyph glyph-name="uni030B" unicode="&#x30b;" horiz-adv-x="0" 
d="M-285 1044l66 346h187l-220 -346h-33zM29 1044l65 346h187l-218 -346h-34z" />
    <glyph glyph-name="uni030D" unicode="&#x30d;" horiz-adv-x="0" 
d="M-50 1420h103v-332h-103v332z" />
    <glyph glyph-name="uni030E" unicode="&#x30e;" horiz-adv-x="0" 
d="M-154 1420h103v-332h-103v332zM56 1420h103v-332h-103v332z" />
    <glyph glyph-name="uni030F" unicode="&#x30f;" horiz-adv-x="0" 
d="M-285 1390h187l65 -346h-34zM28 1390h187l66 -346h-33z" />
    <glyph glyph-name="uni0310" unicode="&#x310;" horiz-adv-x="0" 
d="M1 1527q45 0 77 -32t32 -77t-32 -77t-77 -32t-77 32t-32 77t32 77t77 32zM284 1358q-9 -120 -87 -199q-81 -81 -199 -81t-197 81q-78 80 -89 199h31q34 -61 76 -86q73 -43 181 -43t180 42q52 30 71 87h33z" />
    <glyph glyph-name="uni0311" unicode="&#x311;" horiz-adv-x="0" 
d="M197 1277q78 -79 87 -199h-33q-19 57 -71 87q-72 42 -180 42t-181 -43q-42 -25 -76 -86h-31q10 119 88 198q79 82 198 82q118 0 199 -81z" />
    <glyph glyph-name="uni0312" unicode="&#x312;" horiz-adv-x="0" 
d="M-82 1094q-38 47 -38 108q0 159 207 237v-37q-70 -43 -90 -55q-42 -35 -42 -89q0 -49 29 -49q9 0 29 7q19 6 29 6q34 0 58 -25q23 -26 23 -59q0 -93 -104 -93q-61 0 -101 49z" />
    <glyph glyph-name="uni0313" unicode="&#x313;" horiz-adv-x="0" 
d="M85 1390q38 -47 38 -108q0 -159 -207 -237v37q85 51 90 55q42 36 42 89q0 49 -29 49q-7 0 -27 -6q-18 -7 -31 -7q-34 0 -58 25q-23 26 -23 59q0 42 30 68q29 25 74 25q61 0 101 -49z" />
    <glyph glyph-name="uni0314" unicode="&#x314;" horiz-adv-x="0" 
d="M19 1439q45 0 74 -25q30 -26 30 -68q0 -33 -23 -59q-24 -25 -58 -25q-13 0 -31 7q-19 6 -27 6q-29 0 -29 -49q0 -53 42 -89q5 -4 90 -55v-37q-207 78 -207 237q0 61 39 109q41 48 100 48z" />
    <glyph glyph-name="uni0315" unicode="&#x315;" horiz-adv-x="0" 
d="M205 1390q38 -47 38 -108q0 -159 -207 -237v37q85 51 90 55q42 36 42 89q0 49 -29 49q-7 0 -27 -6q-18 -7 -31 -7q-35 0 -57 25q-24 25 -24 59q0 42 30 68q29 25 74 25q61 0 101 -49z" />
    <glyph glyph-name="uni0316" unicode="&#x316;" horiz-adv-x="0" 
d="M-165 -93h223l106 -345h-35z" />
    <glyph glyph-name="uni0317" unicode="&#x317;" horiz-adv-x="0" 
d="M-163 -438l105 345h224l-295 -345h-34z" />
    <glyph glyph-name="uni0318" unicode="&#x318;" horiz-adv-x="0" 
d="M58 -305h-246v103h246v114h103v-332h-103v115z" />
    <glyph glyph-name="uni0319" unicode="&#x319;" horiz-adv-x="0" 
d="M-58 -420h-103v332h103v-114h246v-103h-246v-115z" />
    <glyph glyph-name="uni031A" unicode="&#x31a;" horiz-adv-x="0" 
d="M228 1523h-605v149h754v-462h-149v313z" />
    <glyph glyph-name="uni031C" unicode="&#x31c;" horiz-adv-x="0" 
d="M99 -438q-78 0 -136 56q-55 55 -55 136q0 80 55 135q58 56 136 56v-69q-51 0 -86 -36q-36 -34 -36 -86q0 -51 36 -87q35 -35 86 -35v-70z" />
    <glyph glyph-name="uni031D" unicode="&#x31d;" horiz-adv-x="0" 
d="M-175 -317h123v229h103v-229h123v-103h-349v103z" />
    <glyph glyph-name="uni031E" unicode="&#x31e;" horiz-adv-x="0" 
d="M51 -420h-103v229h-123v103h349v-103h-123v-229z" />
    <glyph glyph-name="uni031F" unicode="&#x31f;" horiz-adv-x="0" 
d="M51 -420h-103v115h-123v103h123v114h103v-114h123v-103h-123v-115z" />
    <glyph glyph-name="uni0320" unicode="&#x320;" horiz-adv-x="0" 
d="M-319 -150h638v-128h-638v128z" />
    <glyph glyph-name="uni0321" unicode="&#x321;" horiz-adv-x="0" 
d="M165 20q0 -200 -79 -319q-93 -143 -281 -143q-61 0 -111 21q-68 27 -68 80q0 33 24 59t58 26q26 0 53 -13q20 -9 66 -50q50 -44 81 -44q62 0 81 81q11 46 11 188v223h165v-109z" />
    <glyph glyph-name="uni0322" unicode="&#x322;" horiz-adv-x="0" 
d="M457 -256q35 0 59 -25q23 -26 23 -60q0 -53 -68 -80q-49 -21 -111 -21q-188 0 -281 143q-79 119 -79 319v109h165v-223q0 -214 45 -250q23 -19 47 -19q31 0 76 39q53 46 71 55q27 13 53 13z" />
    <glyph glyph-name="uni0324" unicode="&#x324;" horiz-adv-x="0" 
d="M-174 -137q45 0 77 -32t32 -77q0 -44 -32 -76t-76 -32q-46 0 -77 31q-32 32 -32 77q0 46 31 77q32 32 77 32zM179 -137q45 0 77 -32q31 -31 31 -77t-31 -77t-77 -31t-77 31q-32 32 -32 77t32 77t77 32z" />
    <glyph glyph-name="uni0325" unicode="&#x325;" horiz-adv-x="0" 
d="M3 -55q80 0 136 -56t56 -135q0 -82 -55 -137t-137 -55q-80 0 -136 56q-55 55 -55 136q0 80 55 135q56 56 136 56zM3 -368q50 0 87 35q35 37 35 87q0 52 -35 87t-87 35q-51 0 -87 -36q-35 -35 -35 -86q0 -50 36 -86t86 -36z" />
    <glyph glyph-name="uni0326.001" unicode="&#x326;" horiz-adv-x="0" 
d="M83 -138q38 -47 38 -108q0 -159 -207 -237v37q85 51 90 55q42 36 42 89q0 49 -29 49q-9 0 -27 -7q-20 -6 -31 -6q-34 0 -58 25q-23 26 -23 59q0 42 30 68q29 25 74 25q61 0 101 -49z" />
    <glyph glyph-name="uni0328" unicode="&#x328;" horiz-adv-x="0" 
d="M130 60q-19 -20 -57 -62q-30 -32 -54 -66t-40 -71q-15 -34 -17 -75q-2 -54 26 -87q30 -35 79 -35q21 0 43 7q27 8 44 19l15 -29q-39 -39 -82 -65q-41 -25 -96 -25q-37 0 -67 12q-32 14 -51 35q-22 25 -31 50q-11 29 -9 61q1 43 21 84q21 43 49 77q18 21 35 38
q11 11 39 37q17 15 49 41l69 54h35z" />
    <glyph glyph-name="uni0329" unicode="&#x329;" horiz-adv-x="0" 
d="M-50 -88h103v-332h-103v332z" />
    <glyph glyph-name="uni032A" unicode="&#x32a;" horiz-adv-x="0" 
d="M223 -198h-446v-222h-154v376h754v-376h-154v222z" />
    <glyph glyph-name="uni032B" unicode="&#x32b;" horiz-adv-x="0" 
d="M326 -125q0 -89 -46 -145q-50 -60 -136 -60q-90 0 -143 68q-53 -68 -144 -68q-87 0 -136 60q-46 56 -46 145h77q0 -116 106 -116q104 0 104 116h77q0 -116 106 -116q104 0 104 116h77z" />
    <glyph glyph-name="uni032C" unicode="&#x32c;" horiz-adv-x="0" 
d="M-93 -438l-190 331h31l253 -212l249 212h30l-189 -331h-184z" />
    <glyph glyph-name="uni032D" unicode="&#x32d;" horiz-adv-x="0" 
d="M-3 -225l-249 -213h-30l189 331h184l190 -331h-31z" />
    <glyph glyph-name="uni032E" unicode="&#x32e;" horiz-adv-x="0" 
d="M284 -140q-9 -120 -87 -199q-81 -81 -199 -81t-197 81q-78 80 -89 199h31q34 -61 76 -86q73 -43 181 -43t180 42q52 30 71 87h33z" />
    <glyph glyph-name="uni032F" unicode="&#x32f;" horiz-adv-x="0" 
d="M197 -221q78 -79 87 -199h-33q-19 57 -71 87q-72 42 -180 42t-181 -43q-42 -25 -76 -86h-31q10 119 88 198q79 82 198 82q118 0 199 -81z" />
    <glyph glyph-name="uni0330" unicode="&#x330;" horiz-adv-x="0" 
d="M320 -124q1 -168 -96 -232q-46 -31 -94 -31q-78 0 -196 80q-88 61 -128 61q-41 0 -65 -36q-12 -19 -28 -101h-32q7 259 188 259q42 0 75 -13q27 -10 128 -73q88 -53 122 -53q73 0 95 139h31z" />
    <glyph glyph-name="uni0332" unicode="&#x332;" horiz-adv-x="0" 
d="M-530 -150h1059v-84h-1059v84z" />
    <glyph glyph-name="uni0333" unicode="&#x333;" horiz-adv-x="0" 
d="M-319 -150h638v-84h-638v84zM-319 -330h638v-84h-638v84z" />
    <glyph glyph-name="uni0334" unicode="&#x334;" horiz-adv-x="0" 
d="M320 816q1 -168 -96 -232q-46 -31 -94 -31q-78 0 -196 80q-88 61 -128 61q-41 0 -65 -36q-12 -19 -28 -101h-32q7 259 188 259q42 0 75 -13q27 -10 128 -73q88 -53 122 -53q73 0 95 139h31z" />
    <glyph glyph-name="uni0337" unicode="&#x337;" horiz-adv-x="0" 
d="M-490 63l889 890l90 -91l-889 -890z" />
    <glyph glyph-name="uni0338" unicode="&#x338;" horiz-adv-x="0" 
d="M-331 -28l539 1450h128l-539 -1450h-128z" />
    <glyph glyph-name="uni0339" unicode="&#x339;" horiz-adv-x="0" 
d="M-92 -55q80 0 136 -56q55 -55 55 -135q0 -81 -55 -136q-56 -56 -136 -56v70q51 0 86 35q36 36 36 87q0 52 -36 86q-34 36 -86 36v69z" />
    <glyph glyph-name="uni033A" unicode="&#x33a;" horiz-adv-x="0" 
d="M-377 -44h154v-222h446v222h154v-376h-754v376z" />
    <glyph glyph-name="uni033B" unicode="&#x33b;" horiz-adv-x="0" 
d="M-188 -62h376v-376h-376v376zM-98 -152v-196h196v196h-196z" />
    <glyph glyph-name="uni033C" unicode="&#x33c;" horiz-adv-x="0" 
d="M155 -125q68 0 114 -43t58 -112h-77q-16 66 -96 66q-52 0 -85 -44q-30 -40 -30 -92h-78q0 52 -30 92q-33 44 -84 44q-79 0 -96 -66h-77q12 69 58 112t114 43q118 0 154 -88q36 88 155 88z" />
    <glyph glyph-name="uni033D" unicode="&#x33d;" horiz-adv-x="0" 
d="M0 1183l-129 -129l-92 92l129 129l-129 129l92 92l129 -129l129 129l92 -92l-129 -129l129 -129l-92 -92z" />
    <glyph glyph-name="uni033E" unicode="&#x33e;" horiz-adv-x="0" 
d="M98 1476q-104 -6 -104 -59q0 -23 51 -85t51 -120q0 -144 -198 -158v90q104 5 104 59q0 29 -51 90t-51 116q0 148 198 157v-90z" />
    <glyph glyph-name="uni033F" unicode="&#x33f;" horiz-adv-x="0" 
d="M-530 1726h1059v-84h-1059v84zM-530 1546h1059v-84h-1059v84z" />
    <glyph glyph-name="uni0340" unicode="&#x340;" horiz-adv-x="0" 
d="M-329 1390h223l106 -345h-35z" />
    <glyph glyph-name="uni0341" unicode="&#x341;" horiz-adv-x="0" 
d="M0 1045l106 345h223l-294 -345h-35z" />
    <glyph glyph-name="uni0346" unicode="&#x346;" horiz-adv-x="0" 
d="M223 1447h-446v-222h-154v376h754v-376h-154v222z" />
    <glyph glyph-name="uni0347" unicode="&#x347;" horiz-adv-x="0" 
d="M-540 -150h1079v-84h-1079v84zM-540 -330h1079v-84h-1079v84z" />
    <glyph glyph-name="uni0348" unicode="&#x348;" horiz-adv-x="0" 
d="M-154 -88h103v-332h-103v332zM56 -88h103v-332h-103v332z" />
    <glyph glyph-name="uni0349" unicode="&#x349;" horiz-adv-x="0" 
d="M58 -191h-246v103h349v-332h-103v229z" />
    <glyph glyph-name="uni034A" unicode="&#x34a;" horiz-adv-x="0" 
d="M321 1356q1 -168 -96 -232q-46 -31 -94 -31q-52 0 -126 38l-53 -96l-90 50l55 100q-48 32 -67 40q-22 9 -43 9q-41 0 -65 -36q-12 -19 -28 -101h-32q7 259 188 259q57 0 123 -36l53 97l90 -50l-56 -101q76 -49 115 -49q73 0 95 139h31z" />
    <glyph glyph-name="uni034B" unicode="&#x34b;" horiz-adv-x="0" 
d="M0 1680q83 0 83 -83q0 -44 -38 -70q-19 -13 -45 -13q-34 0 -59 25q-24 24 -24 58q0 35 24 59t59 24zM321 1494q1 -168 -96 -232q-46 -31 -94 -31q-78 0 -196 80q-88 61 -128 61q-41 0 -65 -36q-12 -19 -28 -101h-32q7 259 188 259q42 0 75 -13q27 -10 128 -73
q88 -53 122 -53q73 0 95 139h31zM0 1211q83 0 83 -83q0 -44 -38 -70q-19 -13 -45 -13q-34 0 -59 25q-24 24 -24 58q0 35 24 59t59 24z" />
    <glyph glyph-name="uni034C" unicode="&#x34c;" horiz-adv-x="0" 
d="M321 1571q1 -168 -96 -232q-46 -31 -94 -31q-78 0 -196 80q-88 61 -128 61q-41 0 -65 -36q-12 -19 -28 -101h-32q7 259 188 259q42 0 75 -13q27 -10 128 -73q88 -53 122 -53q73 0 95 139h31zM321 1308q1 -168 -96 -232q-46 -31 -94 -31q-78 0 -196 80q-88 61 -128 61
q-41 0 -65 -36q-12 -19 -28 -101h-32q7 259 188 259q42 0 75 -13q27 -10 128 -73q88 -53 122 -53q73 0 95 139h31z" />
    <glyph glyph-name="uni034D" unicode="&#x34d;" horiz-adv-x="0" 
d="M123 -283h-246v-123l-130 174l130 175v-123h246v123l130 -175l-130 -174v123z" />
    <glyph glyph-name="uni034E" unicode="&#x34e;" horiz-adv-x="0" 
d="M52 -420h-103v246h-123l174 130l175 -130h-123v-246z" />
    <glyph glyph-name="uni034F" unicode="&#x34f;" horiz-adv-x="0" 
d="M-637 1150h-100v323h323v-100h-223v-223zM-162 1473h323v-100h-323v100zM636 1373h-223v100h323v-323h-100v223zM0 1232q49 0 50 -49q-2 -51 -50 -51t-50 51q1 49 50 49zM-174 1197q51 0 51 -51q0 -49 -51 -49q-49 0 -49 49q0 51 49 51zM176 1197q46 0 48 -51
q-1 -49 -48 -49q-51 0 -52 49q2 51 52 51zM-321 1099q49 0 50 -51q-1 -49 -50 -49t-50 46q1 54 50 54zM324 1099q46 0 48 -51q-1 -49 -48 -49q-51 0 -52 49q2 51 52 51zM-420 949q50 0 50 -49q0 -51 -48 -51q-50 0 -52 51q1 49 50 49zM422 949q49 0 49 -49q0 -51 -51 -51
q-49 0 -49 51q0 49 51 49zM-737 898h100v-323h-100v323zM636 898h100v-323h-100v323zM-454 776q50 0 50 -50t-50 -50t-50 50t50 50zM459 776q48 0 48 -50t-48 -50q-52 0 -52 50t52 50zM-420 603q50 0 50 -51q0 -49 -50 -49t-50 49q0 51 50 51zM420 603q51 0 51 -51
q0 -49 -51 -49q-49 0 -49 49q0 51 49 51zM-321 453q50 0 50 -51q0 -49 -50 -49t-50 49q0 51 50 51zM324 453q50 0 50 -51q0 -49 -50 -49t-50 49q0 51 50 51zM-174 356q51 0 51 -48q0 -52 -51 -52q-49 0 -49 48q0 52 49 52zM176 356q49 0 49 -52q0 -48 -49 -48q-51 0 -51 48
q0 52 51 52zM-737 323h100v-223h223v-100h-323v323zM413 100h223v223h100v-323h-323v100zM0 320q50 0 50 -49q0 -51 -50 -51t-50 51q0 49 50 49zM-162 100h323v-100h-323v100z" />
    <glyph glyph-name="uni0350" unicode="&#x350;" horiz-adv-x="0" 
d="M-133 1066l180 172l-180 170v24l265 -122v-147l-265 -122v25z" />
    <glyph glyph-name="uni0351" unicode="&#x351;" horiz-adv-x="0" 
d="M95 1041q-80 0 -136 56q-55 55 -55 136t55 136t136 55v-69q-51 0 -86 -35q-36 -36 -36 -87q0 -50 36 -86t86 -36v-70z" />
    <glyph glyph-name="uni0352" unicode="&#x352;" horiz-adv-x="0" 
d="M-2 1527q120 0 199 -79q78 -80 87 -201h-33q-45 129 -251 129q-110 0 -181 -43q-44 -26 -76 -86h-31q11 119 89 199q79 81 197 81zM1 1296q45 0 77 -32t32 -77t-32 -77t-77 -32t-77 32t-32 77t32 77t77 32z" />
    <glyph glyph-name="uni0353" unicode="&#x353;" horiz-adv-x="0" 
d="M0 -313l-129 -129l-92 92l129 129l-129 129l92 92l129 -129l129 129l92 -92l-129 -129l129 -129l-92 -92z" />
    <glyph glyph-name="uni0354" unicode="&#x354;" horiz-adv-x="0" 
d="M-133 -173l265 122v-24l-180 -170l180 -172v-25l-265 122v147z" />
    <glyph glyph-name="uni0355" unicode="&#x355;" horiz-adv-x="0" 
d="M-133 -417l180 172l-180 170v24l265 -122v-147l-265 -122v25z" />
    <glyph glyph-name="uni0356" unicode="&#x356;" horiz-adv-x="0" 
d="M-334 -417l180 172l-180 170v24l265 -122v-147l-265 -122v25zM139 -199l-170 -180h-24l122 265h147l122 -265h-25z" />
    <glyph glyph-name="uni0357" unicode="&#x357;" horiz-adv-x="0" 
d="M-96 1424q81 0 136 -55t55 -136t-55 -136q-56 -56 -136 -56v70q50 0 86 36t36 86q0 52 -35 87t-87 35v69z" />
    <glyph glyph-name="uni0358" unicode="&#x358;" horiz-adv-x="0" 
d="M341 1369q83 0 83 -83q0 -44 -38 -70q-19 -13 -45 -13q-34 0 -58 25q-25 24 -25 58q0 35 24 59t59 24z" />
    <glyph glyph-name="uni0359" unicode="&#x359;" horiz-adv-x="0" 
d="M191 -231q-74 -25 -144 -32q42 -37 100 -109l-70 -49q-32 44 -79 124q-46 -87 -74 -124l-68 49q66 81 95 109q-68 13 -141 32l27 82q88 -30 133 -56q-10 109 -12 144h84q-1 -45 -14 -143q66 32 136 55z" />
    <glyph glyph-name="uni035A" unicode="&#x35a;" horiz-adv-x="0" 
d="M156 -55q82 0 137 -55t55 -136q0 -82 -55 -137t-137 -55q-79 0 -135 56q-13 14 -21 24q-59 -80 -157 -80q-80 0 -136 56q-55 55 -55 136t55 136t136 55t136 -55q12 -12 21 -25q9 13 21 25q55 55 135 55zM-157 -368q51 0 86 35q36 36 36 87q0 52 -35 87t-87 35
q-51 0 -87 -36q-35 -35 -35 -86q0 -50 36 -86t86 -36zM156 -368q50 0 87 35q35 37 35 87q0 52 -35 87t-87 35q-51 0 -86 -35t-35 -87q0 -50 35 -87q35 -35 86 -35z" />
    <glyph glyph-name="uni035B" unicode="&#x35b;" horiz-adv-x="0" 
d="M-2 1134l60 189h-256l95 292h103l-60 -189h256l-95 -292h-103z" />
    <glyph glyph-name="uni035C" unicode="&#x35c;" horiz-adv-x="0" 
d="M1294 -112q-210 -280 -674 -280q-463 0 -673 280h42q85 -74 288 -117q169 -36 343 -36t344 36q201 43 288 117h42z" />
    <glyph glyph-name="uni035D" unicode="&#x35d;" horiz-adv-x="0" 
d="M1294 1358q-210 -280 -674 -280q-463 0 -673 280h42q85 -74 288 -117q169 -36 343 -36t344 36q201 43 288 117h42z" />
    <glyph glyph-name="uni035E" unicode="&#x35e;" horiz-adv-x="0" 
d="M-53 1353h1247v-128h-1247v128z" />
    <glyph glyph-name="uni035F" unicode="&#x35f;" horiz-adv-x="0" 
d="M-53 -150h1247v-128h-1247v128z" />
    <glyph glyph-name="uni0360" unicode="&#x360;" horiz-adv-x="0" 
d="M1313 1356q-36 -138 -96 -195q-67 -64 -199 -64q-124 0 -399 57q-274 57 -410 57q-205 0 -242 -114h-40q36 139 96 196q68 63 199 63q138 0 405 -57q266 -57 404 -57q205 0 242 114h40z" />
    <glyph glyph-name="uni0361" unicode="&#x361;" horiz-adv-x="0" 
d="M620 1358q464 0 674 -280h-42q-86 74 -288 117q-173 36 -344 36q-172 0 -343 -36q-203 -43 -288 -117h-42q210 280 673 280z" />
    <glyph glyph-name="uni0362" unicode="&#x362;" horiz-adv-x="0" 
d="M847 -283h-1020v103h1020v123l130 -175l-130 -174v123z" />
    <glyph glyph-name="uni05BE" unicode="&#x5be;" horiz-adv-x="729" 
d="M643 1056v-220h-557v220h557z" />
    <glyph glyph-name="uni05C0" unicode="&#x5c0;" horiz-adv-x="596" 
d="M371 1155v-1255h-147v1255h147z" />
    <glyph glyph-name="uni05C3" unicode="&#x5c3;" horiz-adv-x="569" 
d="M178 965q0 31 15 57q15 25 40 40q25 14 56 14q27 0 53 -12q25 -14 41 -39q17 -26 17 -60q0 -28 -12 -52q-14 -25 -39 -42q-26 -17 -60 -17q-32 0 -56 15q-25 15 -40 40q-15 24 -15 56zM176 83q0 46 32 80q32 32 79 32q31 0 57 -15q25 -15 40 -40q15 -26 15 -57
q0 -47 -32 -79q-34 -32 -80 -32q-31 0 -57 15t-39 40q-15 24 -15 56z" />
    <glyph glyph-name="uni05C6" unicode="&#x5c6;" horiz-adv-x="624" 
d="M98 0q-10 40 -10 129q0 56 49 274q13 56 13 155q0 60 -18 180t-18 180q0 126 136 138l81 7q79 7 91 72h27q61 -61 61 -160q0 -124 -221 -138q-83 -5 -83 -81q0 -52 9 -169q11 -147 7 -216l-8 -167h335l42 -204h-493z" />
    <glyph glyph-name="uni05D0" unicode="&#x5d0;" horiz-adv-x="986" 
d="M916 133q0 -87 -70 -151h-27q-6 77 -52 129l-434 498q-111 -55 -111 -144q0 -68 71 -175q82 -121 82 -194q0 -96 -73 -96h-189v27q60 17 60 69q0 32 -38 131t-38 150q0 161 198 274l-123 139q-77 89 -77 183q0 86 70 162h26q4 -86 52 -140l376 -427q29 145 111 269
q-159 25 -159 160q0 79 41 138h26q17 -62 77 -77l86 -20q113 -27 113 -127q0 -44 -9 -71q-31 -10 -109 -10q-104 -164 -104 -268q0 -76 53 -138l93 -107q78 -89 78 -184z" />
    <glyph glyph-name="uni05D1" unicode="&#x5d1;" horiz-adv-x="932" 
d="M90 204h598q25 128 25 321q0 185 -31 248q-32 63 -179 63h-272q-149 0 -149 126q0 94 61 164h26q16 -70 100 -70h191q172 0 240 -38q66 -38 87 -102q20 -66 20 -223v-141q0 -232 -87 -348h168l-38 -204h-799z" />
    <glyph glyph-name="uni05D2" unicode="&#x5d2;" horiz-adv-x="687" 
d="M647 118q0 -75 -37 -130h-24l-144 346h-14l-134 -326l-261 -14l44 206q196 13 272 100q75 86 75 307q0 109 -23 160q-24 49 -106 62l-81 12q-47 8 -79 46q-32 37 -34 88q0 87 63 160h27q12 -65 91 -72l73 -7q135 -14 135 -143q0 -44 -8 -153t-8 -153q0 -92 85 -237
q88 -152 88 -252z" />
    <glyph glyph-name="uni05D3" unicode="&#x5d3;" horiz-adv-x="858" 
d="M660 175q0 -176 -146 -200l-16 23q26 38 26 103t-4 161q-5 120 -5 161q0 277 174 413h-467q-155 0 -155 126q0 99 61 164h26q16 -70 100 -70h414q71 0 97 -25q26 -26 26 -94q0 -88 -42 -115q-42 -29 -76 -86q-35 -59 -35 -140q0 -64 11 -210q11 -148 11 -211z" />
    <glyph glyph-name="uni05D4" unicode="&#x5d4;" horiz-adv-x="965" 
d="M850 175q0 -177 -143 -200l-16 21q26 44 26 105q0 51 -8 177t-8 178q0 241 117 380h-589q-151 0 -151 126q0 99 61 164h27q16 -70 94 -70h488q63 0 96 -21t33 -98v-49q0 -38 -36 -96q-37 -59 -37 -185q0 -69 23 -216t23 -216zM252 105q0 -122 -150 -131l-14 22
q26 28 26 73q0 31 -3 94t-3 94q0 209 150 209q20 0 34 -8v-27q-48 -31 -48 -131q0 -41 4 -98t4 -97z" />
    <glyph glyph-name="uni05D5" unicode="&#x5d5;" horiz-adv-x="571" 
d="M454 105q0 -89 -68 -124l-22 7v691q0 73 -22 107q-22 33 -123 50q-152 26 -152 152q0 92 58 147h27q7 -61 83 -75l84 -13q70 -10 103 -54q32 -44 32 -171v-717z" />
    <glyph glyph-name="uni05D6" unicode="&#x5d6;" horiz-adv-x="586" 
d="M519 903q0 -27 -9 -59q-81 -18 -181 -18q-23 -110 -23 -172q0 -88 23 -194q39 -184 39 -267q0 -196 -142 -218l-17 20q30 44 30 110t-16 184t-16 183q0 188 79 356q-208 0 -208 143q0 94 55 164h27q12 -57 66 -69q205 -7 250 -43q43 -34 43 -120z" />
    <glyph glyph-name="uni05D7" unicode="&#x5d7;" horiz-adv-x="976" 
d="M857 175q0 -179 -140 -200l-16 21q26 40 26 105q0 51 -8 177t-8 178q0 242 116 381h-506q-98 -74 -98 -240q0 -63 20 -203q20 -138 20 -203q0 -195 -149 -216l-13 21q36 56 30 177l-13 253q-12 263 145 411q-101 2 -137 29q-38 27 -38 96q0 99 61 164h27q16 -70 99 -70
h483q77 0 104 -27q26 -30 25 -92q0 -82 -38 -149q-39 -66 -39 -181q0 -72 24 -216q23 -147 23 -216z" />
    <glyph glyph-name="uni05D8" unicode="&#x5d8;" horiz-adv-x="974" 
d="M875 630q0 -270 -128 -630h-530q-1 78 -30 233q-42 222 -42 332q0 130 52 264q-78 14 -103 45q-27 30 -27 95q0 81 42 166h27q8 -73 108 -78q119 -3 119 -128q0 -46 -13 -88q-45 -14 -105 -14q-35 -114 -35 -195q0 -192 102 -428h414q85 179 85 425q0 220 -165 220
q-138 0 -198 -194l-32 8q84 405 272 405q187 0 187 -438z" />
    <glyph glyph-name="uni05D9" unicode="&#x5d9;" horiz-adv-x="546" 
d="M457 794q0 -236 -153 -316l-28 32q106 79 106 220q0 101 -149 107q-166 6 -166 141q0 69 47 157h27q11 -68 91 -75l91 -6q134 -11 134 -185v-75z" />
    <glyph glyph-name="uni05DA" unicode="&#x5da;" horiz-adv-x="926" 
d="M772 819q-19 -21 -17 -80l33 -916q4 -83 -18 -120t-77 -57l-18 8v1182h-464q-144 0 -144 126q0 94 61 164h26q16 -70 107 -70h438q127 0 127 -110v-31q0 -43 -21 -67z" />
    <glyph glyph-name="uni05DB" unicode="&#x5db;" horiz-adv-x="886" 
d="M792 537q0 -197 -33 -313t-128 -170t-251 -54h-329l47 204h379q238 0 238 299q1 197 -55 266q-55 67 -161 67h-275q-142 0 -142 126q0 94 61 164h26q16 -70 100 -70h206q317 0 317 -519z" />
    <glyph glyph-name="uni05DC" unicode="&#x5dc;" horiz-adv-x="884" 
d="M796 683q0 -131 -58 -195l-190 -213q-69 -77 -69 -151q0 -12 3 -36q4 -21 4 -36q0 -74 -67 -74t-67 83q0 118 148 269l146 151q62 65 62 166v60q0 79 -37 104t-148 25h-290q-156 0 -156 139q0 91 37 202l29 85q7 21 7 34q0 29 -36 47l-56 27q-43 21 -43 59q0 46 35 98h25
q4 -31 42 -46l38 -15q63 -26 63 -77q0 -11 -30 -123l-14 -51q-14 -54 -14 -78q0 -39 21 -60t97 -21h326q94 0 143 -45t49 -220v-108z" />
    <glyph glyph-name="uni05DD" unicode="&#x5dd;" horiz-adv-x="1039" 
d="M120 539q0 81 61 149l128 148h-64q-145 0 -145 128q0 95 61 162h26q16 -70 95 -70h279q231 0 299 -67q68 -68 68 -291v-698h-808v539zM254 658q-44 -65 -44 -155v-299h631v270q0 210 -37 285q-38 77 -170 77h-257z" />
    <glyph glyph-name="uni05DE" unicode="&#x5de;" horiz-adv-x="994" 
d="M899 490q0 -138 -37 -319l-34 -171h-499l48 204h423q29 111 29 264q1 154 -62 249q-65 95 -182 94q-158 0 -292 -200q-136 -202 -137 -611h-67q-4 45 -4 87q0 417 232 671q0 38 -20 55q-18 15 -93 32q-126 27 -126 134q0 83 42 156h27q18 -61 77 -70l62 -9q84 -12 84 -85
q0 -17 -4 -42q-5 -32 -5 -43q0 -42 31 -61q166 93 181 244q162 -27 244 -181t82 -398z" />
    <glyph glyph-name="uni05DF" unicode="&#x5df;" horiz-adv-x="562" 
d="M432 -90q12 -219 -106 -264l-19 8v886q1 69 55 167q21 37 21 68q0 51 -118 57q-198 9 -198 143q0 93 54 160h27q12 -73 91 -77l81 -4q153 -9 153 -164q0 -34 -40 -150q-40 -118 -33 -257z" />
    <glyph glyph-name="uni05E0" unicode="&#x5e0;" horiz-adv-x="624" 
d="M536 129q0 -89 -10 -129h-493l42 204h335l-8 167q-4 63 7 216q9 112 9 169q0 76 -83 81q-221 14 -221 138q0 99 61 160h27q12 -66 91 -72l81 -7q136 -12 136 -138q0 -60 -18 -180q-18 -118 -18 -180q0 -99 13 -155q49 -217 49 -274z" />
    <glyph glyph-name="uni05E1" unicode="&#x5e1;" horiz-adv-x="973" 
d="M879 537q0 -305 -89 -432q-90 -127 -272 -127h-37q-178 0 -277 124q-100 124 -100 331q0 240 110 404q-62 0 -90 39q-29 38 -29 86q0 96 61 164h26q16 -70 99 -70h244q192 0 273 -128q81 -129 81 -391zM804 503q0 203 -61 268q-62 65 -183 65h-287q-86 -145 -86 -317
q0 -335 268 -335h88q134 0 198 73q63 73 63 246z" />
    <glyph glyph-name="uni05E2" unicode="&#x5e2;" horiz-adv-x="930" 
d="M374 207q0 203 -55 248q-74 61 -91 102q-17 40 -17 92q0 61 21 182q-157 28 -157 140q0 85 40 164h27q17 -68 86 -75l47 -4q119 -12 119 -147q0 -32 -10 -59q-63 -19 -111 -19q0 -112 8 -149q7 -34 50 -63q63 -42 76 -70q14 -33 14 -107v-230l60 8q59 9 79 32
q19 22 43 131q23 101 87 237q55 116 55 149q0 57 -51 68q-147 35 -147 142q0 74 49 156h27q9 -41 35 -58q28 -18 97 -28q108 -17 108 -108q0 -65 -86 -249q-87 -183 -87 -406q0 -242 -278 -275l-345 -40l42 203z" />
    <glyph glyph-name="uni05E3" unicode="&#x5e3;" horiz-adv-x="930" 
d="M832 -205q0 -53 -10 -87q-11 -37 -81 -62l-23 8v837q0 199 -37 272t-181 73h-267q-60 -96 -60 -165q0 -45 21 -61q19 -17 87 -31q87 -17 87 -83v-50q0 -38 -34 -38q-12 0 -44 5q-27 4 -44 4q-72 0 -114 -53h-33q-32 66 -32 129q0 179 119 343q-90 18 -90 126q0 94 63 164
h26q16 -70 98 -70h151q156 0 229 -24q72 -24 101 -83q28 -59 36 -228l20 -450q12 -280 12 -476z" />
    <glyph glyph-name="uni05E4" unicode="&#x5e4;" horiz-adv-x="902" 
d="M808 537q0 -337 -100 -437t-308 -100h-312l47 204h362q133 0 186 75q52 73 52 224q0 166 -43 249q-44 84 -173 84h-262q-65 -41 -65 -106q0 -59 98 -79q97 -19 97 -85v-55q0 -32 -34 -32q-17 0 -44 4q-25 4 -44 4q-73 0 -114 -53h-32q-29 66 -29 143q0 156 112 259
l-62 45q-22 23 -22 81q0 96 61 164h26q16 -70 100 -70h190q313 0 313 -519z" />
    <glyph glyph-name="uni05E5" unicode="&#x5e5;" horiz-adv-x="988" 
d="M921 922q0 -30 -15 -86q-56 -19 -113 -19q-78 -60 -152 -137l-89 -91q-84 -86 -139 -178q-52 -88 -52 -198q0 -63 15 -186q14 -129 14 -187q0 -155 -101 -194l-23 8l-21 823q-1 46 31 148q32 101 32 142q0 43 -42 59q-142 26 -170 63q-29 38 -29 86q0 86 46 160h27
q16 -63 80 -70l64 -7q141 -14 141 -140q0 -45 -55 -179q-49 -123 -46 -192l4 -83h16q199 231 385 365q-157 25 -157 146q0 84 46 160h26q8 -63 84 -70l63 -7q130 -13 130 -136z" />
    <glyph glyph-name="uni05E6" unicode="&#x5e6;" horiz-adv-x="942" 
d="M864 937q0 -35 -15 -88q-33 -12 -114 -21q-51 -50 -91 -138q-40 -90 -42 -155q0 -93 87 -164l160 -131l-53 -240h-701l43 204h545l-330 264q-64 50 -62 115l5 144q1 58 -18 86q-21 28 -63 28q-154 0 -154 130q0 93 44 164h27q16 -72 82 -77l35 -2q68 -4 95 -31
q26 -26 26 -105q0 -28 -8 -95q-8 -69 -8 -97q0 -80 56 -127l95 -79q70 189 163 314q-127 28 -127 135q0 83 42 164h28q9 -70 88 -77l55 -4q110 -9 110 -117z" />
    <glyph glyph-name="uni05E7" unicode="&#x5e7;" horiz-adv-x="970" 
d="M875 683q0 -104 -21 -164t-85 -103l-220 -146q-78 -52 -78 -152q0 -5 2 -35q1 -16 1 -36q0 -69 -69 -69q-61 0 -61 78q0 166 173 282l191 128q78 52 78 157v72q0 85 -39 114q-41 27 -125 27h-372q-145 0 -145 126q0 94 61 164h26q16 -70 100 -70h339q129 0 187 -61
q57 -61 57 -215v-97zM210 -280q0 -33 -68 -74l-21 8v860q0 87 72 150h17v-944z" />
    <glyph glyph-name="uni05E8" unicode="&#x5e8;" horiz-adv-x="960" 
d="M848 80q0 -62 -70 -99l-21 7v486q0 198 -21 253q-23 56 -71 82q-49 27 -127 27h-327q-144 0 -144 126q0 94 61 164h26q16 -70 100 -70h227q231 0 299 -67q68 -68 68 -291v-618z" />
    <glyph glyph-name="uni05E9" unicode="&#x5e9;" horiz-adv-x="1250" 
d="M1183 915q0 -90 -93 -234q-96 -149 -164 -317q-70 -172 -105 -364h-559q-28 154 -63 276q-48 176 -48 285q0 148 41 269q-125 38 -125 136q0 93 50 169h27q10 -37 31 -52q22 -16 88 -29q100 -21 100 -155q0 -35 -6 -54q-65 -21 -118 -21q-23 -106 -23 -230
q0 -163 116 -390l31 1q137 252 240 629q-124 46 -124 146q0 86 51 155h27q12 -56 56 -67l63 -14q101 -23 101 -138q0 -41 -9 -71q-47 -14 -112 -14q-75 -345 -217 -627h318q47 154 254 444q53 74 53 124q0 52 -54 70l-13 4q-100 34 -100 118q0 95 58 171h26q7 -47 51 -64
l56 -19q95 -33 95 -137z" />
    <glyph glyph-name="uni05EA" unicode="&#x5ea;" 
d="M913 107q0 -86 -74 -124l-21 7v484q0 171 -10 227q-11 59 -56 97q-47 38 -142 38h-224l-42 -90q-62 -136 -62 -227q0 -49 13 -169q38 -192 35 -232l-6 -118h-291l42 204h126l-6 196q-7 201 74 338l58 98h-39q-153 0 -153 126q0 93 62 164h27q16 -70 100 -70h223
q231 0 299 -66q67 -67 67 -292v-591z" />
    <glyph glyph-name="uni05F0" unicode="&#x5f0;" horiz-adv-x="1141" 
d="M454 105q0 -89 -68 -124l-22 7v691q0 73 -22 107q-22 33 -123 50q-152 26 -152 152q0 92 58 147h27q7 -61 83 -75l84 -13q70 -10 103 -54q32 -44 32 -171v-717zM1024 105q0 -90 -67 -124l-22 7v691q0 72 -23 107q-22 33 -123 50q-152 26 -152 152q0 92 58 147h27
q9 -61 83 -75l84 -13q69 -11 102 -54t33 -171v-717z" />
    <glyph glyph-name="uni05F1" unicode="&#x5f1;" horiz-adv-x="1117" 
d="M457 794q0 -236 -153 -316l-28 32q106 79 106 220q0 101 -149 107q-166 6 -166 141q0 69 47 157h27q11 -68 91 -75l91 -6q134 -11 134 -185v-75zM1000 105q0 -89 -68 -124l-22 7v691q0 72 -23 107q-22 33 -123 50q-152 26 -152 152q0 91 59 147h27q7 -61 82 -75l84 -13
q70 -10 103 -54q33 -43 33 -171v-717z" />
    <glyph glyph-name="uni05F2" unicode="&#x5f2;" horiz-adv-x="1092" 
d="M457 794q0 -236 -153 -316l-28 32q106 79 106 220q0 101 -149 107q-166 6 -166 141q0 69 47 157h27q11 -68 91 -75l91 -6q134 -11 134 -185v-75zM1003 794q0 -236 -153 -316l-28 32q106 79 106 220q0 101 -149 107q-166 6 -166 141q0 69 47 157h27q11 -68 91 -75l91 -6
q134 -11 134 -185v-75z" />
    <glyph glyph-name="uni05F3" unicode="&#x5f3;" horiz-adv-x="428" 
d="M331 1014q0 -40 -90 -212l-93 -179h-41l8 284q5 189 138 189q78 0 78 -82z" />
    <glyph glyph-name="uni05F4" unicode="&#x5f4;" horiz-adv-x="761" 
d="M331 1014q0 -40 -90 -212l-93 -179h-41l8 284q5 189 138 189q78 0 78 -82zM664 1014q0 -43 -90 -212l-94 -179h-41l8 284q6 189 138 189q79 0 79 -82z" />
    <glyph glyph-name="uni0600" unicode="&#x600;" horiz-adv-x="1517" 
d="M70 -252h1085v70q0 178 27 255q18 50 90 142l78 -163q-73 -78 -94 -124q-26 -60 -28 -180h219v-174h-1377v174z" />
    <glyph glyph-name="uni0601" unicode="&#x601;" horiz-adv-x="2662" 
d="M2484 -47q108 0 108 -77q0 -123 -173 -302l-26 24q93 111 93 151q0 28 -32 28q-38 0 -585 -102q-552 -101 -599 -101q-96 0 -175 67q-73 -67 -182 -67q-71 0 -134 57q-17 15 -93 106q-48 57 -82 57q-47 0 -106 -65q-141 -155 -251 -155q-177 0 -177 245q0 112 55 198
l24 -7q-6 -39 -6 -63q0 -208 154 -208q79 0 152 67q91 84 111 99q62 47 105 47q51 0 132 -102t128 -102q122 0 122 106q0 50 -15 123l42 60l21 -94q24 -108 66 -154q38 -41 92 -41q61 0 618 102q554 103 613 103z" />
    <glyph glyph-name="uni0602" unicode="&#x602;" horiz-adv-x="1555" 
d="M538 -426q-137 0 -246 23q-144 32 -178 113q-44 105 -44 177q0 155 199 239q57 20 123 20q63 -3 87 -65q31 -72 32 -162v-171h974v-174h-947zM418 -244q27 58 28 95q0 31 -6 62q-19 61 -83 70q-73 0 -156 -89q-36 -47 -38 -78q5 -35 141 -50q76 -9 114 -10z" />
    <glyph glyph-name="uni0603" unicode="&#x603;" horiz-adv-x="1883" 
d="M851 -426q-88 0 -190 63q-73 -63 -218 -63h-373v174h373q80 0 116 14q58 22 58 92q0 50 -14 123l41 60q73 -289 249 -289q118 0 242 94q31 25 103.5 84t111.5 91q130 94 264 94q199 0 199 -254v-283h-962zM1511 -252q139 0 139 81q0 100 -133 100q-82 0 -189 -65
l-188 -116h371z" />
    <glyph glyph-name="uni060B" unicode="&#x60b;" horiz-adv-x="538" 
d="M223 1307l83 140l145 -92l-88 -144zM-70 467h343q117 0 200 24q-175 26 -223 47q-115 49 -115 170q0 106 55 198q62 105 151 105q103 0 155 -130q42 -103 42 -243v-345h-608v174zM316 660q27 -9 132 -18q-22 80 -44 119q-40 75 -99 75q-29 0 -48 -22q-20 -23 -20 -52
q0 -77 79 -102zM135 177h174v-444h-174v444z" />
    <glyph glyph-name="uni060C" unicode="&#x60c;" horiz-adv-x="653" 
d="M276 634q0 -54 109 -78q108 -24 108 -139q0 -54 -40 -95q-41 -42 -103 -42q-77 0 -128 72t-51 179q0 149 88 261q42 53 129 116l33 -55q-60 -55 -90 -94q-55 -70 -55 -125z" />
    <glyph glyph-name="uni060C" unicode="&#x66c;" horiz-adv-x="653" 
d="M276 634q0 -54 109 -78q108 -24 108 -139q0 -54 -40 -95q-41 -42 -103 -42q-77 0 -128 72t-51 179q0 149 88 261q42 53 129 116l33 -55q-60 -55 -90 -94q-55 -70 -55 -125z" />
    <glyph glyph-name="uni060D" unicode="&#x60d;" horiz-adv-x="489" 
d="M417 293q-168 0 -311 -368l-46 29q152 513 369 513h60v-174h-72z" />
    <glyph glyph-name="uni060E" unicode="&#x60e;" horiz-adv-x="1345" 
d="M398 293q-137 0 -246 23q-144 32 -178 113q-44 105 -44 177q0 156 189 229q60 29 133 30q63 -3 87 -65q31 -72 32 -162v-170l974 -1v-174h-947zM278 475q29 54 31 101q0 30 -9 56q-19 66 -76 71q-64 -1 -156 -90q-42 -47 -45 -78q1 -33 141 -50q76 -9 114 -10z" />
    <glyph glyph-name="uni060F" unicode="&#x60f;" horiz-adv-x="1114" 
d="M930 270q89 -91 89 -257q0 -242 -187 -360q-136 -87 -319 -87q-253 0 -388 179q-49 -89 -82 -179l-26 12q15 53 80 211q-55 97 -55 223q0 219 127 376q27 34 98 103q-94 47 -133 83q-82 76 -82 195q0 105 89 208q102 117 247 117q64 0 138 -38q48 -25 123 -83
q-103 0 -201 -13q-315 -40 -315 -145q0 -61 115 -116q93 -45 220 -65q204 110 415 162l-42 -156q-197 -77 -300 -124q-412 -193 -412 -433q0 -87 36 -155q236 425 543 425q139 0 222 -83zM833 -195q99 65 99 165q0 203 -241 203q-272 0 -487 -302q119 -132 364 -132
q163 0 265 66z" />
    <glyph glyph-name="uni061B" unicode="&#x61b;" horiz-adv-x="653" 
d="M265 974q0 -54 109 -78q108 -24 108 -139q0 -54 -40 -95q-40 -42 -103 -42q-77 0 -128 72t-51 179q0 149 88 261q42 53 129 116l33 -55q-60 -55 -90 -94q-55 -70 -55 -125zM340 510q49 0 82 -33t33 -83q0 -46 -33 -81q-35 -35 -82 -35q-48 0 -83 35q-36 35 -36 81
q0 47 35 82q34 34 84 34z" />
    <glyph glyph-name="uni061E" unicode="&#x61e;" horiz-adv-x="592" 
d="M165 647l116 116l128 -132l-118 -115zM316 420l115 112l131 -131l-119 -113zM30 402l115 115l130 -131l-117 -114z" />
    <glyph glyph-name="uni061F" unicode="&#x61f;" horiz-adv-x="730" 
d="M380 1457q119 0 204 -68q84 -69 84 -180q0 -63 -36 -109q-41 -53 -105 -53q-50 0 -83 33t-33 77q0 68 55 102t55 56q0 34 -32 55q-31 21 -84 21q-65 0 -106 -36q-42 -37 -42 -90q0 -49 42 -125q65 -116 78 -150q42 -105 42 -227q0 -69 -10 -148l-61 1q0 21 1 28l5 52
q0 56 -74 122q-126 112 -138 126q-75 88 -75 200q0 136 90 224q91 89 223 89zM365 529q52 0 86 -37q35 -38 35 -88q0 -51 -36 -87q-37 -37 -89 -37q-49 0 -85 37t-36 87q0 52 37 89q36 36 88 36z" />
    <glyph glyph-name="uni0660" unicode="&#x660;" horiz-adv-x="1077" 
d="M583 832q48 -36 122 -88q-29 -87 -42 -141q-13 -52 -33 -155q-86 49 -133 82q-18 13 -117 91q21 91 39 150q18 63 51 154q53 -47 113 -93z" />
    <glyph glyph-name="uni0660" unicode="&#x6f0;" horiz-adv-x="1077" 
d="M583 832q48 -36 122 -88q-29 -87 -42 -141q-13 -52 -33 -155q-86 49 -133 82q-18 13 -117 91q21 91 39 150q18 63 51 154q53 -47 113 -93z" />
    <glyph glyph-name="uni0661" unicode="&#x661;" horiz-adv-x="1077" 
d="M628 1048q42 -152 42 -337q0 -86 -14 -209q-5 -44 -28 -209h-34q0 36 4 139q0 213 -58 396q-46 145 -124 269q-39 62 -114 154l96 216q77 -91 127 -176q69 -119 103 -243z" />
    <glyph glyph-name="uni0661" unicode="&#x6f1;" horiz-adv-x="1077" 
d="M628 1048q42 -152 42 -337q0 -86 -14 -209q-5 -44 -28 -209h-34q0 36 4 139q0 213 -58 396q-46 145 -124 269q-39 62 -114 154l96 216q77 -91 127 -176q69 -119 103 -243z" />
    <glyph glyph-name="uni0662" unicode="&#x662;" horiz-adv-x="1077" 
d="M793 1480q5 -34 6 -81q2 -62 2 -92q0 -111 -52 -176q-57 -72 -161 -72q-10 0 -69 8q36 -76 54 -127q28 -82 41 -185q14 -110 14 -284q0 -7 -2 -101l-2 -77h-30q-80 339 -101 408q-47 162 -113 290q-66 123 -197 287l66 202q69 -97 119 -141q94 -84 201 -84q111 0 155 75
q23 39 37 148z" />
    <glyph glyph-name="uni0662" unicode="&#x6f2;" horiz-adv-x="1077" 
d="M793 1480q5 -34 6 -81q2 -62 2 -92q0 -111 -52 -176q-57 -72 -161 -72q-10 0 -69 8q36 -76 54 -127q28 -82 41 -185q14 -110 14 -284q0 -7 -2 -101l-2 -77h-30q-80 339 -101 408q-47 162 -113 290q-66 123 -197 287l66 202q69 -97 119 -141q94 -84 201 -84q111 0 155 75
q23 39 37 148z" />
    <glyph glyph-name="uni0663" unicode="&#x663;" horiz-adv-x="1077" 
d="M959 1480q0 -22 3 -58l2 -43q0 -124 -47 -191q-48 -66 -147 -66q-57 0 -99 18q-43 18 -62 55q-35 -56 -86 -84q-53 -29 -125 -29q33 -64 53 -112q28 -69 45 -151q15 -80 15 -193q0 -56 -5 -121q-6 -60 -30 -212h-40q0 222 -28 361q-28 140 -96 274q-52 100 -183 294
l73 237q54 -88 112 -130q67 -49 149 -49q85 0 133 58q40 49 57 142h32q7 -92 36 -129q28 -37 80 -37q106 0 125 166h33z" />
    <glyph glyph-name="uni0663" unicode="&#x6f3;" horiz-adv-x="1077" 
d="M959 1480q0 -22 3 -58l2 -43q0 -124 -47 -191q-48 -66 -147 -66q-57 0 -99 18q-43 18 -62 55q-35 -56 -86 -84q-53 -29 -125 -29q33 -64 53 -112q28 -69 45 -151q15 -80 15 -193q0 -56 -5 -121q-6 -60 -30 -212h-40q0 222 -28 361q-28 140 -96 274q-52 100 -183 294
l73 237q54 -88 112 -130q67 -49 149 -49q85 0 133 58q40 49 57 142h32q7 -92 36 -129q28 -37 80 -37q106 0 125 166h33z" />
    <glyph glyph-name="uni0664" unicode="&#x664;" horiz-adv-x="1077" 
d="M609 526q84 -20 205 -31l-63 -202q-94 0 -173 13q-110 16 -177 51q-82 40 -82 102q0 56 35 117q29 50 92 117q33 35 125 122q-35 13 -170 65q-101 45 -101 91q0 75 74 176q60 81 166 175q88 77 169 139l-31 -192q-105 -38 -148 -59q-88 -43 -88 -79q0 -32 75 -65
q94 -36 141 -53q76 -31 76 -57q0 -28 -68 -101q-84 -88 -126 -131q-68 -77 -68 -118q0 -48 137 -80z" />
    <glyph glyph-name="uni0665" unicode="&#x665;" horiz-adv-x="1077" 
d="M532 1273q117 0 241 -119q123 -118 123 -233q0 -174 -103 -286q-117 -129 -332 -129q-121 0 -191 42q-80 48 -80 139q0 79 44 216q50 153 120 250q86 120 178 120zM544 689q123 0 200 37q78 36 78 89q0 57 -80 123q-66 54 -168 100q-94 41 -140 41q-66 0 -110 -90
q-36 -73 -36 -145q0 -82 69 -120q64 -35 187 -35z" />
    <glyph glyph-name="uni0666" unicode="&#x666;" horiz-adv-x="1077" 
d="M760 651q17 -26 79 -103l-38 -228q-68 46 -98 80q-58 64 -85 152q-36 111 -36 274q0 51 5 119q4 41 22 199l-71 -13q-76 -14 -121 -14q-155 0 -204 32q-38 26 -38 103q0 33 3 99t3 100l36 4q24 -55 46 -73q46 -37 152 -37q82 0 178 19q50 10 107 23l-24 -154
q-12 -87 -12 -152q0 -163 28 -271q23 -90 68 -159z" />
    <glyph glyph-name="uni0667" unicode="&#x667;" horiz-adv-x="1077" 
d="M720 1089q85 208 220 366l-8 -287q-148 -151 -235 -360q-88 -210 -128 -515h-14q-65 309 -163 501q-102 197 -263 340l36 317q157 -184 256 -390q98 -204 161 -467h10q39 276 128 495z" />
    <glyph glyph-name="uni0667" unicode="&#x6f7;" horiz-adv-x="1077" 
d="M720 1089q85 208 220 366l-8 -287q-148 -151 -235 -360q-88 -210 -128 -515h-14q-65 309 -163 501q-102 197 -263 340l36 317q157 -184 256 -390q98 -204 161 -467h10q39 276 128 495z" />
    <glyph glyph-name="uni0668" unicode="&#x668;" horiz-adv-x="1077" 
d="M795 813q66 -90 171 -186l-36 -316q-147 152 -259 381q-110 227 -160 481h-7q-44 -225 -75 -339q-41 -149 -102 -269t-173 -260v286q145 135 233 346q87 211 136 530h19q51 -239 114 -396q57 -145 139 -258z" />
    <glyph glyph-name="uni0668" unicode="&#x6f8;" horiz-adv-x="1077" 
d="M795 813q66 -90 171 -186l-36 -316q-147 152 -259 381q-110 227 -160 481h-7q-44 -225 -75 -339q-41 -149 -102 -269t-173 -260v286q145 135 233 346q87 211 136 530h19q51 -239 114 -396q57 -145 139 -258z" />
    <glyph glyph-name="uni0669" unicode="&#x669;" horiz-adv-x="1077" 
d="M777 611q15 -39 68 -105l-61 -213q-101 62 -132 205q-26 121 -26 419q-64 -23 -102 -31q-32 -7 -67 -7q-109 0 -173 45q-65 45 -65 129q0 61 30 153q38 117 102 187q82 91 193 91q82 0 126 -87q36 -73 46 -209q7 -80 7 -254q20 -230 54 -323zM480 1077q30 0 73 6l65 9
q0 90 -23 138q-31 64 -111 64q-60 0 -116 -45t-56 -84q0 -43 49 -65q51 -23 119 -23z" />
    <glyph glyph-name="uni0669" unicode="&#x6f9;" horiz-adv-x="1077" 
d="M777 611q15 -39 68 -105l-61 -213q-101 62 -132 205q-26 121 -26 419q-64 -23 -102 -31q-32 -7 -67 -7q-109 0 -173 45q-65 45 -65 129q0 61 30 153q38 117 102 187q82 91 193 91q82 0 126 -87q36 -73 46 -209q7 -80 7 -254q20 -230 54 -323zM480 1077q30 0 73 6l65 9
q0 90 -23 138q-31 64 -111 64q-60 0 -116 -45t-56 -84q0 -43 49 -65q51 -23 119 -23z" />
    <glyph glyph-name="uni066A" unicode="&#x66a;" horiz-adv-x="1077" 
d="M305 1592q55 0 93 -36t38 -91q0 -54 -38 -94q-38 -39 -93 -39t-92 40q-39 39 -39 93q0 52 38 90q37 37 93 37zM133 189l700 1402h115l-706 -1402h-109zM769 435q54 0 93 -39t39 -94q0 -54 -38 -92t-94 -38q-54 0 -92 38q-37 37 -37 92q0 53 38 94q38 39 91 39z" />
    <glyph glyph-name="uni066B" unicode="&#x66b;" horiz-adv-x="653" 
d="M328 546q57 0 100 -40t43 -96q0 -84 -38 -158q-32 -60 -90 -116q-32 -31 -108 -88l-42 55q74 59 92 80q41 46 41 85q-48 19 -86 51q-41 36 -41 96q0 53 38 93q38 38 91 38z" />
    <glyph glyph-name="uni066D" unicode="&#x66d;" horiz-adv-x="1077" 
d="M791 1241q34 0 56 -17q21 -18 21 -50q0 -29 -22 -47t-55 -18q-55 0 -127 25l-74 26l-10 -30l118 -58q86 -47 86 -101q0 -27 -18 -47q-20 -20 -47 -20q-51 0 -158 207q-9 -6 -21 -9q20 -61 31 -102q17 -62 17 -104q0 -31 -16 -50q-17 -20 -49 -20q-30 0 -47 20t-17 50
q0 44 18 100q16 49 36 106l-27 9l-67 -127q-47 -80 -94 -80q-28 0 -46 19t-18 48q0 53 86 100q2 1 15.5 7.5t43.5 21t62 30.5q-8 19 -11 30l-100 -33q-59 -18 -102 -18q-33 0 -54 18q-22 16 -22 47t21 49t55 18q44 0 98 -18q16 -6 104 -37q2 13 11 34l-121 57q-86 45 -86 99
q0 30 18 49q18 20 46 20q46 0 93 -80q59 -110 68 -128l25 8q0 2 -25 76q-27 81 -27 130q0 29 17 52q16 21 47 21q33 0 49 -21q16 -20 16 -52q0 -45 -18 -99l-36 -105l27 -10q65 126 66 127q47 81 92 81q29 0 47 -20t18 -49q0 -53 -85 -98l-119 -58l10 -34q71 26 98 35
q62 20 103 20zM523 1134q17 0 29 12q11 11 11 28q0 18 -11 29t-29 11q-17 0 -28 -11t-11 -29q0 -15 11 -28q11 -12 28 -12z" />
    <glyph glyph-name="uni06D4" unicode="&#x6d4;" horiz-adv-x="424" 
d="M40 467h344v-174h-344v174z" />
    <glyph glyph-name="uni06DD" unicode="&#x6dd;" horiz-adv-x="2300" 
d="M2146 1181q104 -222 104 -466t-104 -466q-100 -213 -279 -368q3 -13 3 -29q0 -55 -39 -94q-40 -38 -94 -38q-41 0 -73 22q-239 -127 -515 -127q-274 0 -513 127q-32 -22 -73 -22q-54 0 -94 38q-39 39 -39 94q0 16 3 29q-179 155 -279 368q-104 222 -104 466t104 466
q100 212 279 367q-3 14 -3 29q0 55 39 94q40 38 94 38q41 0 73 -22q239 127 515 127q274 0 513 -127q32 22 73 22q54 0 94 -38q39 -39 39 -94q0 -15 -3 -29q179 -155 279 -367zM1602 1595q-211 109 -451 109q-242 0 -453 -109h904zM562 1498q33 0 56 23t23 55q0 31 -23 56
q-25 23 -56 23q-32 0 -55 -23t-23 -56q0 -32 23 -55t55 -23zM1738 1498q32 0 55 23t23 55q0 33 -23 56t-55 23t-55 -23q-24 -24 -24 -56t23 -55t56 -23zM1801 -31q339 295 339 745q0 218 -92 417q-88 190 -247 329q-28 -16 -64 -16q-56 0 -95 41h-984q-39 -41 -95 -41
q-36 0 -64 16q-159 -139 -247 -329q-92 -199 -92 -417q0 -450 339 -745q28 16 64 16q56 0 95 -41h984q39 41 95 41q36 0 64 -16zM562 -226q31 0 56 23q23 25 23 56q0 32 -23 55t-56 23q-32 0 -55 -23t-23 -55q0 -33 23 -56t55 -23zM1738 -226q32 0 55 23t23 56q0 32 -23 55
t-55 23q-33 0 -56 -23t-23 -55t24 -56q23 -23 55 -23zM1151 -275q240 0 451 109h-904q211 -109 453 -109z" />
    <glyph glyph-name="uni06DE" unicode="&#x6de;" horiz-adv-x="2221" 
d="M1861 0h-440l-310 -311l-311 311h-439v439l-311 311l311 311v439h439l311 311l310 -311h440v-439l310 -311l-310 -311v-439zM906 1500h409l-204 205zM436 1136l289 289h-289v-289zM831 1425l-395 -395v-560l395 -395h559l396 395v560l-396 395h-559zM1496 1425l290 -289
v289h-290zM1111 967q89 0 154 -63q63 -64 63 -154t-63 -154q-64 -64 -154 -64t-154 64t-64 154t64 154q65 63 154 63zM361 545v410l-205 -205zM1861 545l204 205l-204 205v-410zM1110 607q59 0 101 42t42 101t-42 101q-43 41 -101 41q-59 0 -100 -41q-42 -42 -42 -101
t42 -101q40 -42 100 -42zM725 75l-289 289v-289h289zM1496 75h290v289zM1315 0h-409l205 -205z" />
    <glyph glyph-name="uni06E5" unicode="&#x6e5;" horiz-adv-x="397" 
d="M397 1304q0 -79 -58 -156q-65 -86 -149 -86q-34 0 -65 7q-27 6 -63 18l-62 21l8 17l56 -13q28 -7 52 -7q103 0 191 97q19 20 58 73q-132 0 -132 97q0 48 23 91q26 48 67 48q74 0 74 -153v-54zM278 1404q0 -48 89 -48q-18 79 -56 79q-33 0 -33 -31z" />
    <glyph glyph-name="uni06E9" unicode="&#x6e9;" horiz-adv-x="1229" 
d="M278 261v588l-228 259l564 568l565 -568l-228 -259v-588l228 -261h-1129zM128 1108l210 -237v-632l-160 -183h873l-160 183v632l210 237l-487 490zM845 131h-461v806l-150 171l380 381l381 -381l-150 -171v-806zM307 1108l126 -140v-782h363v782l126 140l-308 308z
M745 267h-261v744l-88 97l218 223l219 -223l-88 -97v-744zM449 1108l74 -81v-718h182v718l75 81l-166 170z" />
    <glyph glyph-name="uni06F4" unicode="&#x6f4;" horiz-adv-x="1077" 
d="M295 1001q-54 113 -137 226l75 240q91 -164 127 -210q38 -48 108 -90q13 161 62 236q46 72 138 72q60 0 110 -30q44 -26 94 -87l-8 -12l-38 12q-48 16 -95 16q-94 0 -149 -52q-57 -53 -86 -169q44 -14 88 -23q38 -8 67 -8q83 0 139 28q59 29 119 103l23 -8
q-29 -148 -105 -224q-79 -77 -200 -77q-57 0 -93 11q-34 11 -75 39q42 -96 54 -161q9 -49 9 -157q0 -142 -51 -375h-35q0 219 -39 399q-34 158 -102 301z" />
    <glyph glyph-name="uni06F5" unicode="&#x6f5;" horiz-adv-x="1077" 
d="M496 1450q210 -208 315 -417q92 -182 92 -333q0 -119 -65 -225q-74 -119 -181 -119q-30 0 -52 7q-23 7 -52 30q-42 -36 -88 -52q-45 -15 -92 -15q-95 0 -156 52q-65 56 -65 150q0 114 81 256q81 143 277 370l-80 77zM422 528q42 0 79 14q34 13 89 56q23 -23 61 -39
q36 -16 78 -16q47 0 81 26q32 26 32 64q0 74 -87 209q-78 123 -221 282q-46 -49 -89 -110q-63 -87 -103 -171q-49 -102 -49 -177q0 -64 34 -101t95 -37z" />
    </font>
</defs>
</svg>
